SplineFontDB: 3.1
FontName: PXLfont88665b
FullName: PXLfont88665 Bold Mono
FamilyName: PXLfont88665b
Weight: Bold
Copyright: Retrofan
Version: 2.3.0
ItalicAngle: 0
UnderlinePosition: -16
UnderlineWidth: 8
Ascent: 56
Descent: 8
InvalidEm: 0
LayerCount: 2
Layer: 0 1 "Background" 1
Layer: 1 1 "Character" 0
XUID: [1021 325 1157117172 16076]
StyleMap: 0x0040
FSType: 0
OS2Version: 0
OS2_WeightWidthSlopeOnly: 0
OS2_UseTypoMetrics: 0
CreationTime: 1562899369
ModificationTime: 1581122453
PfmFamily: 49
TTFWeight: 400
TTFWidth: 5
LineGap: 0
VLineGap: 0
Panose: 2 1 6 9 6 2 2 8 1 1
OS2TypoAscent: 56
OS2TypoAOffset: 0
OS2TypoDescent: -8
OS2TypoDOffset: 0
OS2TypoLinegap: 0
OS2WinAscent: 56
OS2WinAOffset: 0
OS2WinDescent: 8
OS2WinDOffset: 0
HheadAscent: 56
HheadAOffset: 0
HheadDescent: -8
HheadDOffset: 0
OS2SubXSize: 64
OS2SubYSize: 32
OS2SubXOff: 0
OS2SubYOff: 8
OS2SupXSize: 32
OS2SupYSize: 32
OS2SupXOff: 0
OS2SupYOff: 32
OS2StrikeYSize: 8
OS2StrikeYPos: 24
OS2CapHeight: 56
OS2XHeight: 40
OS2FamilyClass: 2058
OS2Vendor: '    '
OS2CodePages: 20000001.80000000
OS2UnicodeRanges: 80000083.1000f860.00000000.00000000
MarkAttachClasses: 1
DEI: 91125
LangName: 1033
GaspTable: 1 65535 1 0
Encoding: UnicodeBmp
UnicodeInterp: none
NameList: Adobe Glyph List
DisplaySize: -36
AntiAlias: 0
FitToEm: 0
ExtremaBound: 20
WidthSeparation: 307
WinInfo: 0 16 17
BeginPrivate: 0
EndPrivate
TeXData: 1 0 0 -1048576 -524288 -349525 0 -1048576 -349525 783286 444596 497025 792723 393216 433062 380633 303038 157286 324010 404750 52429 2506097 1059062 262144
BeginChars: 65536 1784

StartChar: uni0003
Encoding: 3 3 1
Width: 64
VWidth: 128
Flags: MW
LayerCount: 2
Fore
SplineSet
8 24 m 1,0,-1
 8 40 l 1,1,-1
 16 40 l 1,2,-1
 16 48 l 1,3,-1
 32 48 l 1,4,-1
 32 40 l 1,5,-1
 40 40 l 1,6,-1
 40 48 l 1,7,-1
 56 48 l 1,8,-1
 56 40 l 1,9,-1
 64 40 l 1,10,-1
 64 24 l 1,11,-1
 56 24 l 1,12,-1
 56 16 l 1,13,-1
 48 16 l 1,14,-1
 48 8 l 1,15,-1
 40 8 l 1,16,-1
 40 0 l 1,17,-1
 32 0 l 1,18,-1
 32 8 l 1,19,-1
 24 8 l 1,20,-1
 24 16 l 1,21,-1
 16 16 l 1,22,-1
 16 24 l 1,23,-1
 8 24 l 1,0,-1
EndSplineSet
EndChar

StartChar: uni0004
Encoding: 4 4 2
Width: 64
VWidth: 128
Flags: MW
LayerCount: 2
Fore
SplineSet
8 16 m 1,0,-1
 8 32 l 1,1,-1
 16 32 l 1,2,-1
 16 40 l 1,3,-1
 24 40 l 1,4,-1
 24 48 l 1,5,-1
 40 48 l 1,6,-1
 40 40 l 1,7,-1
 48 40 l 1,8,-1
 48 32 l 1,9,-1
 56 32 l 1,10,-1
 56 16 l 1,11,-1
 48 16 l 1,12,-1
 48 8 l 1,13,-1
 40 8 l 1,14,-1
 40 0 l 1,15,-1
 24 0 l 1,16,-1
 24 8 l 1,17,-1
 16 8 l 1,18,-1
 16 16 l 1,19,-1
 8 16 l 1,0,-1
EndSplineSet
EndChar

StartChar: uni0005
Encoding: 5 5 3
Width: 64
VWidth: 128
Flags: MW
LayerCount: 2
Fore
SplineSet
8 16 m 1,0,-1
 8 32 l 1,1,-1
 24 32 l 1,2,-1
 24 48 l 1,3,-1
 40 48 l 1,4,-1
 40 32 l 1,5,-1
 56 32 l 1,6,-1
 56 16 l 1,7,-1
 40 16 l 1,8,-1
 40 8 l 1,9,-1
 48 8 l 1,10,-1
 48 0 l 1,11,-1
 16 0 l 1,12,-1
 16 8 l 1,13,-1
 24 8 l 1,14,-1
 24 16 l 1,15,-1
 32 16 l 1,16,-1
 32 24 l 1,17,-1
 24 24 l 1,18,-1
 24 16 l 1,19,-1
 8 16 l 1,0,-1
32 24 m 1,20,-1
 40 24 l 1,21,-1
 40 32 l 1,22,-1
 32 32 l 1,23,-1
 32 24 l 1,20,-1
EndSplineSet
EndChar

StartChar: uni0006
Encoding: 6 6 4
Width: 64
VWidth: 128
Flags: MW
LayerCount: 2
Fore
SplineSet
8 16 m 1,0,-1
 8 32 l 1,1,-1
 16 32 l 1,2,-1
 16 40 l 1,3,-1
 24 40 l 1,4,-1
 24 48 l 1,5,-1
 40 48 l 1,6,-1
 40 40 l 1,7,-1
 48 40 l 1,8,-1
 48 32 l 1,9,-1
 56 32 l 1,10,-1
 56 16 l 1,11,-1
 40 16 l 1,12,-1
 40 8 l 1,13,-1
 48 8 l 1,14,-1
 48 0 l 1,15,-1
 16 0 l 1,16,-1
 16 8 l 1,17,-1
 24 8 l 1,18,-1
 24 16 l 1,19,-1
 8 16 l 1,0,-1
EndSplineSet
EndChar

StartChar: exclam
Encoding: 33 33 6
Width: 64
Flags: MW
LayerCount: 2
Fore
SplineSet
24 16 m 1,0,-1
 24 48 l 1,1,-1
 40 48 l 1,2,-1
 40 16 l 1,3,-1
 24 16 l 1,0,-1
24 0 m 1,4,-1
 24 8 l 1,5,-1
 40 8 l 1,6,-1
 40 0 l 1,7,-1
 24 0 l 1,4,-1
EndSplineSet
EndChar

StartChar: numbersign
Encoding: 35 35 8
Width: 64
Flags: MW
LayerCount: 2
Fore
SplineSet
32 16 m 1,0,-1
 40 16 l 1,1,-1
 40 32 l 1,2,-1
 32 32 l 1,3,-1
 32 16 l 1,0,-1
8 8 m 1,4,-1
 8 16 l 1,5,-1
 16 16 l 1,6,-1
 16 32 l 1,7,-1
 8 32 l 1,8,-1
 8 40 l 1,9,-1
 16 40 l 1,10,-1
 16 48 l 1,11,-1
 32 48 l 1,12,-1
 32 40 l 1,13,-1
 40 40 l 1,14,-1
 40 48 l 1,15,-1
 56 48 l 1,16,-1
 56 40 l 1,17,-1
 64 40 l 1,18,-1
 64 32 l 1,19,-1
 56 32 l 1,20,-1
 56 16 l 1,21,-1
 64 16 l 1,22,-1
 64 8 l 1,23,-1
 56 8 l 1,24,-1
 56 0 l 1,25,-1
 40 0 l 1,26,-1
 40 8 l 1,27,-1
 32 8 l 1,28,-1
 32 0 l 1,29,-1
 16 0 l 1,30,-1
 16 8 l 1,31,-1
 8 8 l 1,4,-1
EndSplineSet
EndChar

StartChar: dollar
Encoding: 36 36 9
Width: 64
Flags: MW
LayerCount: 2
Fore
SplineSet
16 0 m 1,0,-1
 16 8 l 1,1,-1
 32 8 l 1,2,-1
 32 16 l 1,3,-1
 16 16 l 1,4,-1
 16 32 l 1,5,-1
 24 32 l 1,6,-1
 24 48 l 1,7,-1
 40 48 l 1,8,-1
 40 40 l 1,9,-1
 48 40 l 1,10,-1
 48 32 l 1,11,-1
 32 32 l 1,12,-1
 32 24 l 1,13,-1
 48 24 l 1,14,-1
 48 8 l 1,15,-1
 40 8 l 1,16,-1
 40 -8 l 1,17,-1
 24 -8 l 1,18,-1
 24 0 l 1,19,-1
 16 0 l 1,0,-1
EndSplineSet
EndChar

StartChar: percent
Encoding: 37 37 10
Width: 64
Flags: MW
LayerCount: 2
Fore
SplineSet
48 8 m 1,0,-1
 56 8 l 1,1,-1
 56 16 l 1,2,-1
 48 16 l 1,3,-1
 48 8 l 1,0,-1
8 24 m 1,4,-1
 8 48 l 1,5,-1
 32 48 l 1,6,-1
 32 32 l 1,7,-1
 24 32 l 1,8,-1
 24 40 l 1,9,-1
 16 40 l 1,10,-1
 16 32 l 1,11,-1
 24 32 l 1,12,-1
 24 24 l 1,13,-1
 8 24 l 1,4,-1
8 0 m 1,14,-1
 8 8 l 1,15,-1
 16 8 l 1,16,-1
 16 16 l 1,17,-1
 24 16 l 1,18,-1
 24 24 l 1,19,-1
 32 24 l 1,20,-1
 32 32 l 1,21,-1
 40 32 l 1,22,-1
 40 40 l 1,23,-1
 48 40 l 1,24,-1
 48 48 l 1,25,-1
 64 48 l 1,26,-1
 64 40 l 1,27,-1
 56 40 l 1,28,-1
 56 32 l 1,29,-1
 48 32 l 1,30,-1
 48 24 l 1,31,-1
 40 24 l 1,32,-1
 40 16 l 1,33,-1
 32 16 l 1,34,-1
 32 8 l 1,35,-1
 24 8 l 1,36,-1
 24 0 l 1,37,-1
 8 0 l 1,14,-1
48 16 m 1,38,-1
 48 24 l 1,39,-1
 64 24 l 1,40,-1
 64 0 l 1,41,-1
 40 0 l 1,42,-1
 40 16 l 1,43,-1
 48 16 l 1,38,-1
EndSplineSet
EndChar

StartChar: ampersand
Encoding: 38 38 11
Width: 64
Flags: MW
LayerCount: 2
Fore
SplineSet
24 32 m 1,0,-1
 32 32 l 1,1,-1
 32 40 l 1,2,-1
 24 40 l 1,3,-1
 24 32 l 1,0,-1
24 8 m 1,4,-1
 40 8 l 1,5,-1
 40 16 l 1,6,-1
 32 16 l 1,7,-1
 32 24 l 1,8,-1
 24 24 l 1,9,-1
 24 8 l 1,4,-1
8 8 m 1,10,-1
 8 24 l 1,11,-1
 16 24 l 1,12,-1
 16 32 l 1,13,-1
 8 32 l 1,14,-1
 8 40 l 1,15,-1
 16 40 l 1,16,-1
 16 48 l 1,17,-1
 40 48 l 1,18,-1
 40 40 l 1,19,-1
 48 40 l 1,20,-1
 48 32 l 1,21,-1
 40 32 l 1,22,-1
 40 24 l 1,23,-1
 64 24 l 1,24,-1
 64 16 l 1,25,-1
 56 16 l 1,26,-1
 56 8 l 1,27,-1
 64 8 l 1,28,-1
 64 0 l 1,29,-1
 16 0 l 1,30,-1
 16 8 l 1,31,-1
 8 8 l 1,10,-1
EndSplineSet
EndChar

StartChar: quotesingle
Encoding: 39 39 12
Width: 64
Flags: MW
LayerCount: 2
Fore
SplineSet
24 24 m 1,0,-1
 24 48 l 1,1,-1
 40 48 l 1,2,-1
 40 32 l 1,3,-1
 32 32 l 1,4,-1
 32 24 l 1,5,-1
 24 24 l 1,0,-1
EndSplineSet
EndChar

StartChar: parenleft
Encoding: 40 40 13
Width: 64
Flags: MW
LayerCount: 2
Fore
SplineSet
16 8 m 1,0,-1
 16 40 l 1,1,-1
 24 40 l 1,2,-1
 24 48 l 1,3,-1
 40 48 l 1,4,-1
 40 40 l 1,5,-1
 32 40 l 1,6,-1
 32 8 l 1,7,-1
 40 8 l 1,8,-1
 40 0 l 1,9,-1
 24 0 l 1,10,-1
 24 8 l 1,11,-1
 16 8 l 1,0,-1
EndSplineSet
EndChar

StartChar: parenright
Encoding: 41 41 14
Width: 64
Flags: MW
LayerCount: 2
Fore
SplineSet
24 0 m 1,0,-1
 24 8 l 1,1,-1
 32 8 l 1,2,-1
 32 40 l 1,3,-1
 24 40 l 1,4,-1
 24 48 l 1,5,-1
 40 48 l 1,6,-1
 40 40 l 1,7,-1
 48 40 l 1,8,-1
 48 8 l 1,9,-1
 40 8 l 1,10,-1
 40 0 l 1,11,-1
 24 0 l 1,0,-1
EndSplineSet
EndChar

StartChar: asterisk
Encoding: 42 42 15
Width: 64
Flags: MW
LayerCount: 2
Fore
SplineSet
0 16 m 1,0,-1
 0 24 l 1,1,-1
 16 24 l 1,2,-1
 16 32 l 1,3,-1
 8 32 l 1,4,-1
 8 40 l 1,5,-1
 24 40 l 1,6,-1
 24 32 l 1,7,-1
 40 32 l 1,8,-1
 40 40 l 1,9,-1
 56 40 l 1,10,-1
 56 32 l 1,11,-1
 48 32 l 1,12,-1
 48 24 l 1,13,-1
 64 24 l 1,14,-1
 64 16 l 1,15,-1
 48 16 l 1,16,-1
 48 8 l 1,17,-1
 56 8 l 1,18,-1
 56 0 l 1,19,-1
 40 0 l 1,20,-1
 40 8 l 1,21,-1
 24 8 l 1,22,-1
 24 0 l 1,23,-1
 8 0 l 1,24,-1
 8 8 l 1,25,-1
 16 8 l 1,26,-1
 16 16 l 1,27,-1
 0 16 l 1,0,-1
EndSplineSet
EndChar

StartChar: plus
Encoding: 43 43 16
Width: 64
Flags: MW
LayerCount: 2
Fore
SplineSet
8 16 m 1,0,-1
 8 24 l 1,1,-1
 24 24 l 1,2,-1
 24 40 l 1,3,-1
 40 40 l 1,4,-1
 40 24 l 1,5,-1
 56 24 l 1,6,-1
 56 16 l 1,7,-1
 40 16 l 1,8,-1
 40 0 l 1,9,-1
 24 0 l 1,10,-1
 24 16 l 1,11,-1
 8 16 l 1,0,-1
EndSplineSet
EndChar

StartChar: comma
Encoding: 44 44 17
Width: 64
Flags: MW
LayerCount: 2
Fore
SplineSet
16 0 m 1,0,-1
 24 0 l 1,1,-1
 24 16 l 1,2,-1
 40 16 l 1,3,-1
 40 0 l 1,4,-1
 32 0 l 1,5,-1
 32 -8 l 1,6,-1
 16 -8 l 1,7,-1
 16 0 l 1,0,-1
EndSplineSet
EndChar

StartChar: hyphen
Encoding: 45 45 18
Width: 64
Flags: MW
LayerCount: 2
Fore
SplineSet
8 16 m 1,0,-1
 8 24 l 1,1,-1
 56 24 l 1,2,-1
 56 16 l 1,3,-1
 8 16 l 1,0,-1
EndSplineSet
EndChar

StartChar: period
Encoding: 46 46 19
Width: 64
Flags: MW
LayerCount: 2
Fore
SplineSet
24 0 m 1,0,-1
 24 16 l 1,1,-1
 40 16 l 1,2,-1
 40 0 l 1,3,-1
 24 0 l 1,0,-1
EndSplineSet
EndChar

StartChar: slash
Encoding: 47 47 20
Width: 64
Flags: MW
LayerCount: 2
Fore
SplineSet
16 0 m 1,0,-1
 16 16 l 1,1,-1
 24 16 l 1,2,-1
 24 32 l 1,3,-1
 32 32 l 1,4,-1
 32 48 l 1,5,-1
 48 48 l 1,6,-1
 48 32 l 1,7,-1
 40 32 l 1,8,-1
 40 16 l 1,9,-1
 32 16 l 1,10,-1
 32 0 l 1,11,-1
 16 0 l 1,0,-1
EndSplineSet
EndChar

StartChar: zero
Encoding: 48 48 21
Width: 64
Flags: MW
LayerCount: 2
Fore
SplineSet
24 8 m 1,0,-1
 40 8 l 1,1,-1
 40 24 l 1,2,-1
 32 24 l 1,3,-1
 32 32 l 1,4,-1
 40 32 l 1,5,-1
 40 40 l 1,6,-1
 24 40 l 1,7,-1
 24 24 l 1,8,-1
 32 24 l 1,9,-1
 32 16 l 1,10,-1
 24 16 l 1,11,-1
 24 8 l 1,0,-1
8 8 m 1,12,-1
 8 40 l 1,13,-1
 16 40 l 1,14,-1
 16 48 l 1,15,-1
 48 48 l 1,16,-1
 48 40 l 1,17,-1
 56 40 l 1,18,-1
 56 8 l 1,19,-1
 48 8 l 1,20,-1
 48 0 l 1,21,-1
 16 0 l 1,22,-1
 16 8 l 1,23,-1
 8 8 l 1,12,-1
EndSplineSet
EndChar

StartChar: one
Encoding: 49 49 22
Width: 64
Flags: MW
LayerCount: 2
Fore
SplineSet
8 0 m 1,0,-1
 8 8 l 1,1,-1
 24 8 l 1,2,-1
 24 32 l 1,3,-1
 16 32 l 1,4,-1
 16 40 l 1,5,-1
 24 40 l 1,6,-1
 24 48 l 1,7,-1
 40 48 l 1,8,-1
 40 8 l 1,9,-1
 56 8 l 1,10,-1
 56 0 l 1,11,-1
 8 0 l 1,0,-1
EndSplineSet
EndChar

StartChar: two
Encoding: 50 50 23
Width: 64
Flags: MW
LayerCount: 2
Fore
SplineSet
8 0 m 1,0,-1
 8 8 l 1,1,-1
 16 8 l 1,2,-1
 16 16 l 1,3,-1
 24 16 l 1,4,-1
 24 24 l 1,5,-1
 32 24 l 1,6,-1
 32 40 l 1,7,-1
 8 40 l 1,8,-1
 8 48 l 1,9,-1
 40 48 l 1,10,-1
 40 40 l 1,11,-1
 48 40 l 1,12,-1
 48 24 l 1,13,-1
 40 24 l 1,14,-1
 40 16 l 1,15,-1
 32 16 l 1,16,-1
 32 8 l 1,17,-1
 56 8 l 1,18,-1
 56 0 l 1,19,-1
 8 0 l 1,0,-1
EndSplineSet
EndChar

StartChar: three
Encoding: 51 51 24
Width: 64
Flags: MW
LayerCount: 2
Fore
SplineSet
8 0 m 1,0,-1
 8 8 l 1,1,-1
 40 8 l 1,2,-1
 40 24 l 1,3,-1
 24 24 l 1,4,-1
 24 32 l 1,5,-1
 32 32 l 1,6,-1
 32 40 l 1,7,-1
 8 40 l 1,8,-1
 8 48 l 1,9,-1
 56 48 l 1,10,-1
 56 40 l 1,11,-1
 48 40 l 1,12,-1
 48 24 l 1,13,-1
 56 24 l 1,14,-1
 56 8 l 1,15,-1
 48 8 l 1,16,-1
 48 0 l 1,17,-1
 8 0 l 1,0,-1
EndSplineSet
EndChar

StartChar: four
Encoding: 52 52 25
Width: 64
Flags: MW
LayerCount: 2
Fore
SplineSet
24 16 m 1,0,-1
 40 16 l 1,1,-1
 40 32 l 1,2,-1
 32 32 l 1,3,-1
 32 24 l 1,4,-1
 24 24 l 1,5,-1
 24 16 l 1,0,-1
8 8 m 1,6,-1
 8 24 l 1,7,-1
 16 24 l 1,8,-1
 16 32 l 1,9,-1
 24 32 l 1,10,-1
 24 40 l 1,11,-1
 32 40 l 1,12,-1
 32 48 l 1,13,-1
 48 48 l 1,14,-1
 48 40 l 1,15,-1
 40 40 l 1,16,-1
 40 32 l 1,17,-1
 56 32 l 1,18,-1
 56 0 l 1,19,-1
 40 0 l 1,20,-1
 40 8 l 1,21,-1
 8 8 l 1,6,-1
EndSplineSet
EndChar

StartChar: five
Encoding: 53 53 26
Width: 64
Flags: MW
LayerCount: 2
Fore
SplineSet
8 0 m 1,0,-1
 8 8 l 1,1,-1
 40 8 l 1,2,-1
 40 24 l 1,3,-1
 8 24 l 1,4,-1
 8 48 l 1,5,-1
 48 48 l 1,6,-1
 48 40 l 1,7,-1
 24 40 l 1,8,-1
 24 32 l 1,9,-1
 48 32 l 1,10,-1
 48 24 l 1,11,-1
 56 24 l 1,12,-1
 56 8 l 1,13,-1
 48 8 l 1,14,-1
 48 0 l 1,15,-1
 8 0 l 1,0,-1
EndSplineSet
EndChar

StartChar: six
Encoding: 54 54 27
Width: 64
Flags: MW
LayerCount: 2
Fore
SplineSet
24 8 m 1,0,-1
 40 8 l 1,1,-1
 40 24 l 1,2,-1
 24 24 l 1,3,-1
 24 8 l 1,0,-1
8 8 m 1,4,-1
 8 40 l 1,5,-1
 16 40 l 1,6,-1
 16 48 l 1,7,-1
 48 48 l 1,8,-1
 48 40 l 1,9,-1
 24 40 l 1,10,-1
 24 32 l 1,11,-1
 48 32 l 1,12,-1
 48 24 l 1,13,-1
 56 24 l 1,14,-1
 56 8 l 1,15,-1
 48 8 l 1,16,-1
 48 0 l 1,17,-1
 16 0 l 1,18,-1
 16 8 l 1,19,-1
 8 8 l 1,4,-1
EndSplineSet
EndChar

StartChar: seven
Encoding: 55 55 28
Width: 64
Flags: MW
LayerCount: 2
Fore
SplineSet
8 40 m 1,0,-1
 8 48 l 1,1,-1
 56 48 l 1,2,-1
 56 32 l 1,3,-1
 48 32 l 1,4,-1
 48 24 l 1,5,-1
 40 24 l 1,6,-1
 40 0 l 1,7,-1
 24 0 l 1,8,-1
 24 24 l 1,9,-1
 32 24 l 1,10,-1
 32 32 l 1,11,-1
 40 32 l 1,12,-1
 40 40 l 1,13,-1
 8 40 l 1,0,-1
EndSplineSet
EndChar

StartChar: eight
Encoding: 56 56 29
Width: 64
Flags: MW
LayerCount: 2
Fore
SplineSet
24 32 m 1,0,-1
 40 32 l 1,1,-1
 40 40 l 1,2,-1
 24 40 l 1,3,-1
 24 32 l 1,0,-1
24 8 m 1,4,-1
 40 8 l 1,5,-1
 40 24 l 1,6,-1
 24 24 l 1,7,-1
 24 8 l 1,4,-1
8 8 m 1,8,-1
 8 24 l 1,9,-1
 16 24 l 1,10,-1
 16 32 l 1,11,-1
 8 32 l 1,12,-1
 8 40 l 1,13,-1
 16 40 l 1,14,-1
 16 48 l 1,15,-1
 48 48 l 1,16,-1
 48 40 l 1,17,-1
 56 40 l 1,18,-1
 56 32 l 1,19,-1
 48 32 l 1,20,-1
 48 24 l 1,21,-1
 56 24 l 1,22,-1
 56 8 l 1,23,-1
 48 8 l 1,24,-1
 48 0 l 1,25,-1
 16 0 l 1,26,-1
 16 8 l 1,27,-1
 8 8 l 1,8,-1
EndSplineSet
EndChar

StartChar: nine
Encoding: 57 57 30
Width: 64
Flags: MW
LayerCount: 2
Fore
SplineSet
24 24 m 1,0,-1
 40 24 l 1,1,-1
 40 40 l 1,2,-1
 24 40 l 1,3,-1
 24 24 l 1,0,-1
8 24 m 1,4,-1
 8 40 l 1,5,-1
 16 40 l 1,6,-1
 16 48 l 1,7,-1
 48 48 l 1,8,-1
 48 40 l 1,9,-1
 56 40 l 1,10,-1
 56 8 l 1,11,-1
 48 8 l 1,12,-1
 48 0 l 1,13,-1
 16 0 l 1,14,-1
 16 8 l 1,15,-1
 40 8 l 1,16,-1
 40 16 l 1,17,-1
 16 16 l 1,18,-1
 16 24 l 1,19,-1
 8 24 l 1,4,-1
EndSplineSet
EndChar

StartChar: less
Encoding: 60 60 33
Width: 64
Flags: MW
LayerCount: 2
Fore
SplineSet
16 16 m 1,0,-1
 16 24 l 1,1,-1
 24 24 l 1,2,-1
 24 32 l 1,3,-1
 32 32 l 1,4,-1
 32 40 l 1,5,-1
 48 40 l 1,6,-1
 48 32 l 1,7,-1
 40 32 l 1,8,-1
 40 24 l 1,9,-1
 32 24 l 1,10,-1
 32 16 l 1,11,-1
 40 16 l 1,12,-1
 40 8 l 1,13,-1
 48 8 l 1,14,-1
 48 0 l 1,15,-1
 32 0 l 1,16,-1
 32 8 l 1,17,-1
 24 8 l 1,18,-1
 24 16 l 1,19,-1
 16 16 l 1,0,-1
EndSplineSet
EndChar

StartChar: greater
Encoding: 62 62 35
Width: 64
Flags: MW
LayerCount: 2
Fore
SplineSet
16 0 m 1,0,-1
 16 8 l 1,1,-1
 24 8 l 1,2,-1
 24 16 l 1,3,-1
 32 16 l 1,4,-1
 32 24 l 1,5,-1
 24 24 l 1,6,-1
 24 32 l 1,7,-1
 16 32 l 1,8,-1
 16 40 l 1,9,-1
 32 40 l 1,10,-1
 32 32 l 1,11,-1
 40 32 l 1,12,-1
 40 24 l 1,13,-1
 48 24 l 1,14,-1
 48 16 l 1,15,-1
 40 16 l 1,16,-1
 40 8 l 1,17,-1
 32 8 l 1,18,-1
 32 0 l 1,19,-1
 16 0 l 1,0,-1
EndSplineSet
EndChar

StartChar: question
Encoding: 63 63 36
Width: 64
Flags: MW
LayerCount: 2
Fore
SplineSet
24 0 m 1,0,-1
 24 8 l 1,1,-1
 40 8 l 1,2,-1
 40 0 l 1,3,-1
 24 0 l 1,0,-1
8 32 m 1,4,-1
 8 40 l 1,5,-1
 16 40 l 1,6,-1
 16 48 l 1,7,-1
 48 48 l 1,8,-1
 48 40 l 1,9,-1
 56 40 l 1,10,-1
 56 24 l 1,11,-1
 48 24 l 1,12,-1
 48 16 l 1,13,-1
 24 16 l 1,14,-1
 24 24 l 1,15,-1
 32 24 l 1,16,-1
 32 32 l 1,17,-1
 40 32 l 1,18,-1
 40 40 l 1,19,-1
 24 40 l 1,20,-1
 24 32 l 1,21,-1
 8 32 l 1,4,-1
EndSplineSet
EndChar

StartChar: at
Encoding: 64 64 37
Width: 64
Flags: MW
LayerCount: 2
Fore
SplineSet
8 8 m 1,0,-1
 8 40 l 1,1,-1
 16 40 l 1,2,-1
 16 48 l 1,3,-1
 48 48 l 1,4,-1
 48 40 l 1,5,-1
 56 40 l 1,6,-1
 56 16 l 1,7,-1
 32 16 l 1,8,-1
 32 32 l 1,9,-1
 40 32 l 1,10,-1
 40 40 l 1,11,-1
 24 40 l 1,12,-1
 24 8 l 1,13,-1
 48 8 l 1,14,-1
 48 0 l 1,15,-1
 16 0 l 1,16,-1
 16 8 l 1,17,-1
 8 8 l 1,0,-1
EndSplineSet
EndChar

StartChar: A
Encoding: 65 65 38
Width: 64
Flags: MW
LayerCount: 2
Fore
SplineSet
24 24 m 1,0,-1
 40 24 l 1,1,-1
 40 40 l 1,2,-1
 24 40 l 1,3,-1
 24 24 l 1,0,-1
8 0 m 1,4,-1
 8 40 l 1,5,-1
 16 40 l 1,6,-1
 16 48 l 1,7,-1
 48 48 l 1,8,-1
 48 40 l 1,9,-1
 56 40 l 1,10,-1
 56 0 l 1,11,-1
 40 0 l 1,12,-1
 40 16 l 1,13,-1
 24 16 l 1,14,-1
 24 0 l 1,15,-1
 8 0 l 1,4,-1
EndSplineSet
EndChar

StartChar: B
Encoding: 66 66 39
Width: 64
Flags: MW
LayerCount: 2
Fore
SplineSet
24 32 m 1,0,-1
 40 32 l 1,1,-1
 40 40 l 1,2,-1
 24 40 l 1,3,-1
 24 32 l 1,0,-1
24 8 m 1,4,-1
 40 8 l 1,5,-1
 40 24 l 1,6,-1
 24 24 l 1,7,-1
 24 8 l 1,4,-1
8 0 m 1,8,-1
 8 48 l 1,9,-1
 48 48 l 1,10,-1
 48 40 l 1,11,-1
 56 40 l 1,12,-1
 56 32 l 1,13,-1
 48 32 l 1,14,-1
 48 24 l 1,15,-1
 56 24 l 1,16,-1
 56 8 l 1,17,-1
 48 8 l 1,18,-1
 48 0 l 1,19,-1
 8 0 l 1,8,-1
EndSplineSet
EndChar

StartChar: C
Encoding: 67 67 40
Width: 64
Flags: MW
LayerCount: 2
Fore
SplineSet
8 8 m 1,0,-1
 8 40 l 1,1,-1
 16 40 l 1,2,-1
 16 48 l 1,3,-1
 56 48 l 1,4,-1
 56 40 l 1,5,-1
 24 40 l 1,6,-1
 24 8 l 1,7,-1
 56 8 l 1,8,-1
 56 0 l 1,9,-1
 16 0 l 1,10,-1
 16 8 l 1,11,-1
 8 8 l 1,0,-1
EndSplineSet
EndChar

StartChar: D
Encoding: 68 68 41
Width: 64
Flags: MW
LayerCount: 2
Fore
SplineSet
24 8 m 1,0,-1
 40 8 l 1,1,-1
 40 40 l 1,2,-1
 24 40 l 1,3,-1
 24 8 l 1,0,-1
8 0 m 1,4,-1
 8 48 l 1,5,-1
 48 48 l 1,6,-1
 48 40 l 1,7,-1
 56 40 l 1,8,-1
 56 8 l 1,9,-1
 48 8 l 1,10,-1
 48 0 l 1,11,-1
 8 0 l 1,4,-1
EndSplineSet
EndChar

StartChar: E
Encoding: 69 69 42
Width: 64
Flags: MW
LayerCount: 2
Fore
SplineSet
8 0 m 1,0,-1
 8 48 l 1,1,-1
 56 48 l 1,2,-1
 56 40 l 1,3,-1
 24 40 l 1,4,-1
 24 32 l 1,5,-1
 48 32 l 1,6,-1
 48 24 l 1,7,-1
 24 24 l 1,8,-1
 24 8 l 1,9,-1
 56 8 l 1,10,-1
 56 0 l 1,11,-1
 8 0 l 1,0,-1
EndSplineSet
EndChar

StartChar: F
Encoding: 70 70 43
Width: 64
Flags: MW
LayerCount: 2
Fore
SplineSet
8 0 m 1,0,-1
 8 48 l 1,1,-1
 56 48 l 1,2,-1
 56 40 l 1,3,-1
 24 40 l 1,4,-1
 24 32 l 1,5,-1
 48 32 l 1,6,-1
 48 24 l 1,7,-1
 24 24 l 1,8,-1
 24 0 l 1,9,-1
 8 0 l 1,0,-1
EndSplineSet
EndChar

StartChar: G
Encoding: 71 71 44
Width: 64
Flags: MW
LayerCount: 2
Fore
SplineSet
8 8 m 1,0,-1
 8 40 l 1,1,-1
 16 40 l 1,2,-1
 16 48 l 1,3,-1
 56 48 l 1,4,-1
 56 40 l 1,5,-1
 24 40 l 1,6,-1
 24 8 l 1,7,-1
 40 8 l 1,8,-1
 40 24 l 1,9,-1
 32 24 l 1,10,-1
 32 32 l 1,11,-1
 56 32 l 1,12,-1
 56 0 l 1,13,-1
 16 0 l 1,14,-1
 16 8 l 1,15,-1
 8 8 l 1,0,-1
EndSplineSet
EndChar

StartChar: H
Encoding: 72 72 45
Width: 64
Flags: MW
LayerCount: 2
Fore
SplineSet
8 0 m 1,0,-1
 8 48 l 1,1,-1
 24 48 l 1,2,-1
 24 32 l 1,3,-1
 40 32 l 1,4,-1
 40 48 l 1,5,-1
 56 48 l 1,6,-1
 56 0 l 1,7,-1
 40 0 l 1,8,-1
 40 24 l 1,9,-1
 24 24 l 1,10,-1
 24 0 l 1,11,-1
 8 0 l 1,0,-1
EndSplineSet
EndChar

StartChar: I
Encoding: 73 73 46
Width: 64
Flags: MW
LayerCount: 2
Fore
SplineSet
16 0 m 1,0,-1
 16 8 l 1,1,-1
 24 8 l 1,2,-1
 24 40 l 1,3,-1
 16 40 l 1,4,-1
 16 48 l 1,5,-1
 48 48 l 1,6,-1
 48 40 l 1,7,-1
 40 40 l 1,8,-1
 40 8 l 1,9,-1
 48 8 l 1,10,-1
 48 0 l 1,11,-1
 16 0 l 1,0,-1
EndSplineSet
EndChar

StartChar: J
Encoding: 74 74 47
Width: 64
Flags: MW
LayerCount: 2
Fore
SplineSet
8 8 m 1,0,-1
 8 24 l 1,1,-1
 24 24 l 1,2,-1
 24 8 l 1,3,-1
 40 8 l 1,4,-1
 40 40 l 1,5,-1
 24 40 l 1,6,-1
 24 48 l 1,7,-1
 56 48 l 1,8,-1
 56 8 l 1,9,-1
 48 8 l 1,10,-1
 48 0 l 1,11,-1
 16 0 l 1,12,-1
 16 8 l 1,13,-1
 8 8 l 1,0,-1
EndSplineSet
EndChar

StartChar: K
Encoding: 75 75 48
Width: 64
Flags: MW
LayerCount: 2
Fore
SplineSet
8 0 m 1,0,-1
 8 48 l 1,1,-1
 24 48 l 1,2,-1
 24 32 l 1,3,-1
 32 32 l 1,4,-1
 32 40 l 1,5,-1
 40 40 l 1,6,-1
 40 48 l 1,7,-1
 56 48 l 1,8,-1
 56 40 l 1,9,-1
 48 40 l 1,10,-1
 48 32 l 1,11,-1
 40 32 l 1,12,-1
 40 16 l 1,13,-1
 48 16 l 1,14,-1
 48 8 l 1,15,-1
 56 8 l 1,16,-1
 56 0 l 1,17,-1
 40 0 l 1,18,-1
 40 8 l 1,19,-1
 32 8 l 1,20,-1
 32 16 l 1,21,-1
 24 16 l 1,22,-1
 24 0 l 1,23,-1
 8 0 l 1,0,-1
EndSplineSet
EndChar

StartChar: L
Encoding: 76 76 49
Width: 64
Flags: MW
LayerCount: 2
Fore
SplineSet
8 0 m 1,0,-1
 8 48 l 1,1,-1
 24 48 l 1,2,-1
 24 8 l 1,3,-1
 56 8 l 1,4,-1
 56 0 l 1,5,-1
 8 0 l 1,0,-1
EndSplineSet
EndChar

StartChar: M
Encoding: 77 77 50
Width: 64
Flags: MW
LayerCount: 2
Fore
SplineSet
8 0 m 1,0,-1
 8 48 l 1,1,-1
 24 48 l 1,2,-1
 24 40 l 1,3,-1
 32 40 l 1,4,-1
 32 32 l 1,5,-1
 40 32 l 1,6,-1
 40 40 l 1,7,-1
 48 40 l 1,8,-1
 48 48 l 1,9,-1
 64 48 l 1,10,-1
 64 0 l 1,11,-1
 48 0 l 1,12,-1
 48 24 l 1,13,-1
 40 24 l 1,14,-1
 40 16 l 1,15,-1
 32 16 l 1,16,-1
 32 24 l 1,17,-1
 24 24 l 1,18,-1
 24 0 l 1,19,-1
 8 0 l 1,0,-1
EndSplineSet
EndChar

StartChar: N
Encoding: 78 78 51
Width: 64
Flags: MW
LayerCount: 2
Fore
SplineSet
8 0 m 1,0,-1
 8 48 l 1,1,-1
 24 48 l 1,2,-1
 24 40 l 1,3,-1
 32 40 l 1,4,-1
 32 32 l 1,5,-1
 40 32 l 1,6,-1
 40 48 l 1,7,-1
 56 48 l 1,8,-1
 56 0 l 1,9,-1
 40 0 l 1,10,-1
 40 16 l 1,11,-1
 32 16 l 1,12,-1
 32 24 l 1,13,-1
 24 24 l 1,14,-1
 24 0 l 1,15,-1
 8 0 l 1,0,-1
EndSplineSet
EndChar

StartChar: O
Encoding: 79 79 52
Width: 64
Flags: MW
LayerCount: 2
Fore
SplineSet
24 8 m 1,0,-1
 40 8 l 1,1,-1
 40 40 l 1,2,-1
 24 40 l 1,3,-1
 24 8 l 1,0,-1
8 8 m 1,4,-1
 8 40 l 1,5,-1
 16 40 l 1,6,-1
 16 48 l 1,7,-1
 48 48 l 1,8,-1
 48 40 l 1,9,-1
 56 40 l 1,10,-1
 56 8 l 1,11,-1
 48 8 l 1,12,-1
 48 0 l 1,13,-1
 16 0 l 1,14,-1
 16 8 l 1,15,-1
 8 8 l 1,4,-1
EndSplineSet
EndChar

StartChar: P
Encoding: 80 80 53
Width: 64
Flags: MW
LayerCount: 2
Fore
SplineSet
24 24 m 1,0,-1
 40 24 l 1,1,-1
 40 40 l 1,2,-1
 24 40 l 1,3,-1
 24 24 l 1,0,-1
8 0 m 1,4,-1
 8 48 l 1,5,-1
 48 48 l 1,6,-1
 48 40 l 1,7,-1
 56 40 l 1,8,-1
 56 24 l 1,9,-1
 48 24 l 1,10,-1
 48 16 l 1,11,-1
 24 16 l 1,12,-1
 24 0 l 1,13,-1
 8 0 l 1,4,-1
EndSplineSet
EndChar

StartChar: Q
Encoding: 81 81 54
Width: 64
Flags: MW
LayerCount: 2
Fore
SplineSet
24 8 m 1,0,-1
 40 8 l 1,1,-1
 40 40 l 1,2,-1
 24 40 l 1,3,-1
 24 8 l 1,0,-1
8 8 m 1,4,-1
 8 40 l 1,5,-1
 16 40 l 1,6,-1
 16 48 l 1,7,-1
 48 48 l 1,8,-1
 48 40 l 1,9,-1
 56 40 l 1,10,-1
 56 8 l 1,11,-1
 48 8 l 1,12,-1
 48 0 l 1,13,-1
 56 0 l 1,14,-1
 56 -8 l 1,15,-1
 32 -8 l 1,16,-1
 32 0 l 1,17,-1
 16 0 l 1,18,-1
 16 8 l 1,19,-1
 8 8 l 1,4,-1
EndSplineSet
EndChar

StartChar: R
Encoding: 82 82 55
Width: 64
Flags: MW
LayerCount: 2
Fore
SplineSet
24 24 m 1,0,-1
 40 24 l 1,1,-1
 40 40 l 1,2,-1
 24 40 l 1,3,-1
 24 24 l 1,0,-1
8 0 m 1,4,-1
 8 48 l 1,5,-1
 48 48 l 1,6,-1
 48 40 l 1,7,-1
 56 40 l 1,8,-1
 56 24 l 1,9,-1
 48 24 l 1,10,-1
 48 16 l 1,11,-1
 56 16 l 1,12,-1
 56 0 l 1,13,-1
 40 0 l 1,14,-1
 40 16 l 1,15,-1
 24 16 l 1,16,-1
 24 0 l 1,17,-1
 8 0 l 1,4,-1
EndSplineSet
EndChar

StartChar: S
Encoding: 83 83 56
Width: 64
Flags: MW
LayerCount: 2
Fore
SplineSet
8 0 m 1,0,-1
 8 8 l 1,1,-1
 40 8 l 1,2,-1
 40 16 l 1,3,-1
 24 16 l 1,4,-1
 24 24 l 1,5,-1
 8 24 l 1,6,-1
 8 40 l 1,7,-1
 16 40 l 1,8,-1
 16 48 l 1,9,-1
 48 48 l 1,10,-1
 48 40 l 1,11,-1
 24 40 l 1,12,-1
 24 32 l 1,13,-1
 40 32 l 1,14,-1
 40 24 l 1,15,-1
 56 24 l 1,16,-1
 56 8 l 1,17,-1
 48 8 l 1,18,-1
 48 0 l 1,19,-1
 8 0 l 1,0,-1
EndSplineSet
EndChar

StartChar: T
Encoding: 84 84 57
Width: 64
Flags: MW
LayerCount: 2
Fore
SplineSet
8 40 m 1,0,-1
 8 48 l 1,1,-1
 56 48 l 1,2,-1
 56 40 l 1,3,-1
 40 40 l 1,4,-1
 40 0 l 1,5,-1
 24 0 l 1,6,-1
 24 40 l 1,7,-1
 8 40 l 1,0,-1
EndSplineSet
EndChar

StartChar: U
Encoding: 85 85 58
Width: 64
Flags: MW
LayerCount: 2
Fore
SplineSet
8 8 m 1,0,-1
 8 48 l 1,1,-1
 24 48 l 1,2,-1
 24 8 l 1,3,-1
 40 8 l 1,4,-1
 40 48 l 1,5,-1
 56 48 l 1,6,-1
 56 8 l 1,7,-1
 48 8 l 1,8,-1
 48 0 l 1,9,-1
 16 0 l 1,10,-1
 16 8 l 1,11,-1
 8 8 l 1,0,-1
EndSplineSet
EndChar

StartChar: V
Encoding: 86 86 59
Width: 64
Flags: MW
LayerCount: 2
Fore
SplineSet
8 16 m 1,0,-1
 8 48 l 1,1,-1
 24 48 l 1,2,-1
 24 16 l 1,3,-1
 40 16 l 1,4,-1
 40 48 l 1,5,-1
 56 48 l 1,6,-1
 56 16 l 1,7,-1
 48 16 l 1,8,-1
 48 8 l 1,9,-1
 40 8 l 1,10,-1
 40 0 l 1,11,-1
 24 0 l 1,12,-1
 24 8 l 1,13,-1
 16 8 l 1,14,-1
 16 16 l 1,15,-1
 8 16 l 1,0,-1
EndSplineSet
EndChar

StartChar: W
Encoding: 87 87 60
Width: 64
Flags: MW
LayerCount: 2
Fore
SplineSet
8 8 m 1,0,-1
 8 48 l 1,1,-1
 24 48 l 1,2,-1
 24 16 l 1,3,-1
 32 16 l 1,4,-1
 32 32 l 1,5,-1
 40 32 l 1,6,-1
 40 16 l 1,7,-1
 48 16 l 1,8,-1
 48 48 l 1,9,-1
 64 48 l 1,10,-1
 64 8 l 1,11,-1
 56 8 l 1,12,-1
 56 0 l 1,13,-1
 40 0 l 1,14,-1
 40 8 l 1,15,-1
 32 8 l 1,16,-1
 32 0 l 1,17,-1
 16 0 l 1,18,-1
 16 8 l 1,19,-1
 8 8 l 1,0,-1
EndSplineSet
EndChar

StartChar: X
Encoding: 88 88 61
Width: 64
Flags: MW
LayerCount: 2
Fore
SplineSet
8 0 m 1,0,-1
 8 16 l 1,1,-1
 16 16 l 1,2,-1
 16 32 l 1,3,-1
 8 32 l 1,4,-1
 8 48 l 1,5,-1
 24 48 l 1,6,-1
 24 32 l 1,7,-1
 40 32 l 1,8,-1
 40 48 l 1,9,-1
 56 48 l 1,10,-1
 56 32 l 1,11,-1
 48 32 l 1,12,-1
 48 16 l 1,13,-1
 56 16 l 1,14,-1
 56 0 l 1,15,-1
 40 0 l 1,16,-1
 40 16 l 1,17,-1
 24 16 l 1,18,-1
 24 0 l 1,19,-1
 8 0 l 1,0,-1
EndSplineSet
EndChar

StartChar: Y
Encoding: 89 89 62
Width: 64
Flags: MW
LayerCount: 2
Fore
SplineSet
8 32 m 1,0,-1
 8 48 l 1,1,-1
 24 48 l 1,2,-1
 24 32 l 1,3,-1
 40 32 l 1,4,-1
 40 48 l 1,5,-1
 56 48 l 1,6,-1
 56 32 l 1,7,-1
 48 32 l 1,8,-1
 48 24 l 1,9,-1
 40 24 l 1,10,-1
 40 0 l 1,11,-1
 24 0 l 1,12,-1
 24 24 l 1,13,-1
 16 24 l 1,14,-1
 16 32 l 1,15,-1
 8 32 l 1,0,-1
EndSplineSet
EndChar

StartChar: Z
Encoding: 90 90 63
Width: 64
Flags: MW
LayerCount: 2
Fore
SplineSet
8 0 m 1,0,-1
 8 16 l 1,1,-1
 16 16 l 1,2,-1
 16 24 l 1,3,-1
 24 24 l 1,4,-1
 24 32 l 1,5,-1
 32 32 l 1,6,-1
 32 40 l 1,7,-1
 8 40 l 1,8,-1
 8 48 l 1,9,-1
 56 48 l 1,10,-1
 56 40 l 1,11,-1
 48 40 l 1,12,-1
 48 32 l 1,13,-1
 40 32 l 1,14,-1
 40 24 l 1,15,-1
 32 24 l 1,16,-1
 32 16 l 1,17,-1
 24 16 l 1,18,-1
 24 8 l 1,19,-1
 56 8 l 1,20,-1
 56 0 l 1,21,-1
 8 0 l 1,0,-1
EndSplineSet
EndChar

StartChar: bracketleft
Encoding: 91 91 64
Width: 64
Flags: MW
LayerCount: 2
Fore
SplineSet
16 0 m 1,0,-1
 16 48 l 1,1,-1
 48 48 l 1,2,-1
 48 40 l 1,3,-1
 32 40 l 1,4,-1
 32 8 l 1,5,-1
 48 8 l 1,6,-1
 48 0 l 1,7,-1
 16 0 l 1,0,-1
EndSplineSet
EndChar

StartChar: backslash
Encoding: 92 92 65
Width: 64
VWidth: 128
Flags: MW
LayerCount: 2
Fore
SplineSet
16 32 m 1,0,-1
 16 48 l 1,1,-1
 32 48 l 1,2,-1
 32 32 l 1,3,-1
 40 32 l 1,4,-1
 40 16 l 1,5,-1
 48 16 l 1,6,-1
 48 0 l 1,7,-1
 32 0 l 1,8,-1
 32 16 l 1,9,-1
 24 16 l 1,10,-1
 24 32 l 1,11,-1
 16 32 l 1,0,-1
EndSplineSet
EndChar

StartChar: bracketright
Encoding: 93 93 66
Width: 64
Flags: MW
LayerCount: 2
Fore
SplineSet
16 0 m 1,0,-1
 16 8 l 1,1,-1
 32 8 l 1,2,-1
 32 40 l 1,3,-1
 16 40 l 1,4,-1
 16 48 l 1,5,-1
 48 48 l 1,6,-1
 48 0 l 1,7,-1
 16 0 l 1,0,-1
EndSplineSet
EndChar

StartChar: asciicircum
Encoding: 94 94 67
Width: 64
Flags: MW
LayerCount: 2
Fore
SplineSet
8 32 m 1,0,-1
 8 40 l 1,1,-1
 16 40 l 1,2,-1
 16 48 l 1,3,-1
 24 48 l 1,4,-1
 24 56 l 1,5,-1
 48 56 l 1,6,-1
 48 48 l 1,7,-1
 56 48 l 1,8,-1
 56 40 l 1,9,-1
 64 40 l 1,10,-1
 64 32 l 1,11,-1
 48 32 l 1,12,-1
 48 40 l 1,13,-1
 40 40 l 1,14,-1
 40 48 l 1,15,-1
 32 48 l 1,16,-1
 32 40 l 1,17,-1
 24 40 l 1,18,-1
 24 32 l 1,19,-1
 8 32 l 1,0,-1
EndSplineSet
EndChar

StartChar: grave
Encoding: 96 96 69
Width: 64
Flags: MW
LayerCount: 2
Fore
SplineSet
16 48 m 1,0,-1
 16 56 l 1,1,-1
 32 56 l 1,2,-1
 32 48 l 1,3,-1
 40 48 l 1,4,-1
 40 40 l 1,5,-1
 48 40 l 1,6,-1
 48 32 l 1,7,-1
 32 32 l 1,8,-1
 32 40 l 1,9,-1
 24 40 l 1,10,-1
 24 48 l 1,11,-1
 16 48 l 1,0,-1
EndSplineSet
EndChar

StartChar: a
Encoding: 97 97 70
Width: 64
VWidth: 128
Flags: MW
LayerCount: 2
Fore
SplineSet
24 8 m 1,0,-1
 40 8 l 1,1,-1
 40 16 l 1,2,-1
 24 16 l 1,3,-1
 24 8 l 1,0,-1
8 8 m 1,4,-1
 8 16 l 1,5,-1
 16 16 l 1,6,-1
 16 24 l 1,7,-1
 40 24 l 1,8,-1
 40 32 l 1,9,-1
 16 32 l 1,10,-1
 16 40 l 1,11,-1
 48 40 l 1,12,-1
 48 32 l 1,13,-1
 56 32 l 1,14,-1
 56 0 l 1,15,-1
 16 0 l 1,16,-1
 16 8 l 1,17,-1
 8 8 l 1,4,-1
EndSplineSet
EndChar

StartChar: b
Encoding: 98 98 71
Width: 64
VWidth: 128
Flags: MW
LayerCount: 2
Fore
SplineSet
24 8 m 1,0,-1
 40 8 l 1,1,-1
 40 32 l 1,2,-1
 32 32 l 1,3,-1
 32 24 l 1,4,-1
 24 24 l 1,5,-1
 24 8 l 1,0,-1
8 0 m 1,6,-1
 8 48 l 1,7,-1
 24 48 l 1,8,-1
 24 32 l 1,9,-1
 32 32 l 1,10,-1
 32 40 l 1,11,-1
 48 40 l 1,12,-1
 48 32 l 1,13,-1
 56 32 l 1,14,-1
 56 8 l 1,15,-1
 48 8 l 1,16,-1
 48 0 l 1,17,-1
 8 0 l 1,6,-1
EndSplineSet
EndChar

StartChar: c
Encoding: 99 99 72
Width: 64
VWidth: 128
Flags: MW
LayerCount: 2
Fore
SplineSet
8 8 m 1,0,-1
 8 32 l 1,1,-1
 16 32 l 1,2,-1
 16 40 l 1,3,-1
 56 40 l 1,4,-1
 56 32 l 1,5,-1
 24 32 l 1,6,-1
 24 8 l 1,7,-1
 56 8 l 1,8,-1
 56 0 l 1,9,-1
 16 0 l 1,10,-1
 16 8 l 1,11,-1
 8 8 l 1,0,-1
EndSplineSet
EndChar

StartChar: d
Encoding: 100 100 73
Width: 64
VWidth: 128
Flags: MW
LayerCount: 2
Fore
SplineSet
24 8 m 1,0,-1
 40 8 l 1,1,-1
 40 24 l 1,2,-1
 32 24 l 1,3,-1
 32 32 l 1,4,-1
 24 32 l 1,5,-1
 24 8 l 1,0,-1
8 8 m 1,6,-1
 8 32 l 1,7,-1
 16 32 l 1,8,-1
 16 40 l 1,9,-1
 32 40 l 1,10,-1
 32 32 l 1,11,-1
 40 32 l 1,12,-1
 40 48 l 1,13,-1
 56 48 l 1,14,-1
 56 0 l 1,15,-1
 16 0 l 1,16,-1
 16 8 l 1,17,-1
 8 8 l 1,6,-1
EndSplineSet
EndChar

StartChar: e
Encoding: 101 101 74
Width: 64
VWidth: 128
Flags: MW
LayerCount: 2
Fore
SplineSet
24 24 m 1,0,-1
 40 24 l 1,1,-1
 40 32 l 1,2,-1
 24 32 l 1,3,-1
 24 24 l 1,0,-1
8 8 m 1,4,-1
 8 32 l 1,5,-1
 16 32 l 1,6,-1
 16 40 l 1,7,-1
 48 40 l 1,8,-1
 48 32 l 1,9,-1
 56 32 l 1,10,-1
 56 16 l 1,11,-1
 24 16 l 1,12,-1
 24 8 l 1,13,-1
 48 8 l 1,14,-1
 48 0 l 1,15,-1
 16 0 l 1,16,-1
 16 8 l 1,17,-1
 8 8 l 1,4,-1
EndSplineSet
EndChar

StartChar: f
Encoding: 102 102 75
Width: 64
VWidth: 128
Flags: MW
LayerCount: 2
Fore
SplineSet
8 24 m 1,0,-1
 8 32 l 1,1,-1
 16 32 l 1,2,-1
 16 40 l 1,3,-1
 24 40 l 1,4,-1
 24 48 l 1,5,-1
 56 48 l 1,6,-1
 56 40 l 1,7,-1
 32 40 l 1,8,-1
 32 32 l 1,9,-1
 48 32 l 1,10,-1
 48 24 l 1,11,-1
 32 24 l 1,12,-1
 32 0 l 1,13,-1
 16 0 l 1,14,-1
 16 24 l 1,15,-1
 8 24 l 1,0,-1
EndSplineSet
EndChar

StartChar: g
Encoding: 103 103 76
Width: 64
VWidth: 128
Flags: MW
LayerCount: 2
Fore
SplineSet
24 16 m 1,0,-1
 40 16 l 1,1,-1
 40 32 l 1,2,-1
 24 32 l 1,3,-1
 24 16 l 1,0,-1
8 16 m 1,4,-1
 8 32 l 1,5,-1
 16 32 l 1,6,-1
 16 40 l 1,7,-1
 56 40 l 1,8,-1
 56 0 l 1,9,-1
 48 0 l 1,10,-1
 48 -8 l 1,11,-1
 16 -8 l 1,12,-1
 16 0 l 1,13,-1
 40 0 l 1,14,-1
 40 8 l 1,15,-1
 16 8 l 1,16,-1
 16 16 l 1,17,-1
 8 16 l 1,4,-1
EndSplineSet
EndChar

StartChar: h
Encoding: 104 104 77
Width: 64
VWidth: 128
Flags: MW
LayerCount: 2
Fore
SplineSet
8 0 m 1,0,-1
 8 48 l 1,1,-1
 24 48 l 1,2,-1
 24 32 l 1,3,-1
 32 32 l 1,4,-1
 32 40 l 1,5,-1
 48 40 l 1,6,-1
 48 32 l 1,7,-1
 56 32 l 1,8,-1
 56 0 l 1,9,-1
 40 0 l 1,10,-1
 40 32 l 1,11,-1
 32 32 l 1,12,-1
 32 24 l 1,13,-1
 24 24 l 1,14,-1
 24 0 l 1,15,-1
 8 0 l 1,0,-1
EndSplineSet
EndChar

StartChar: i
Encoding: 105 105 78
Width: 64
VWidth: 128
Flags: MW
LayerCount: 2
Fore
SplineSet
24 48 m 1,0,-1
 24 56 l 1,1,-1
 40 56 l 1,2,-1
 40 48 l 1,3,-1
 24 48 l 1,0,-1
8 0 m 1,4,-1
 8 8 l 1,5,-1
 24 8 l 1,6,-1
 24 32 l 1,7,-1
 8 32 l 1,8,-1
 8 40 l 1,9,-1
 40 40 l 1,10,-1
 40 8 l 1,11,-1
 56 8 l 1,12,-1
 56 0 l 1,13,-1
 8 0 l 1,4,-1
EndSplineSet
EndChar

StartChar: j
Encoding: 106 106 79
Width: 64
VWidth: 128
Flags: MW
LayerCount: 2
Fore
SplineSet
32 48 m 1,0,-1
 32 56 l 1,1,-1
 48 56 l 1,2,-1
 48 48 l 1,3,-1
 32 48 l 1,0,-1
8 0 m 1,4,-1
 32 0 l 1,5,-1
 32 32 l 1,6,-1
 16 32 l 1,7,-1
 16 40 l 1,8,-1
 48 40 l 1,9,-1
 48 0 l 1,10,-1
 40 0 l 1,11,-1
 40 -8 l 1,12,-1
 8 -8 l 1,13,-1
 8 0 l 1,4,-1
EndSplineSet
EndChar

StartChar: k
Encoding: 107 107 80
Width: 64
VWidth: 128
Flags: MW
LayerCount: 2
Fore
SplineSet
8 0 m 1,0,-1
 8 48 l 1,1,-1
 24 48 l 1,2,-1
 24 24 l 1,3,-1
 32 24 l 1,4,-1
 32 32 l 1,5,-1
 40 32 l 1,6,-1
 40 40 l 1,7,-1
 56 40 l 1,8,-1
 56 32 l 1,9,-1
 48 32 l 1,10,-1
 48 24 l 1,11,-1
 40 24 l 1,12,-1
 40 16 l 1,13,-1
 48 16 l 1,14,-1
 48 8 l 1,15,-1
 56 8 l 1,16,-1
 56 0 l 1,17,-1
 40 0 l 1,18,-1
 40 8 l 1,19,-1
 32 8 l 1,20,-1
 32 16 l 1,21,-1
 24 16 l 1,22,-1
 24 0 l 1,23,-1
 8 0 l 1,0,-1
EndSplineSet
EndChar

StartChar: l
Encoding: 108 108 81
Width: 64
VWidth: 128
Flags: MW
LayerCount: 2
Fore
SplineSet
16 0 m 1,0,-1
 16 8 l 1,1,-1
 24 8 l 1,2,-1
 24 40 l 1,3,-1
 16 40 l 1,4,-1
 16 48 l 1,5,-1
 40 48 l 1,6,-1
 40 8 l 1,7,-1
 48 8 l 1,8,-1
 48 0 l 1,9,-1
 16 0 l 1,0,-1
EndSplineSet
EndChar

StartChar: m
Encoding: 109 109 82
Width: 64
VWidth: 128
Flags: MW
LayerCount: 2
Fore
SplineSet
8 0 m 1,0,-1
 8 40 l 1,1,-1
 56 40 l 1,2,-1
 56 32 l 1,3,-1
 64 32 l 1,4,-1
 64 0 l 1,5,-1
 48 0 l 1,6,-1
 48 32 l 1,7,-1
 40 32 l 1,8,-1
 40 0 l 1,9,-1
 32 0 l 1,10,-1
 32 32 l 1,11,-1
 24 32 l 1,12,-1
 24 0 l 1,13,-1
 8 0 l 1,0,-1
EndSplineSet
EndChar

StartChar: n
Encoding: 110 110 83
Width: 64
VWidth: 128
Flags: MW
LayerCount: 2
Fore
SplineSet
8 0 m 1,0,-1
 8 40 l 1,1,-1
 48 40 l 1,2,-1
 48 32 l 1,3,-1
 56 32 l 1,4,-1
 56 0 l 1,5,-1
 40 0 l 1,6,-1
 40 32 l 1,7,-1
 24 32 l 1,8,-1
 24 0 l 1,9,-1
 8 0 l 1,0,-1
EndSplineSet
EndChar

StartChar: o
Encoding: 111 111 84
Width: 64
VWidth: 128
Flags: MW
LayerCount: 2
Fore
SplineSet
24 8 m 1,0,-1
 40 8 l 1,1,-1
 40 32 l 1,2,-1
 24 32 l 1,3,-1
 24 8 l 1,0,-1
8 8 m 1,4,-1
 8 32 l 1,5,-1
 16 32 l 1,6,-1
 16 40 l 1,7,-1
 48 40 l 1,8,-1
 48 32 l 1,9,-1
 56 32 l 1,10,-1
 56 8 l 1,11,-1
 48 8 l 1,12,-1
 48 0 l 1,13,-1
 16 0 l 1,14,-1
 16 8 l 1,15,-1
 8 8 l 1,4,-1
EndSplineSet
EndChar

StartChar: p
Encoding: 112 112 85
Width: 64
VWidth: 128
Flags: MW
LayerCount: 2
Fore
SplineSet
24 8 m 1,0,-1
 40 8 l 1,1,-1
 40 32 l 1,2,-1
 24 32 l 1,3,-1
 24 8 l 1,0,-1
8 -8 m 1,4,-1
 8 40 l 1,5,-1
 48 40 l 1,6,-1
 48 32 l 1,7,-1
 56 32 l 1,8,-1
 56 8 l 1,9,-1
 48 8 l 1,10,-1
 48 0 l 1,11,-1
 24 0 l 1,12,-1
 24 -8 l 1,13,-1
 8 -8 l 1,4,-1
EndSplineSet
EndChar

StartChar: q
Encoding: 113 113 86
Width: 64
VWidth: 128
Flags: MW
LayerCount: 2
Fore
SplineSet
8 8 m 1,0,-1
 8 32 l 1,1,-1
 16 32 l 1,2,-1
 16 40 l 1,3,-1
 56 40 l 1,4,-1
 56 -8 l 1,5,-1
 40 -8 l 1,6,-1
 40 8 l 1,7,-1
 32 8 l 1,8,-1
 32 0 l 1,9,-1
 16 0 l 1,10,-1
 16 8 l 1,11,-1
 8 8 l 1,0,-1
32 8 m 1,12,-1
 32 16 l 1,13,-1
 40 16 l 1,14,-1
 40 32 l 1,15,-1
 24 32 l 1,16,-1
 24 8 l 1,17,-1
 32 8 l 1,12,-1
EndSplineSet
EndChar

StartChar: r
Encoding: 114 114 87
Width: 64
VWidth: 128
Flags: MW
LayerCount: 2
Fore
SplineSet
8 0 m 1,0,-1
 8 8 l 1,1,-1
 16 8 l 1,2,-1
 16 32 l 1,3,-1
 8 32 l 1,4,-1
 8 40 l 1,5,-1
 32 40 l 1,6,-1
 32 32 l 1,7,-1
 40 32 l 1,8,-1
 40 40 l 1,9,-1
 56 40 l 1,10,-1
 56 32 l 1,11,-1
 40 32 l 1,12,-1
 40 24 l 1,13,-1
 32 24 l 1,14,-1
 32 8 l 1,15,-1
 40 8 l 1,16,-1
 40 0 l 1,17,-1
 8 0 l 1,0,-1
EndSplineSet
EndChar

StartChar: s
Encoding: 115 115 88
Width: 64
VWidth: 128
Flags: MW
LayerCount: 2
Fore
SplineSet
8 0 m 1,0,-1
 8 8 l 1,1,-1
 40 8 l 1,2,-1
 40 16 l 1,3,-1
 8 16 l 1,4,-1
 8 32 l 1,5,-1
 16 32 l 1,6,-1
 16 40 l 1,7,-1
 48 40 l 1,8,-1
 48 32 l 1,9,-1
 24 32 l 1,10,-1
 24 24 l 1,11,-1
 56 24 l 1,12,-1
 56 8 l 1,13,-1
 48 8 l 1,14,-1
 48 0 l 1,15,-1
 8 0 l 1,0,-1
EndSplineSet
EndChar

StartChar: t
Encoding: 116 116 89
Width: 64
VWidth: 128
Flags: MW
LayerCount: 2
Fore
SplineSet
8 32 m 1,0,-1
 8 40 l 1,1,-1
 16 40 l 1,2,-1
 16 48 l 1,3,-1
 32 48 l 1,4,-1
 32 40 l 1,5,-1
 56 40 l 1,6,-1
 56 32 l 1,7,-1
 32 32 l 1,8,-1
 32 8 l 1,9,-1
 56 8 l 1,10,-1
 56 0 l 1,11,-1
 24 0 l 1,12,-1
 24 8 l 1,13,-1
 16 8 l 1,14,-1
 16 32 l 1,15,-1
 8 32 l 1,0,-1
EndSplineSet
EndChar

StartChar: u
Encoding: 117 117 90
Width: 64
VWidth: 128
Flags: MW
LayerCount: 2
Fore
SplineSet
8 8 m 1,0,-1
 8 40 l 1,1,-1
 24 40 l 1,2,-1
 24 8 l 1,3,-1
 40 8 l 1,4,-1
 40 40 l 1,5,-1
 56 40 l 1,6,-1
 56 0 l 1,7,-1
 16 0 l 1,8,-1
 16 8 l 1,9,-1
 8 8 l 1,0,-1
EndSplineSet
EndChar

StartChar: v
Encoding: 118 118 91
Width: 64
VWidth: 128
Flags: MW
LayerCount: 2
Fore
SplineSet
8 16 m 1,0,-1
 8 40 l 1,1,-1
 24 40 l 1,2,-1
 24 16 l 1,3,-1
 40 16 l 1,4,-1
 40 40 l 1,5,-1
 56 40 l 1,6,-1
 56 16 l 1,7,-1
 48 16 l 1,8,-1
 48 8 l 1,9,-1
 40 8 l 1,10,-1
 40 0 l 1,11,-1
 24 0 l 1,12,-1
 24 8 l 1,13,-1
 16 8 l 1,14,-1
 16 16 l 1,15,-1
 8 16 l 1,0,-1
EndSplineSet
EndChar

StartChar: w
Encoding: 119 119 92
Width: 64
VWidth: 128
Flags: MW
LayerCount: 2
Fore
SplineSet
8 8 m 1,0,-1
 8 40 l 1,1,-1
 24 40 l 1,2,-1
 24 16 l 1,3,-1
 32 16 l 1,4,-1
 32 32 l 1,5,-1
 40 32 l 1,6,-1
 40 16 l 1,7,-1
 48 16 l 1,8,-1
 48 40 l 1,9,-1
 64 40 l 1,10,-1
 64 8 l 1,11,-1
 56 8 l 1,12,-1
 56 0 l 1,13,-1
 40 0 l 1,14,-1
 40 8 l 1,15,-1
 32 8 l 1,16,-1
 32 0 l 1,17,-1
 16 0 l 1,18,-1
 16 8 l 1,19,-1
 8 8 l 1,0,-1
EndSplineSet
EndChar

StartChar: x
Encoding: 120 120 93
Width: 64
VWidth: 128
Flags: MW
LayerCount: 2
Fore
SplineSet
8 0 m 1,0,-1
 8 8 l 1,1,-1
 16 8 l 1,2,-1
 16 16 l 1,3,-1
 24 16 l 1,4,-1
 24 24 l 1,5,-1
 16 24 l 1,6,-1
 16 32 l 1,7,-1
 8 32 l 1,8,-1
 8 40 l 1,9,-1
 24 40 l 1,10,-1
 24 32 l 1,11,-1
 40 32 l 1,12,-1
 40 40 l 1,13,-1
 56 40 l 1,14,-1
 56 32 l 1,15,-1
 48 32 l 1,16,-1
 48 24 l 1,17,-1
 40 24 l 1,18,-1
 40 16 l 1,19,-1
 48 16 l 1,20,-1
 48 8 l 1,21,-1
 56 8 l 1,22,-1
 56 0 l 1,23,-1
 40 0 l 1,24,-1
 40 8 l 1,25,-1
 24 8 l 1,26,-1
 24 0 l 1,27,-1
 8 0 l 1,0,-1
EndSplineSet
EndChar

StartChar: y
Encoding: 121 121 94
Width: 64
VWidth: 128
Flags: MW
LayerCount: 2
Fore
SplineSet
8 16 m 1,0,-1
 8 40 l 1,1,-1
 24 40 l 1,2,-1
 24 16 l 1,3,-1
 40 16 l 1,4,-1
 40 40 l 1,5,-1
 56 40 l 1,6,-1
 56 0 l 1,7,-1
 48 0 l 1,8,-1
 48 -8 l 1,9,-1
 16 -8 l 1,10,-1
 16 0 l 1,11,-1
 40 0 l 1,12,-1
 40 8 l 1,13,-1
 16 8 l 1,14,-1
 16 16 l 1,15,-1
 8 16 l 1,0,-1
EndSplineSet
EndChar

StartChar: z
Encoding: 122 122 95
Width: 64
VWidth: 128
Flags: MW
LayerCount: 2
Fore
SplineSet
8 0 m 1,0,-1
 8 8 l 1,1,-1
 16 8 l 1,2,-1
 16 16 l 1,3,-1
 24 16 l 1,4,-1
 24 24 l 1,5,-1
 32 24 l 1,6,-1
 32 32 l 1,7,-1
 8 32 l 1,8,-1
 8 40 l 1,9,-1
 56 40 l 1,10,-1
 56 32 l 1,11,-1
 48 32 l 1,12,-1
 48 24 l 1,13,-1
 40 24 l 1,14,-1
 40 16 l 1,15,-1
 32 16 l 1,16,-1
 32 8 l 1,17,-1
 56 8 l 1,18,-1
 56 0 l 1,19,-1
 8 0 l 1,0,-1
EndSplineSet
EndChar

StartChar: braceleft
Encoding: 123 123 96
Width: 64
Flags: MW
LayerCount: 2
Fore
SplineSet
16 16 m 1,0,-1
 16 24 l 1,1,-1
 24 24 l 1,2,-1
 24 40 l 1,3,-1
 32 40 l 1,4,-1
 32 48 l 1,5,-1
 48 48 l 1,6,-1
 48 40 l 1,7,-1
 40 40 l 1,8,-1
 40 24 l 1,9,-1
 32 24 l 1,10,-1
 32 16 l 1,11,-1
 40 16 l 1,12,-1
 40 0 l 1,13,-1
 48 0 l 1,14,-1
 48 -8 l 1,15,-1
 32 -8 l 1,16,-1
 32 0 l 1,17,-1
 24 0 l 1,18,-1
 24 16 l 1,19,-1
 16 16 l 1,0,-1
EndSplineSet
EndChar

StartChar: bar
Encoding: 124 124 97
Width: 64
Flags: MW
LayerCount: 2
Fore
SplineSet
24 -8 m 1,0,-1
 24 48 l 1,1,-1
 40 48 l 1,2,-1
 40 -8 l 1,3,-1
 24 -8 l 1,0,-1
EndSplineSet
EndChar

StartChar: braceright
Encoding: 125 125 98
Width: 64
Flags: MW
LayerCount: 2
Fore
SplineSet
16 0 m 1,0,-1
 24 0 l 1,1,-1
 24 16 l 1,2,-1
 32 16 l 1,3,-1
 32 24 l 1,4,-1
 24 24 l 1,5,-1
 24 40 l 1,6,-1
 16 40 l 1,7,-1
 16 48 l 1,8,-1
 32 48 l 1,9,-1
 32 40 l 1,10,-1
 40 40 l 1,11,-1
 40 24 l 1,12,-1
 48 24 l 1,13,-1
 48 16 l 1,14,-1
 40 16 l 1,15,-1
 40 0 l 1,16,-1
 32 0 l 1,17,-1
 32 -8 l 1,18,-1
 16 -8 l 1,19,-1
 16 0 l 1,0,-1
EndSplineSet
EndChar

StartChar: asciitilde
Encoding: 126 126 99
Width: 64
Flags: MW
LayerCount: 2
Fore
SplineSet
8 8 m 1,0,-1
 8 24 l 1,1,-1
 16 24 l 1,2,-1
 16 32 l 1,3,-1
 32 32 l 1,4,-1
 32 24 l 1,5,-1
 48 24 l 1,6,-1
 48 32 l 1,7,-1
 56 32 l 1,8,-1
 56 16 l 1,9,-1
 48 16 l 1,10,-1
 48 8 l 1,11,-1
 32 8 l 1,12,-1
 32 16 l 1,13,-1
 16 16 l 1,14,-1
 16 8 l 1,15,-1
 8 8 l 1,0,-1
EndSplineSet
EndChar

StartChar: sterling
Encoding: 163 163 101
Width: 64
Flags: MW
LayerCount: 2
Fore
SplineSet
8 0 m 1,0,-1
 8 8 l 1,1,-1
 16 8 l 1,2,-1
 16 16 l 1,3,-1
 8 16 l 1,4,-1
 8 24 l 1,5,-1
 16 24 l 1,6,-1
 16 40 l 1,7,-1
 24 40 l 1,8,-1
 24 48 l 1,9,-1
 48 48 l 1,10,-1
 48 40 l 1,11,-1
 56 40 l 1,12,-1
 56 32 l 1,13,-1
 48 32 l 1,14,-1
 48 40 l 1,15,-1
 32 40 l 1,16,-1
 32 24 l 1,17,-1
 40 24 l 1,18,-1
 40 16 l 1,19,-1
 32 16 l 1,20,-1
 32 8 l 1,21,-1
 56 8 l 1,22,-1
 56 0 l 1,23,-1
 8 0 l 1,0,-1
EndSplineSet
EndChar

StartChar: acute
Encoding: 180 180 102
Width: 64
Flags: MW
LayerCount: 2
Fore
SplineSet
0 16 m 1,0,-1
 0 32 l 1,1,-1
 24 32 l 1,2,-1
 24 56 l 1,3,-1
 40 56 l 1,4,-1
 40 -8 l 1,5,-1
 24 -8 l 1,6,-1
 24 16 l 1,7,-1
 0 16 l 1,0,-1
EndSplineSet
EndChar

StartChar: Agrave
Encoding: 192 192 103
Width: 64
Flags: MW
LayerCount: 2
Fore
SplineSet
24 16 m 1,0,-1
 24 56 l 1,1,-1
 40 56 l 1,2,-1
 40 32 l 1,3,-1
 64 32 l 1,4,-1
 64 16 l 1,5,-1
 24 16 l 1,0,-1
EndSplineSet
EndChar

StartChar: Adieresis
Encoding: 196 196 104
Width: 64
Flags: MW
LayerCount: 2
Fore
SplineSet
0 16 m 1,0,-1
 0 32 l 1,1,-1
 64 32 l 1,2,-1
 64 16 l 1,3,-1
 0 16 l 1,0,-1
EndSplineSet
EndChar

StartChar: Udieresis
Encoding: 220 220 105
Width: 64
Flags: MW
LayerCount: 2
Fore
SplineSet
0 -8 m 1,0,-1
 0 24 l 1,1,-1
 64 24 l 1,2,-1
 64 -8 l 1,3,-1
 0 -8 l 1,0,-1
EndSplineSet
EndChar

StartChar: atilde
Encoding: 227 227 107
Width: 64
VWidth: 128
Flags: MW
LayerCount: 2
Fore
SplineSet
8 32 m 1,0,-1
 8 40 l 1,1,-1
 64 40 l 1,2,-1
 64 32 l 1,3,-1
 56 32 l 1,4,-1
 56 0 l 1,5,-1
 40 0 l 1,6,-1
 40 32 l 1,7,-1
 32 32 l 1,8,-1
 32 0 l 1,9,-1
 16 0 l 1,10,-1
 16 32 l 1,11,-1
 8 32 l 1,0,-1
EndSplineSet
EndChar

StartChar: ugrave
Encoding: 249 249 108
Width: 64
VWidth: 128
Flags: MW
LayerCount: 2
Fore
SplineSet
8 8 m 1,0,-1
 8 40 l 1,1,-1
 16 40 l 1,2,-1
 16 48 l 1,3,-1
 48 48 l 1,4,-1
 48 40 l 1,5,-1
 56 40 l 1,6,-1
 56 8 l 1,7,-1
 48 8 l 1,8,-1
 48 0 l 1,9,-1
 16 0 l 1,10,-1
 16 8 l 1,11,-1
 8 8 l 1,0,-1
EndSplineSet
EndChar

StartChar: Yacute
Encoding: 221 221 114
Width: 64
Flags: MW
LayerCount: 2
Fore
SplineSet
0 -8 m 1,0,-1
 0 56 l 1,1,-1
 32 56 l 1,2,-1
 32 -8 l 1,3,-1
 0 -8 l 1,0,-1
EndSplineSet
EndChar

StartChar: Aring
Encoding: 197 197 116
Width: 64
Flags: MW
LayerCount: 2
Fore
SplineSet
0 16 m 1,0,-1
 0 32 l 1,1,-1
 24 32 l 1,2,-1
 24 56 l 1,3,-1
 40 56 l 1,4,-1
 40 32 l 1,5,-1
 64 32 l 1,6,-1
 64 16 l 1,7,-1
 40 16 l 1,8,-1
 40 -8 l 1,9,-1
 24 -8 l 1,10,-1
 24 16 l 1,11,-1
 0 16 l 1,0,-1
EndSplineSet
EndChar

StartChar: Aacute
Encoding: 193 193 117
Width: 64
Flags: MW
LayerCount: 2
Fore
SplineSet
0 16 m 1,0,-1
 0 32 l 1,1,-1
 24 32 l 1,2,-1
 24 56 l 1,3,-1
 40 56 l 1,4,-1
 40 32 l 1,5,-1
 64 32 l 1,6,-1
 64 16 l 1,7,-1
 0 16 l 1,0,-1
EndSplineSet
EndChar

StartChar: Acircumflex
Encoding: 194 194 118
Width: 64
Flags: MW
LayerCount: 2
Fore
SplineSet
0 16 m 1,0,-1
 0 32 l 1,1,-1
 64 32 l 1,2,-1
 64 16 l 1,3,-1
 40 16 l 1,4,-1
 40 -8 l 1,5,-1
 24 -8 l 1,6,-1
 24 16 l 1,7,-1
 0 16 l 1,0,-1
EndSplineSet
EndChar

StartChar: questiondown
Encoding: 191 191 119
Width: 64
Flags: MW
LayerCount: 2
Fore
SplineSet
0 16 m 1,0,-1
 0 32 l 1,1,-1
 40 32 l 1,2,-1
 40 -8 l 1,3,-1
 24 -8 l 1,4,-1
 24 16 l 1,5,-1
 0 16 l 1,0,-1
EndSplineSet
EndChar

StartChar: Ucircumflex
Encoding: 219 219 120
Width: 64
VWidth: 128
Flags: MW
LayerCount: 2
Fore
SplineSet
0 -8 m 1,0,-1
 0 56 l 1,1,-1
 64 56 l 1,2,-1
 64 -8 l 1,3,-1
 0 -8 l 1,0,-1
EndSplineSet
EndChar

StartChar: uni00B2
Encoding: 178 178 121
Width: 64
Flags: MW
LayerCount: 2
Fore
SplineSet
0 40 m 1
 0 56 l 1
 16 56 l 1
 16 40 l 1
 32 40 l 1
 32 56 l 1
 48 56 l 1
 48 40 l 1
 64 40 l 1
 64 24 l 1
 48 24 l 1
 48 8 l 1
 32 8 l 1
 32 -8 l 1
 16 -8 l 1
 16 8 l 1
 32 8 l 1
 32 24 l 1
 48 24 l 1
 48 40 l 1
 32 40 l 1
 32 24 l 1
 16 24 l 1
 16 40 l 1
 0 40 l 1
EndSplineSet
Refer: 19 46 S 1 0 0 1 24 -8 2
Refer: 19 46 S 1 0 0 1 -24 8 2
EndChar

StartChar: uni00B3
Encoding: 179 179 122
Width: 64
Flags: MW
LayerCount: 2
Fore
SplineSet
24 -8 m 1,0,-1
 24 56 l 1,1,-1
 40 56 l 1,2,-1
 40 -8 l 1,3,-1
 24 -8 l 1,0,-1
EndSplineSet
EndChar

StartChar: Atilde
Encoding: 195 195 123
Width: 64
Flags: MW
LayerCount: 2
Fore
SplineSet
24 -8 m 1,0,-1
 24 56 l 1,1,-1
 40 56 l 1,2,-1
 40 32 l 1,3,-1
 64 32 l 1,4,-1
 64 16 l 1,5,-1
 40 16 l 1,6,-1
 40 -8 l 1,7,-1
 24 -8 l 1,0,-1
EndSplineSet
EndChar

StartChar: Ugrave
Encoding: 217 217 124
Width: 64
Flags: MW
LayerCount: 2
Fore
SplineSet
0 16 m 1,0,-1
 0 32 l 1,1,-1
 24 32 l 1,2,-1
 24 56 l 1,3,-1
 40 56 l 1,4,-1
 40 16 l 1,5,-1
 0 16 l 1,0,-1
EndSplineSet
EndChar

StartChar: Uacute
Encoding: 218 218 125
Width: 64
Flags: MW
LayerCount: 2
Fore
SplineSet
24 -8 m 1,0,-1
 24 32 l 1,1,-1
 64 32 l 1,2,-1
 64 16 l 1,3,-1
 40 16 l 1,4,-1
 40 -8 l 1,5,-1
 24 -8 l 1,0,-1
EndSplineSet
EndChar

StartChar: uni0018
Encoding: 24 24 126
Width: 64
Flags: MW
LayerCount: 2
Fore
SplineSet
8 24 m 1,0,-1
 8 32 l 1,1,-1
 16 32 l 1,2,-1
 16 40 l 1,3,-1
 24 40 l 1,4,-1
 24 48 l 1,5,-1
 40 48 l 1,6,-1
 40 40 l 1,7,-1
 48 40 l 1,8,-1
 48 32 l 1,9,-1
 56 32 l 1,10,-1
 56 24 l 1,11,-1
 40 24 l 1,12,-1
 40 0 l 1,13,-1
 24 0 l 1,14,-1
 24 24 l 1,15,-1
 8 24 l 1,0,-1
EndSplineSet
EndChar

StartChar: uni001B
Encoding: 27 27 127
Width: 64
VWidth: 128
Flags: MW
LayerCount: 2
Fore
SplineSet
8 16 m 1,0,-1
 8 32 l 1,1,-1
 16 32 l 1,2,-1
 16 40 l 1,3,-1
 24 40 l 1,4,-1
 24 48 l 1,5,-1
 32 48 l 1,6,-1
 32 32 l 1,7,-1
 56 32 l 1,8,-1
 56 16 l 1,9,-1
 32 16 l 1,10,-1
 32 0 l 1,11,-1
 24 0 l 1,12,-1
 24 8 l 1,13,-1
 16 8 l 1,14,-1
 16 16 l 1,15,-1
 8 16 l 1,0,-1
EndSplineSet
EndChar

StartChar: uni2218
Encoding: 8728 8728 135
Width: 64
VWidth: 128
Flags: M
LayerCount: 2
Fore
SplineSet
24 16 m 1,0,-1
 40 16 l 1,1,-1
 40 32 l 1,2,-1
 24 32 l 1,3,-1
 24 16 l 1,0,-1
8 8 m 1,4,-1
 8 40 l 1,5,-1
 16 40 l 1,6,-1
 16 48 l 1,7,-1
 48 48 l 1,8,-1
 48 40 l 1,9,-1
 56 40 l 1,10,-1
 56 8 l 1,11,-1
 48 8 l 1,12,-1
 48 0 l 1,13,-1
 16 0 l 1,14,-1
 16 8 l 1,15,-1
 8 8 l 1,4,-1
EndSplineSet
EndChar

StartChar: uni256D
Encoding: 9581 9581 160
Width: 64
Flags: MW
LayerCount: 2
Fore
SplineSet
24 -8 m 1,0,-1
 24 16 l 1,1,-1
 32 16 l 1,2,-1
 32 24 l 1,3,-1
 40 24 l 1,4,-1
 40 32 l 1,5,-1
 64 32 l 1,6,-1
 64 16 l 1,7,-1
 48 16 l 1,8,-1
 48 8 l 1,9,-1
 40 8 l 1,10,-1
 40 -8 l 1,11,-1
 24 -8 l 1,0,-1
EndSplineSet
EndChar

StartChar: uni256E
Encoding: 9582 9582 161
Width: 64
Flags: MW
LayerCount: 2
Fore
SplineSet
0 16 m 1,0,-1
 0 32 l 1,1,-1
 24 32 l 1,2,-1
 24 24 l 1,3,-1
 32 24 l 1,4,-1
 32 16 l 1,5,-1
 40 16 l 1,6,-1
 40 -8 l 1,7,-1
 24 -8 l 1,8,-1
 24 8 l 1,9,-1
 16 8 l 1,10,-1
 16 16 l 1,11,-1
 0 16 l 1,0,-1
EndSplineSet
EndChar

StartChar: uni256F
Encoding: 9583 9583 162
Width: 64
Flags: MW
LayerCount: 2
Fore
SplineSet
0 16 m 1,0,-1
 0 32 l 1,1,-1
 16 32 l 1,2,-1
 16 40 l 1,3,-1
 24 40 l 1,4,-1
 24 56 l 1,5,-1
 40 56 l 1,6,-1
 40 32 l 1,7,-1
 32 32 l 1,8,-1
 32 24 l 1,9,-1
 24 24 l 1,10,-1
 24 16 l 1,11,-1
 0 16 l 1,0,-1
EndSplineSet
EndChar

StartChar: uni2570
Encoding: 9584 9584 163
Width: 64
Flags: MW
LayerCount: 2
Fore
SplineSet
24 32 m 1,0,-1
 24 56 l 1,1,-1
 40 56 l 1,2,-1
 40 40 l 1,3,-1
 48 40 l 1,4,-1
 48 32 l 1,5,-1
 64 32 l 1,6,-1
 64 16 l 1,7,-1
 40 16 l 1,8,-1
 40 24 l 1,9,-1
 32 24 l 1,10,-1
 32 32 l 1,11,-1
 24 32 l 1,0,-1
EndSplineSet
EndChar

StartChar: uni2571
Encoding: 9585 9585 164
Width: 64
Flags: MW
LayerCount: 2
Fore
SplineSet
0 -8 m 1,0,-1
 0 8 l 1,1,-1
 8 8 l 1,2,-1
 8 16 l 1,3,-1
 16 16 l 1,4,-1
 16 24 l 1,5,-1
 24 24 l 1,6,-1
 24 32 l 1,7,-1
 32 32 l 1,8,-1
 32 40 l 1,9,-1
 40 40 l 1,10,-1
 40 48 l 1,11,-1
 48 48 l 1,12,-1
 48 56 l 1,13,-1
 64 56 l 1,14,-1
 64 40 l 1,15,-1
 56 40 l 1,16,-1
 56 32 l 1,17,-1
 48 32 l 1,18,-1
 48 24 l 1,19,-1
 40 24 l 1,20,-1
 40 16 l 1,21,-1
 32 16 l 1,22,-1
 32 8 l 1,23,-1
 24 8 l 1,24,-1
 24 0 l 1,25,-1
 16 0 l 1,26,-1
 16 -8 l 1,27,-1
 0 -8 l 1,0,-1
EndSplineSet
EndChar

StartChar: uni2572
Encoding: 9586 9586 165
Width: 64
Flags: MW
LayerCount: 2
Fore
SplineSet
0 40 m 1,0,-1
 0 56 l 1,1,-1
 16 56 l 1,2,-1
 16 48 l 1,3,-1
 24 48 l 1,4,-1
 24 40 l 1,5,-1
 32 40 l 1,6,-1
 32 32 l 1,7,-1
 40 32 l 1,8,-1
 40 24 l 1,9,-1
 48 24 l 1,10,-1
 48 16 l 1,11,-1
 56 16 l 1,12,-1
 56 8 l 1,13,-1
 64 8 l 1,14,-1
 64 -8 l 1,15,-1
 48 -8 l 1,16,-1
 48 0 l 1,17,-1
 40 0 l 1,18,-1
 40 8 l 1,19,-1
 32 8 l 1,20,-1
 32 16 l 1,21,-1
 24 16 l 1,22,-1
 24 24 l 1,23,-1
 16 24 l 1,24,-1
 16 32 l 1,25,-1
 8 32 l 1,26,-1
 8 40 l 1,27,-1
 0 40 l 1,0,-1
EndSplineSet
EndChar

StartChar: uni2573
Encoding: 9587 9587 166
Width: 64
Flags: MW
LayerCount: 2
Fore
SplineSet
0 -8 m 1,0,-1
 0 8 l 1,1,-1
 8 8 l 1,2,-1
 8 16 l 1,3,-1
 16 16 l 1,4,-1
 16 32 l 1,5,-1
 8 32 l 1,6,-1
 8 40 l 1,7,-1
 0 40 l 1,8,-1
 0 56 l 1,9,-1
 16 56 l 1,10,-1
 16 48 l 1,11,-1
 24 48 l 1,12,-1
 24 40 l 1,13,-1
 40 40 l 1,14,-1
 40 48 l 1,15,-1
 48 48 l 1,16,-1
 48 56 l 1,17,-1
 64 56 l 1,18,-1
 64 40 l 1,19,-1
 56 40 l 1,20,-1
 56 32 l 1,21,-1
 48 32 l 1,22,-1
 48 16 l 1,23,-1
 56 16 l 1,24,-1
 56 8 l 1,25,-1
 64 8 l 1,26,-1
 64 -8 l 1,27,-1
 48 -8 l 1,28,-1
 48 0 l 1,29,-1
 40 0 l 1,30,-1
 40 8 l 1,31,-1
 24 8 l 1,32,-1
 24 0 l 1,33,-1
 16 0 l 1,34,-1
 16 -8 l 1,35,-1
 0 -8 l 1,0,-1
EndSplineSet
EndChar

StartChar: uni2581
Encoding: 9601 9601 168
Width: 64
Flags: MW
LayerCount: 2
Fore
SplineSet
0 0 m 1,0,-1
 64 0 l 1,1,-1
 64 -8 l 1,2,-1
 0 -8 l 1,3,-1
 0 0 l 1,0,-1
EndSplineSet
EndChar

StartChar: uni2583
Encoding: 9603 9603 170
Width: 64
Flags: MW
LayerCount: 2
Fore
SplineSet
0 -8 m 1,0,-1
 0 16 l 1,1,-1
 64 16 l 1,2,-1
 64 -8 l 1,3,-1
 0 -8 l 1,0,-1
EndSplineSet
EndChar

StartChar: uni2585
Encoding: 9605 9605 172
Width: 64
Flags: MW
LayerCount: 2
Fore
SplineSet
0 -8 m 1,0,-1
 0 32 l 1,1,-1
 64 32 l 1,2,-1
 64 -8 l 1,3,-1
 0 -8 l 1,0,-1
EndSplineSet
EndChar

StartChar: uni2586
Encoding: 9606 9606 173
Width: 64
Flags: MW
LayerCount: 2
Fore
SplineSet
0 -8 m 1,0,-1
 0 40 l 1,1,-1
 64 40 l 1,2,-1
 64 -8 l 1,3,-1
 0 -8 l 1,0,-1
EndSplineSet
EndChar

StartChar: uni2587
Encoding: 9607 9607 174
Width: 64
Flags: MW
LayerCount: 2
Fore
SplineSet
0 -8 m 1,0,-1
 0 48 l 1,1,-1
 64 48 l 1,2,-1
 64 -8 l 1,3,-1
 0 -8 l 1,0,-1
EndSplineSet
EndChar

StartChar: uni258A
Encoding: 9610 9610 176
Width: 64
Flags: MW
LayerCount: 2
Fore
SplineSet
0 -8 m 1,0,-1
 0 56 l 1,1,-1
 48 56 l 1,2,-1
 48 -8 l 1,3,-1
 0 -8 l 1,0,-1
EndSplineSet
EndChar

StartChar: uni258B
Encoding: 9611 9611 177
Width: 64
Flags: MW
LayerCount: 2
Fore
SplineSet
0 -8 m 1,0,-1
 0 56 l 1,1,-1
 40 56 l 1,2,-1
 40 -8 l 1,3,-1
 0 -8 l 1,0,-1
EndSplineSet
EndChar

StartChar: uni258D
Encoding: 9613 9613 179
Width: 64
Flags: MW
LayerCount: 2
Fore
SplineSet
0 -8 m 1,0,-1
 0 56 l 1,1,-1
 24 56 l 1,2,-1
 24 -8 l 1,3,-1
 0 -8 l 1,0,-1
EndSplineSet
EndChar

StartChar: uni2596
Encoding: 9622 9622 184
Width: 64
Flags: MW
LayerCount: 2
Fore
SplineSet
0 -8 m 1,0,-1
 0 24 l 1,1,-1
 32 24 l 1,2,-1
 32 -8 l 1,3,-1
 0 -8 l 1,0,-1
EndSplineSet
EndChar

StartChar: uni2599
Encoding: 9625 9625 187
Width: 64
Flags: MW
LayerCount: 2
Fore
SplineSet
0 -8 m 1,0,-1
 0 56 l 1,1,-1
 32 56 l 1,2,-1
 32 24 l 1,3,-1
 64 24 l 1,4,-1
 64 -8 l 1,5,-1
 0 -8 l 1,0,-1
EndSplineSet
EndChar

StartChar: uni259B
Encoding: 9627 9627 189
Width: 64
Flags: MW
LayerCount: 2
Fore
SplineSet
0 -8 m 1,0,-1
 0 56 l 1,1,-1
 64 56 l 1,2,-1
 64 24 l 1,3,-1
 32 24 l 1,4,-1
 32 -8 l 1,5,-1
 0 -8 l 1,0,-1
EndSplineSet
EndChar

StartChar: uni259C
Encoding: 9628 9628 190
Width: 64
Flags: MW
LayerCount: 2
Fore
SplineSet
0 24 m 1,0,-1
 0 56 l 1,1,-1
 64 56 l 1,2,-1
 64 -8 l 1,3,-1
 32 -8 l 1,4,-1
 32 24 l 1,5,-1
 0 24 l 1,0,-1
EndSplineSet
EndChar

StartChar: uni259F
Encoding: 9631 9631 193
Width: 64
Flags: MW
LayerCount: 2
Fore
SplineSet
0 -8 m 1,0,-1
 0 24 l 1,1,-1
 32 24 l 1,2,-1
 32 56 l 1,3,-1
 64 56 l 1,4,-1
 64 -8 l 1,5,-1
 0 -8 l 1,0,-1
EndSplineSet
EndChar

StartChar: invbullet
Encoding: 9688 9688 197
Width: 64
Flags: MW
LayerCount: 2
Fore
SplineSet
8 8 m 1,0,-1
 16 8 l 1,1,-1
 16 0 l 1,2,-1
 48 0 l 1,3,-1
 48 8 l 1,4,-1
 56 8 l 1,5,-1
 56 40 l 1,6,-1
 48 40 l 1,7,-1
 48 48 l 1,8,-1
 16 48 l 1,9,-1
 16 40 l 1,10,-1
 8 40 l 1,11,-1
 8 8 l 1,0,-1
0 -8 m 1,12,-1
 0 56 l 1,13,-1
 64 56 l 1,14,-1
 64 -8 l 1,15,-1
 0 -8 l 1,12,-1
EndSplineSet
EndChar

StartChar: uni25E2
Encoding: 9698 9698 199
Width: 64
Flags: MW
LayerCount: 2
Fore
SplineSet
8 0 m 1,0,-1
 16 0 l 1,1,-1
 16 8 l 1,2,-1
 24 8 l 1,3,-1
 24 16 l 1,4,-1
 32 16 l 1,5,-1
 32 24 l 1,6,-1
 40 24 l 1,7,-1
 40 32 l 1,8,-1
 48 32 l 1,9,-1
 48 40 l 1,10,-1
 56 40 l 1,11,-1
 56 48 l 1,12,-1
 64 48 l 1,13,-1
 64 -8 l 1,14,-1
 8 -8 l 1,15,-1
 8 0 l 1,0,-1
EndSplineSet
EndChar

StartChar: uni25E3
Encoding: 9699 9699 200
Width: 64
Flags: MW
LayerCount: 2
Fore
SplineSet
0 -8 m 1,0,-1
 0 48 l 1,1,-1
 8 48 l 1,2,-1
 8 40 l 1,3,-1
 16 40 l 1,4,-1
 16 32 l 1,5,-1
 24 32 l 1,6,-1
 24 24 l 1,7,-1
 32 24 l 1,8,-1
 32 16 l 1,9,-1
 40 16 l 1,10,-1
 40 8 l 1,11,-1
 48 8 l 1,12,-1
 48 0 l 1,13,-1
 56 0 l 1,14,-1
 56 -8 l 1,15,-1
 0 -8 l 1,0,-1
EndSplineSet
EndChar

StartChar: uni25E4
Encoding: 9700 9700 201
Width: 64
Flags: MW
LayerCount: 2
Fore
SplineSet
0 -8 m 1,0,-1
 0 56 l 1,1,-1
 64 56 l 1,2,-1
 64 48 l 1,3,-1
 56 48 l 1,4,-1
 56 40 l 1,5,-1
 48 40 l 1,6,-1
 48 32 l 1,7,-1
 40 32 l 1,8,-1
 40 24 l 1,9,-1
 32 24 l 1,10,-1
 32 16 l 1,11,-1
 24 16 l 1,12,-1
 24 8 l 1,13,-1
 16 8 l 1,14,-1
 16 0 l 1,15,-1
 8 0 l 1,16,-1
 8 -8 l 1,17,-1
 0 -8 l 1,0,-1
EndSplineSet
EndChar

StartChar: uni25E5
Encoding: 9701 9701 202
Width: 64
Flags: MW
LayerCount: 2
Fore
SplineSet
0 48 m 1,0,-1
 0 56 l 1,1,-1
 64 56 l 1,2,-1
 64 -8 l 1,3,-1
 56 -8 l 1,4,-1
 56 0 l 1,5,-1
 48 0 l 1,6,-1
 48 8 l 1,7,-1
 40 8 l 1,8,-1
 40 16 l 1,9,-1
 32 16 l 1,10,-1
 32 24 l 1,11,-1
 24 24 l 1,12,-1
 24 32 l 1,13,-1
 16 32 l 1,14,-1
 16 40 l 1,15,-1
 8 40 l 1,16,-1
 8 48 l 1,17,-1
 0 48 l 1,0,-1
EndSplineSet
EndChar

StartChar: uni2713
Encoding: 10003 10003 209
Width: 64
Flags: MW
LayerCount: 2
Fore
SplineSet
0 16 m 1,0,-1
 0 32 l 1,1,-1
 16 32 l 1,2,-1
 16 24 l 1,3,-1
 32 24 l 1,4,-1
 32 32 l 1,5,-1
 40 32 l 1,6,-1
 40 40 l 1,7,-1
 48 40 l 1,8,-1
 48 48 l 1,9,-1
 64 48 l 1,10,-1
 64 32 l 1,11,-1
 56 32 l 1,12,-1
 56 24 l 1,13,-1
 48 24 l 1,14,-1
 48 16 l 1,15,-1
 40 16 l 1,16,-1
 40 8 l 1,17,-1
 32 8 l 1,18,-1
 32 0 l 1,19,-1
 16 0 l 1,20,-1
 16 8 l 1,21,-1
 8 8 l 1,22,-1
 8 16 l 1,23,-1
 0 16 l 1,0,-1
EndSplineSet
EndChar

StartChar: uniE06C
Encoding: 57452 57452 292
Width: 64
Flags: MW
LayerCount: 2
Fore
SplineSet
0 -8 m 1,0,-1
 0 56 l 1,1,-1
 16 56 l 1,2,-1
 16 8 l 1,3,-1
 64 8 l 1,4,-1
 64 -8 l 1,5,-1
 0 -8 l 1,0,-1
EndSplineSet
EndChar

StartChar: uniE06F
Encoding: 57455 57455 295
Width: 64
Flags: MW
LayerCount: 2
Fore
SplineSet
0 -8 m 1,0,-1
 0 56 l 1,1,-1
 64 56 l 1,2,-1
 64 40 l 1,3,-1
 16 40 l 1,4,-1
 16 -8 l 1,5,-1
 0 -8 l 1,0,-1
EndSplineSet
EndChar

StartChar: uniE070
Encoding: 57456 57456 296
Width: 64
Flags: MW
LayerCount: 2
Fore
SplineSet
0 40 m 1,0,-1
 0 56 l 1,1,-1
 64 56 l 1,2,-1
 64 -8 l 1,3,-1
 48 -8 l 1,4,-1
 48 40 l 1,5,-1
 0 40 l 1,0,-1
EndSplineSet
EndChar

StartChar: uniE07C
Encoding: 57468 57468 308
Width: 64
Flags: MW
LayerCount: 2
Fore
SplineSet
0 8 m 1
 0 24 l 1
 16 24 l 1
 16 40 l 1
 32 40 l 1
 32 24 l 1
 16 24 l 1
 16 8 l 1
 32 8 l 1
 32 -8 l 1
 16 -8 l 1
 16 8 l 1
 0 8 l 1
EndSplineSet
Refer: 19 46 S 1 0 0 1 -24 40 2
EndChar

StartChar: uniE0A8
Encoding: 57512 57512 320
Width: 64
Flags: MW
LayerCount: 2
Fore
SplineSet
48 8 m 1
 32 8 l 1
 32 -8 l 1
 16 -8 l 1
 16 8 l 1
 32 8 l 1
 32 24 l 1
 48 24 l 1
 48 8 l 1
EndSplineSet
Refer: 19 46 S 1 0 0 1 24 -8 2
Refer: 19 46 S 1 0 0 1 -24 8 2
EndChar

StartChar: uniE0BA
Encoding: 57530 57530 338
Width: 64
Flags: MW
LayerCount: 2
Fore
SplineSet
0 -8 m 1,0,-1
 0 8 l 1,1,-1
 48 8 l 1,2,-1
 48 56 l 1,3,-1
 64 56 l 1,4,-1
 64 -8 l 1,5,-1
 0 -8 l 1,0,-1
EndSplineSet
EndChar

StartChar: uniE17C
Encoding: 57724 57724 500
Width: 64
Flags: MW
LayerCount: 2
Fore
SplineSet
0 40 m 1
 0 56 l 1
 16 56 l 1
 16 40 l 1
 32 40 l 1
 32 24 l 1
 16 24 l 1
 16 40 l 1
 0 40 l 1
EndSplineSet
Refer: 19 46 S 1 0 0 1 -8 -8 2
Refer: 19 46 S 1 0 0 1 -24 8 2
EndChar

StartChar: uniE17E
Encoding: 57726 57726 502
Width: 64
Flags: MW
LayerCount: 2
Fore
SplineSet
0 -8 m 1
 0 8 l 1
 16 8 l 1
 16 24 l 1
 32 24 l 1
 32 8 l 1
 48 8 l 1
 48 -8 l 1
 32 -8 l 1
 32 8 l 1
 16 8 l 1
 16 -8 l 1
 0 -8 l 1
EndSplineSet
Refer: 19 46 S 1 0 0 1 24 40 2
Refer: 19 46 S 1 0 0 1 -8 40 2
Refer: 19 46 S 1 0 0 1 8 24 2
Refer: 19 46 S 1 0 0 1 24 8 2
Refer: 19 46 S 1 0 0 1 -24 24 2
EndChar

StartChar: uniE17F
Encoding: 57727 57727 503
Width: 64
Flags: MW
LayerCount: 2
Fore
SplineSet
48 48 m 1,0,-1
 48 56 l 1,1,-1
 64 56 l 1,2,-1
 64 40 l 1,3,-1
 56 40 l 1,4,-1
 56 48 l 1,5,-1
 48 48 l 1,0,-1
16 48 m 1,6,-1
 16 56 l 1,7,-1
 32 56 l 1,8,-1
 32 48 l 1,9,-1
 40 48 l 1,10,-1
 40 40 l 1,11,-1
 48 40 l 1,12,-1
 48 32 l 1,13,-1
 56 32 l 1,14,-1
 56 24 l 1,15,-1
 64 24 l 1,16,-1
 64 8 l 1,17,-1
 56 8 l 1,18,-1
 56 16 l 1,19,-1
 48 16 l 1,20,-1
 48 24 l 1,21,-1
 40 24 l 1,22,-1
 40 32 l 1,23,-1
 32 32 l 1,24,-1
 32 40 l 1,25,-1
 24 40 l 1,26,-1
 24 48 l 1,27,-1
 16 48 l 1,6,-1
0 32 m 1,28,-1
 0 48 l 1,29,-1
 8 48 l 1,30,-1
 8 40 l 1,31,-1
 16 40 l 1,32,-1
 16 32 l 1,33,-1
 24 32 l 1,34,-1
 24 24 l 1,35,-1
 32 24 l 1,36,-1
 32 16 l 1,37,-1
 40 16 l 1,38,-1
 40 8 l 1,39,-1
 48 8 l 1,40,-1
 48 0 l 1,41,-1
 56 0 l 1,42,-1
 56 -8 l 1,43,-1
 40 -8 l 1,44,-1
 40 0 l 1,45,-1
 32 0 l 1,46,-1
 32 8 l 1,47,-1
 24 8 l 1,48,-1
 24 16 l 1,49,-1
 16 16 l 1,50,-1
 16 24 l 1,51,-1
 8 24 l 1,52,-1
 8 32 l 1,53,-1
 0 32 l 1,28,-1
0 0 m 1,54,-1
 0 16 l 1,55,-1
 8 16 l 1,56,-1
 8 8 l 1,57,-1
 16 8 l 1,58,-1
 16 0 l 1,59,-1
 24 0 l 1,60,-1
 24 -8 l 1,61,-1
 8 -8 l 1,62,-1
 8 0 l 1,63,-1
 0 0 l 1,54,-1
EndSplineSet
EndChar

StartChar: uniE1A9
Encoding: 57769 57769 513
Width: 64
Flags: MW
LayerCount: 2
Fore
SplineSet
40 0 m 1,0,-1
 48 0 l 1,1,-1
 48 8 l 1,2,-1
 56 8 l 1,3,-1
 56 16 l 1,4,-1
 64 16 l 1,5,-1
 64 0 l 1,6,-1
 56 0 l 1,7,-1
 56 -8 l 1,8,-1
 40 -8 l 1,9,-1
 40 0 l 1,0,-1
8 0 m 1,10,-1
 16 0 l 1,11,-1
 16 8 l 1,12,-1
 24 8 l 1,13,-1
 24 16 l 1,14,-1
 32 16 l 1,15,-1
 32 24 l 1,16,-1
 40 24 l 1,17,-1
 40 32 l 1,18,-1
 48 32 l 1,19,-1
 48 40 l 1,20,-1
 56 40 l 1,21,-1
 56 48 l 1,22,-1
 64 48 l 1,23,-1
 64 32 l 1,24,-1
 56 32 l 1,25,-1
 56 24 l 1,26,-1
 48 24 l 1,27,-1
 48 16 l 1,28,-1
 40 16 l 1,29,-1
 40 8 l 1,30,-1
 32 8 l 1,31,-1
 32 0 l 1,32,-1
 24 0 l 1,33,-1
 24 -8 l 1,34,-1
 8 -8 l 1,35,-1
 8 0 l 1,10,-1
0 40 m 1,36,-1
 0 56 l 1,37,-1
 16 56 l 1,38,-1
 16 48 l 1,39,-1
 8 48 l 1,40,-1
 8 40 l 1,41,-1
 0 40 l 1,36,-1
0 8 m 1,42,-1
 0 24 l 1,43,-1
 8 24 l 1,44,-1
 8 32 l 1,45,-1
 16 32 l 1,46,-1
 16 40 l 1,47,-1
 24 40 l 1,48,-1
 24 48 l 1,49,-1
 32 48 l 1,50,-1
 32 56 l 1,51,-1
 48 56 l 1,52,-1
 48 48 l 1,53,-1
 40 48 l 1,54,-1
 40 40 l 1,55,-1
 32 40 l 1,56,-1
 32 32 l 1,57,-1
 24 32 l 1,58,-1
 24 24 l 1,59,-1
 16 24 l 1,60,-1
 16 16 l 1,61,-1
 8 16 l 1,62,-1
 8 8 l 1,63,-1
 0 8 l 1,42,-1
EndSplineSet
EndChar

StartChar: uniE1FF
Encoding: 57855 57855 599
Width: 64
Flags: MW
LayerCount: 2
Fore
SplineSet
32 8 m 1
 48 8 l 1
 48 24 l 1
 32 24 l 1
 32 40 l 1
 48 40 l 1
 48 24 l 1
 64 24 l 1
 64 8 l 1
 48 8 l 1
 48 -8 l 1
 32 -8 l 1
 32 8 l 1
EndSplineSet
Refer: 19 46 S 1 0 0 1 24 40 2
Refer: 19 46 S 1 0 0 1 -8 8 2
Refer: 19 46 S 1 0 0 1 -8 40 2
Refer: 19 46 S 1 0 0 1 -24 -8 2
Refer: 19 46 S 1 0 0 1 -24 24 2
EndChar

StartChar: uniE221
Encoding: 57889 57889 601
Width: 64
Flags: MW
LayerCount: 2
Fore
SplineSet
24 16 m 1,0,-1
 40 16 l 1,1,-1
 40 48 l 1,2,-1
 24 48 l 1,3,-1
 24 16 l 1,0,-1
24 0 m 1,4,-1
 40 0 l 1,5,-1
 40 8 l 1,6,-1
 24 8 l 1,7,-1
 24 0 l 1,4,-1
0 -8 m 1,8,-1
 0 56 l 1,9,-1
 64 56 l 1,10,-1
 64 -8 l 1,11,-1
 0 -8 l 1,8,-1
EndSplineSet
EndChar

StartChar: uniE222
Encoding: 57890 57890 602
Width: 64
Flags: MW
LayerCount: 2
Fore
SplineSet
40 24 m 1,0,-1
 48 24 l 1,1,-1
 48 32 l 1,2,-1
 56 32 l 1,3,-1
 56 48 l 1,4,-1
 40 48 l 1,5,-1
 40 24 l 1,0,-1
16 24 m 1,6,-1
 24 24 l 1,7,-1
 24 32 l 1,8,-1
 32 32 l 1,9,-1
 32 48 l 1,10,-1
 16 48 l 1,11,-1
 16 24 l 1,6,-1
0 -8 m 1,12,-1
 0 56 l 1,13,-1
 64 56 l 1,14,-1
 64 -8 l 1,15,-1
 0 -8 l 1,12,-1
EndSplineSet
EndChar

StartChar: uniE223
Encoding: 57891 57891 603
Width: 64
Flags: MW
LayerCount: 2
Fore
SplineSet
56 16 m 1,0,-1
 56 32 l 1,1,-1
 64 32 l 1,2,-1
 64 16 l 1,3,-1
 56 16 l 1,0,-1
32 16 m 1,4,-1
 32 32 l 1,5,-1
 40 32 l 1,6,-1
 40 16 l 1,7,-1
 32 16 l 1,4,-1
0 -8 m 1,8,-1
 0 56 l 1,9,-1
 64 56 l 1,10,-1
 64 40 l 1,11,-1
 56 40 l 1,12,-1
 56 48 l 1,13,-1
 40 48 l 1,14,-1
 40 40 l 1,15,-1
 32 40 l 1,16,-1
 32 48 l 1,17,-1
 16 48 l 1,18,-1
 16 40 l 1,19,-1
 8 40 l 1,20,-1
 8 32 l 1,21,-1
 16 32 l 1,22,-1
 16 16 l 1,23,-1
 8 16 l 1,24,-1
 8 8 l 1,25,-1
 16 8 l 1,26,-1
 16 0 l 1,27,-1
 32 0 l 1,28,-1
 32 8 l 1,29,-1
 40 8 l 1,30,-1
 40 0 l 1,31,-1
 56 0 l 1,32,-1
 56 8 l 1,33,-1
 64 8 l 1,34,-1
 64 -8 l 1,35,-1
 0 -8 l 1,8,-1
EndSplineSet
EndChar

StartChar: uniE224
Encoding: 57892 57892 604
Width: 64
Flags: MW
LayerCount: 2
Fore
SplineSet
0 -8 m 1,0,-1
 0 56 l 1,1,-1
 64 56 l 1,2,-1
 64 -8 l 1,3,-1
 40 -8 l 1,4,-1
 40 8 l 1,5,-1
 48 8 l 1,6,-1
 48 24 l 1,7,-1
 32 24 l 1,8,-1
 32 32 l 1,9,-1
 48 32 l 1,10,-1
 48 40 l 1,11,-1
 40 40 l 1,12,-1
 40 48 l 1,13,-1
 24 48 l 1,14,-1
 24 32 l 1,15,-1
 16 32 l 1,16,-1
 16 16 l 1,17,-1
 32 16 l 1,18,-1
 32 8 l 1,19,-1
 16 8 l 1,20,-1
 16 0 l 1,21,-1
 24 0 l 1,22,-1
 24 -8 l 1,23,-1
 0 -8 l 1,0,-1
EndSplineSet
EndChar

StartChar: uniE225
Encoding: 57893 57893 605
Width: 64
Flags: MW
LayerCount: 2
Fore
SplineSet
16 32 m 1,0,-1
 16 40 l 1,1,-1
 24 40 l 1,2,-1
 24 32 l 1,3,-1
 16 32 l 1,0,-1
0 -8 m 1,4,-1
 0 56 l 1,5,-1
 64 56 l 1,6,-1
 64 48 l 1,7,-1
 48 48 l 1,8,-1
 48 40 l 1,9,-1
 40 40 l 1,10,-1
 40 32 l 1,11,-1
 32 32 l 1,12,-1
 32 48 l 1,13,-1
 8 48 l 1,14,-1
 8 24 l 1,15,-1
 24 24 l 1,16,-1
 24 32 l 1,17,-1
 32 32 l 1,18,-1
 32 24 l 1,19,-1
 24 24 l 1,20,-1
 24 16 l 1,21,-1
 16 16 l 1,22,-1
 16 8 l 1,23,-1
 8 8 l 1,24,-1
 8 0 l 1,25,-1
 24 0 l 1,26,-1
 24 8 l 1,27,-1
 32 8 l 1,28,-1
 32 16 l 1,29,-1
 40 16 l 1,30,-1
 40 0 l 1,31,-1
 64 0 l 1,32,-1
 64 -8 l 1,33,-1
 0 -8 l 1,4,-1
48 16 m 1,34,-1
 40 16 l 1,35,-1
 40 24 l 1,36,-1
 48 24 l 1,37,-1
 48 16 l 1,34,-1
48 16 m 1,38,-1
 56 16 l 1,39,-1
 56 8 l 1,40,-1
 48 8 l 1,41,-1
 48 16 l 1,38,-1
48 24 m 1,42,-1
 48 32 l 1,43,-1
 56 32 l 1,44,-1
 56 40 l 1,45,-1
 64 40 l 1,46,-1
 64 24 l 1,47,-1
 48 24 l 1,42,-1
EndSplineSet
EndChar

StartChar: uniE226
Encoding: 57894 57894 606
Width: 64
Flags: MW
LayerCount: 2
Fore
SplineSet
56 8 m 1,0,-1
 56 16 l 1,1,-1
 64 16 l 1,2,-1
 64 8 l 1,3,-1
 56 8 l 1,0,-1
24 32 m 1,4,-1
 24 40 l 1,5,-1
 32 40 l 1,6,-1
 32 32 l 1,7,-1
 24 32 l 1,4,-1
24 8 m 1,8,-1
 24 24 l 1,9,-1
 32 24 l 1,10,-1
 32 16 l 1,11,-1
 40 16 l 1,12,-1
 40 8 l 1,13,-1
 24 8 l 1,8,-1
0 -8 m 1,14,-1
 0 56 l 1,15,-1
 64 56 l 1,16,-1
 64 24 l 1,17,-1
 40 24 l 1,18,-1
 40 32 l 1,19,-1
 48 32 l 1,20,-1
 48 40 l 1,21,-1
 40 40 l 1,22,-1
 40 48 l 1,23,-1
 16 48 l 1,24,-1
 16 40 l 1,25,-1
 8 40 l 1,26,-1
 8 32 l 1,27,-1
 16 32 l 1,28,-1
 16 24 l 1,29,-1
 8 24 l 1,30,-1
 8 8 l 1,31,-1
 16 8 l 1,32,-1
 16 0 l 1,33,-1
 64 0 l 1,34,-1
 64 -8 l 1,35,-1
 0 -8 l 1,14,-1
EndSplineSet
EndChar

StartChar: uniE227
Encoding: 57895 57895 607
Width: 64
Flags: MW
LayerCount: 2
Fore
SplineSet
24 24 m 1,0,-1
 32 24 l 1,1,-1
 32 32 l 1,2,-1
 40 32 l 1,3,-1
 40 48 l 1,4,-1
 24 48 l 1,5,-1
 24 24 l 1,0,-1
0 -8 m 1,6,-1
 0 56 l 1,7,-1
 64 56 l 1,8,-1
 64 -8 l 1,9,-1
 0 -8 l 1,6,-1
EndSplineSet
EndChar

StartChar: uniE228
Encoding: 57896 57896 608
Width: 64
Flags: MW
LayerCount: 2
Fore
SplineSet
16 8 m 1,0,-1
 24 8 l 1,1,-1
 24 0 l 1,2,-1
 40 0 l 1,3,-1
 40 8 l 1,4,-1
 32 8 l 1,5,-1
 32 40 l 1,6,-1
 40 40 l 1,7,-1
 40 48 l 1,8,-1
 24 48 l 1,9,-1
 24 40 l 1,10,-1
 16 40 l 1,11,-1
 16 8 l 1,0,-1
0 -8 m 1,12,-1
 0 56 l 1,13,-1
 64 56 l 1,14,-1
 64 -8 l 1,15,-1
 0 -8 l 1,12,-1
EndSplineSet
EndChar

StartChar: uniE229
Encoding: 57897 57897 609
Width: 64
Flags: MW
LayerCount: 2
Fore
SplineSet
24 0 m 1,0,-1
 40 0 l 1,1,-1
 40 8 l 1,2,-1
 48 8 l 1,3,-1
 48 40 l 1,4,-1
 40 40 l 1,5,-1
 40 48 l 1,6,-1
 24 48 l 1,7,-1
 24 40 l 1,8,-1
 32 40 l 1,9,-1
 32 8 l 1,10,-1
 24 8 l 1,11,-1
 24 0 l 1,0,-1
0 -8 m 1,12,-1
 0 56 l 1,13,-1
 64 56 l 1,14,-1
 64 -8 l 1,15,-1
 0 -8 l 1,12,-1
EndSplineSet
EndChar

StartChar: uniE22A
Encoding: 57898 57898 610
Width: 64
Flags: MW
LayerCount: 2
Fore
SplineSet
0 24 m 1,0,-1
 0 56 l 1,1,-1
 64 56 l 1,2,-1
 64 24 l 1,3,-1
 48 24 l 1,4,-1
 48 32 l 1,5,-1
 56 32 l 1,6,-1
 56 40 l 1,7,-1
 40 40 l 1,8,-1
 40 32 l 1,9,-1
 24 32 l 1,10,-1
 24 40 l 1,11,-1
 8 40 l 1,12,-1
 8 32 l 1,13,-1
 16 32 l 1,14,-1
 16 24 l 1,15,-1
 0 24 l 1,0,-1
0 -8 m 1,16,-1
 0 16 l 1,17,-1
 16 16 l 1,18,-1
 16 8 l 1,19,-1
 8 8 l 1,20,-1
 8 0 l 1,21,-1
 24 0 l 1,22,-1
 24 8 l 1,23,-1
 40 8 l 1,24,-1
 40 0 l 1,25,-1
 56 0 l 1,26,-1
 56 8 l 1,27,-1
 48 8 l 1,28,-1
 48 16 l 1,29,-1
 64 16 l 1,30,-1
 64 -8 l 1,31,-1
 0 -8 l 1,16,-1
EndSplineSet
EndChar

StartChar: uniE22B
Encoding: 57899 57899 611
Width: 64
Flags: MW
LayerCount: 2
Fore
SplineSet
8 16 m 1,0,-1
 24 16 l 1,1,-1
 24 0 l 1,2,-1
 40 0 l 1,3,-1
 40 16 l 1,4,-1
 56 16 l 1,5,-1
 56 24 l 1,6,-1
 40 24 l 1,7,-1
 40 40 l 1,8,-1
 24 40 l 1,9,-1
 24 24 l 1,10,-1
 8 24 l 1,11,-1
 8 16 l 1,0,-1
0 -8 m 1,12,-1
 0 56 l 1,13,-1
 64 56 l 1,14,-1
 64 -8 l 1,15,-1
 0 -8 l 1,12,-1
EndSplineSet
EndChar

StartChar: uniE22C
Encoding: 57900 57900 612
Width: 64
Flags: MW
LayerCount: 2
Fore
SplineSet
0 -8 m 1,0,-1
 0 56 l 1,1,-1
 64 56 l 1,2,-1
 64 -8 l 1,3,-1
 32 -8 l 1,4,-1
 32 0 l 1,5,-1
 40 0 l 1,6,-1
 40 16 l 1,7,-1
 24 16 l 1,8,-1
 24 0 l 1,9,-1
 16 0 l 1,10,-1
 16 -8 l 1,11,-1
 0 -8 l 1,0,-1
EndSplineSet
EndChar

StartChar: uniE22D
Encoding: 57901 57901 613
Width: 64
Flags: MW
LayerCount: 2
Fore
SplineSet
8 16 m 1,0,-1
 56 16 l 1,1,-1
 56 24 l 1,2,-1
 8 24 l 1,3,-1
 8 16 l 1,0,-1
0 -8 m 1,4,-1
 0 56 l 1,5,-1
 64 56 l 1,6,-1
 64 -8 l 1,7,-1
 0 -8 l 1,4,-1
EndSplineSet
EndChar

StartChar: uniE22E
Encoding: 57902 57902 614
Width: 64
Flags: MW
LayerCount: 2
Fore
SplineSet
24 0 m 1,0,-1
 40 0 l 1,1,-1
 40 16 l 1,2,-1
 24 16 l 1,3,-1
 24 0 l 1,0,-1
0 -8 m 1,4,-1
 0 56 l 1,5,-1
 64 56 l 1,6,-1
 64 -8 l 1,7,-1
 0 -8 l 1,4,-1
EndSplineSet
EndChar

StartChar: uniE22F
Encoding: 57903 57903 615
Width: 64
Flags: MW
LayerCount: 2
Fore
SplineSet
16 0 m 1,0,-1
 32 0 l 1,1,-1
 32 16 l 1,2,-1
 40 16 l 1,3,-1
 40 32 l 1,4,-1
 48 32 l 1,5,-1
 48 48 l 1,6,-1
 32 48 l 1,7,-1
 32 32 l 1,8,-1
 24 32 l 1,9,-1
 24 16 l 1,10,-1
 16 16 l 1,11,-1
 16 0 l 1,0,-1
0 -8 m 1,12,-1
 0 56 l 1,13,-1
 64 56 l 1,14,-1
 64 -8 l 1,15,-1
 0 -8 l 1,12,-1
EndSplineSet
EndChar

StartChar: uniE230
Encoding: 57904 57904 616
Width: 64
Flags: MW
LayerCount: 2
Fore
SplineSet
24 24 m 1
 24 40 l 1
 40 40 l 1
 40 32 l 1
 32 32 l 1
 32 24 l 1
 24 24 l 1
24 8 m 1
 24 16 l 1
 32 16 l 1
 32 24 l 1
 40 24 l 1
 40 8 l 1
 24 8 l 1
8 8 m 1
 16 8 l 1
 16 0 l 1
 48 0 l 1
 48 8 l 1
 56 8 l 1
 56 40 l 1
 48 40 l 1
 48 48 l 1
 16 48 l 1
 16 40 l 1
 8 40 l 1
 8 8 l 1
EndSplineSet
Refer: 120 219 S 1 0 0 1 0 0 2
EndChar

StartChar: uniE231
Encoding: 57905 57905 617
Width: 64
Flags: MW
LayerCount: 2
Fore
SplineSet
8 0 m 1,0,-1
 56 0 l 1,1,-1
 56 8 l 1,2,-1
 40 8 l 1,3,-1
 40 48 l 1,4,-1
 24 48 l 1,5,-1
 24 40 l 1,6,-1
 16 40 l 1,7,-1
 16 32 l 1,8,-1
 24 32 l 1,9,-1
 24 8 l 1,10,-1
 8 8 l 1,11,-1
 8 0 l 1,0,-1
0 -8 m 1,12,-1
 0 56 l 1,13,-1
 64 56 l 1,14,-1
 64 -8 l 1,15,-1
 0 -8 l 1,12,-1
EndSplineSet
EndChar

StartChar: uniE232
Encoding: 57906 57906 618
Width: 64
Flags: MW
LayerCount: 2
Fore
SplineSet
8 0 m 1,0,-1
 56 0 l 1,1,-1
 56 8 l 1,2,-1
 32 8 l 1,3,-1
 32 16 l 1,4,-1
 40 16 l 1,5,-1
 40 24 l 1,6,-1
 48 24 l 1,7,-1
 48 40 l 1,8,-1
 40 40 l 1,9,-1
 40 48 l 1,10,-1
 8 48 l 1,11,-1
 8 40 l 1,12,-1
 32 40 l 1,13,-1
 32 24 l 1,14,-1
 24 24 l 1,15,-1
 24 16 l 1,16,-1
 16 16 l 1,17,-1
 16 8 l 1,18,-1
 8 8 l 1,19,-1
 8 0 l 1,0,-1
0 -8 m 1,20,-1
 0 56 l 1,21,-1
 64 56 l 1,22,-1
 64 -8 l 1,23,-1
 0 -8 l 1,20,-1
EndSplineSet
EndChar

StartChar: uniE233
Encoding: 57907 57907 619
Width: 64
Flags: MW
LayerCount: 2
Fore
SplineSet
8 0 m 1,0,-1
 48 0 l 1,1,-1
 48 8 l 1,2,-1
 56 8 l 1,3,-1
 56 24 l 1,4,-1
 48 24 l 1,5,-1
 48 40 l 1,6,-1
 56 40 l 1,7,-1
 56 48 l 1,8,-1
 8 48 l 1,9,-1
 8 40 l 1,10,-1
 32 40 l 1,11,-1
 32 32 l 1,12,-1
 24 32 l 1,13,-1
 24 24 l 1,14,-1
 40 24 l 1,15,-1
 40 8 l 1,16,-1
 8 8 l 1,17,-1
 8 0 l 1,0,-1
0 -8 m 1,18,-1
 0 56 l 1,19,-1
 64 56 l 1,20,-1
 64 -8 l 1,21,-1
 0 -8 l 1,18,-1
EndSplineSet
EndChar

StartChar: uniE234
Encoding: 57908 57908 620
Width: 64
Flags: MW
LayerCount: 2
Fore
SplineSet
24 16 m 1
 24 24 l 1
 32 24 l 1
 32 32 l 1
 40 32 l 1
 40 16 l 1
 24 16 l 1
8 8 m 1
 40 8 l 1
 40 0 l 1
 56 0 l 1
 56 32 l 1
 40 32 l 1
 40 40 l 1
 48 40 l 1
 48 48 l 1
 32 48 l 1
 32 40 l 1
 24 40 l 1
 24 32 l 1
 16 32 l 1
 16 24 l 1
 8 24 l 1
 8 8 l 1
EndSplineSet
Refer: 120 219 S 1 0 0 1 0 0 2
EndChar

StartChar: uniE235
Encoding: 57909 57909 621
Width: 64
Flags: MW
LayerCount: 2
Fore
SplineSet
8 0 m 1,0,-1
 48 0 l 1,1,-1
 48 8 l 1,2,-1
 56 8 l 1,3,-1
 56 24 l 1,4,-1
 48 24 l 1,5,-1
 48 32 l 1,6,-1
 24 32 l 1,7,-1
 24 40 l 1,8,-1
 48 40 l 1,9,-1
 48 48 l 1,10,-1
 8 48 l 1,11,-1
 8 24 l 1,12,-1
 40 24 l 1,13,-1
 40 8 l 1,14,-1
 8 8 l 1,15,-1
 8 0 l 1,0,-1
0 -8 m 1,16,-1
 0 56 l 1,17,-1
 64 56 l 1,18,-1
 64 -8 l 1,19,-1
 0 -8 l 1,16,-1
EndSplineSet
EndChar

StartChar: uniE236
Encoding: 57910 57910 622
Width: 64
Flags: MW
LayerCount: 2
Fore
SplineSet
8 8 m 1
 16 8 l 1
 16 0 l 1
 48 0 l 1
 48 8 l 1
 56 8 l 1
 56 24 l 1
 48 24 l 1
 48 32 l 1
 24 32 l 1
 24 40 l 1
 48 40 l 1
 48 48 l 1
 16 48 l 1
 16 40 l 1
 8 40 l 1
 8 8 l 1
0 -8 m 1
 0 56 l 1
 64 56 l 1
 64 -8 l 1
 0 -8 l 1
EndSplineSet
Refer: 19 46 S 1 0 0 1 0 8 2
EndChar

StartChar: uniE237
Encoding: 57911 57911 623
Width: 64
Flags: MW
LayerCount: 2
Fore
SplineSet
8 40 m 1,0,-1
 40 40 l 1,1,-1
 40 32 l 1,2,-1
 32 32 l 1,3,-1
 32 24 l 1,4,-1
 24 24 l 1,5,-1
 24 0 l 1,6,-1
 40 0 l 1,7,-1
 40 24 l 1,8,-1
 48 24 l 1,9,-1
 48 32 l 1,10,-1
 56 32 l 1,11,-1
 56 48 l 1,12,-1
 8 48 l 1,13,-1
 8 40 l 1,0,-1
0 -8 m 1,14,-1
 0 56 l 1,15,-1
 64 56 l 1,16,-1
 64 -8 l 1,17,-1
 0 -8 l 1,14,-1
EndSplineSet
EndChar

StartChar: uniE238
Encoding: 57912 57912 624
Width: 64
Flags: MW
LayerCount: 2
Fore
SplineSet
24 32 m 1
 24 40 l 1
 40 40 l 1
 40 32 l 1
 24 32 l 1
8 8 m 1
 16 8 l 1
 16 0 l 1
 48 0 l 1
 48 8 l 1
 56 8 l 1
 56 24 l 1
 48 24 l 1
 48 32 l 1
 56 32 l 1
 56 40 l 1
 48 40 l 1
 48 48 l 1
 16 48 l 1
 16 40 l 1
 8 40 l 1
 8 32 l 1
 16 32 l 1
 16 24 l 1
 8 24 l 1
 8 8 l 1
EndSplineSet
Refer: 120 219 S 1 0 0 1 0 0 2
Refer: 19 46 S 1 0 0 1 0 8 2
EndChar

StartChar: uniE239
Encoding: 57913 57913 625
Width: 64
Flags: MW
LayerCount: 2
Fore
SplineSet
8 24 m 1
 16 24 l 1
 16 16 l 1
 40 16 l 1
 40 8 l 1
 16 8 l 1
 16 0 l 1
 48 0 l 1
 48 8 l 1
 56 8 l 1
 56 40 l 1
 48 40 l 1
 48 48 l 1
 16 48 l 1
 16 40 l 1
 8 40 l 1
 8 24 l 1
0 -8 m 1
 0 56 l 1
 64 56 l 1
 64 -8 l 1
 0 -8 l 1
EndSplineSet
Refer: 19 46 S 1 0 0 1 0 24 2
EndChar

StartChar: uniE23A
Encoding: 57914 57914 626
Width: 64
Flags: MW
LayerCount: 2
Fore
SplineSet
24 24 m 1,0,-1
 40 24 l 1,1,-1
 40 40 l 1,2,-1
 24 40 l 1,3,-1
 24 24 l 1,0,-1
24 0 m 1,4,-1
 40 0 l 1,5,-1
 40 16 l 1,6,-1
 24 16 l 1,7,-1
 24 0 l 1,4,-1
0 -8 m 1,8,-1
 0 56 l 1,9,-1
 64 56 l 1,10,-1
 64 -8 l 1,11,-1
 0 -8 l 1,8,-1
EndSplineSet
EndChar

StartChar: uniE23B
Encoding: 57915 57915 627
Width: 64
Flags: MW
LayerCount: 2
Fore
SplineSet
24 24 m 1,0,-1
 40 24 l 1,1,-1
 40 40 l 1,2,-1
 24 40 l 1,3,-1
 24 24 l 1,0,-1
0 -8 m 1,4,-1
 0 56 l 1,5,-1
 64 56 l 1,6,-1
 64 -8 l 1,7,-1
 32 -8 l 1,8,-1
 32 0 l 1,9,-1
 40 0 l 1,10,-1
 40 16 l 1,11,-1
 24 16 l 1,12,-1
 24 0 l 1,13,-1
 16 0 l 1,14,-1
 16 -8 l 1,15,-1
 0 -8 l 1,4,-1
EndSplineSet
EndChar

StartChar: uniE23C
Encoding: 57916 57916 628
Width: 64
Flags: MW
LayerCount: 2
Fore
SplineSet
16 16 m 1,0,-1
 24 16 l 1,1,-1
 24 8 l 1,2,-1
 32 8 l 1,3,-1
 32 0 l 1,4,-1
 48 0 l 1,5,-1
 48 8 l 1,6,-1
 40 8 l 1,7,-1
 40 16 l 1,8,-1
 32 16 l 1,9,-1
 32 24 l 1,10,-1
 40 24 l 1,11,-1
 40 32 l 1,12,-1
 48 32 l 1,13,-1
 48 40 l 1,14,-1
 32 40 l 1,15,-1
 32 32 l 1,16,-1
 24 32 l 1,17,-1
 24 24 l 1,18,-1
 16 24 l 1,19,-1
 16 16 l 1,0,-1
0 -8 m 1,20,-1
 0 56 l 1,21,-1
 64 56 l 1,22,-1
 64 -8 l 1,23,-1
 0 -8 l 1,20,-1
EndSplineSet
EndChar

StartChar: uniE23D
Encoding: 57917 57917 629
Width: 64
Flags: MW
LayerCount: 2
Fore
SplineSet
8 24 m 1,0,-1
 56 24 l 1,1,-1
 56 32 l 1,2,-1
 8 32 l 1,3,-1
 8 24 l 1,0,-1
8 8 m 1,4,-1
 56 8 l 1,5,-1
 56 16 l 1,6,-1
 8 16 l 1,7,-1
 8 8 l 1,4,-1
0 -8 m 1,8,-1
 0 56 l 1,9,-1
 64 56 l 1,10,-1
 64 -8 l 1,11,-1
 0 -8 l 1,8,-1
EndSplineSet
EndChar

StartChar: uniE23E
Encoding: 57918 57918 630
Width: 64
Flags: MW
LayerCount: 2
Fore
SplineSet
16 0 m 1,0,-1
 32 0 l 1,1,-1
 32 8 l 1,2,-1
 40 8 l 1,3,-1
 40 16 l 1,4,-1
 48 16 l 1,5,-1
 48 24 l 1,6,-1
 40 24 l 1,7,-1
 40 32 l 1,8,-1
 32 32 l 1,9,-1
 32 40 l 1,10,-1
 16 40 l 1,11,-1
 16 32 l 1,12,-1
 24 32 l 1,13,-1
 24 24 l 1,14,-1
 32 24 l 1,15,-1
 32 16 l 1,16,-1
 24 16 l 1,17,-1
 24 8 l 1,18,-1
 16 8 l 1,19,-1
 16 0 l 1,0,-1
0 -8 m 1,20,-1
 0 56 l 1,21,-1
 64 56 l 1,22,-1
 64 -8 l 1,23,-1
 0 -8 l 1,20,-1
EndSplineSet
EndChar

StartChar: uniE23F
Encoding: 57919 57919 631
Width: 64
Flags: MW
LayerCount: 2
Fore
SplineSet
24 0 m 1,0,-1
 40 0 l 1,1,-1
 40 8 l 1,2,-1
 24 8 l 1,3,-1
 24 0 l 1,0,-1
8 32 m 1,4,-1
 24 32 l 1,5,-1
 24 40 l 1,6,-1
 40 40 l 1,7,-1
 40 32 l 1,8,-1
 32 32 l 1,9,-1
 32 24 l 1,10,-1
 24 24 l 1,11,-1
 24 16 l 1,12,-1
 48 16 l 1,13,-1
 48 24 l 1,14,-1
 56 24 l 1,15,-1
 56 40 l 1,16,-1
 48 40 l 1,17,-1
 48 48 l 1,18,-1
 16 48 l 1,19,-1
 16 40 l 1,20,-1
 8 40 l 1,21,-1
 8 32 l 1,4,-1
0 -8 m 1,22,-1
 0 56 l 1,23,-1
 64 56 l 1,24,-1
 64 -8 l 1,25,-1
 0 -8 l 1,22,-1
EndSplineSet
EndChar

StartChar: uniE240
Encoding: 57920 57920 632
Width: 64
Flags: MW
LayerCount: 2
Fore
SplineSet
8 8 m 1,0,-1
 16 8 l 1,1,-1
 16 0 l 1,2,-1
 48 0 l 1,3,-1
 48 8 l 1,4,-1
 24 8 l 1,5,-1
 24 40 l 1,6,-1
 40 40 l 1,7,-1
 40 32 l 1,8,-1
 32 32 l 1,9,-1
 32 16 l 1,10,-1
 56 16 l 1,11,-1
 56 40 l 1,12,-1
 48 40 l 1,13,-1
 48 48 l 1,14,-1
 16 48 l 1,15,-1
 16 40 l 1,16,-1
 8 40 l 1,17,-1
 8 8 l 1,0,-1
0 -8 m 1,18,-1
 0 56 l 1,19,-1
 64 56 l 1,20,-1
 64 -8 l 1,21,-1
 0 -8 l 1,18,-1
EndSplineSet
EndChar

StartChar: uniE241
Encoding: 57921 57921 633
Width: 64
Flags: MW
LayerCount: 2
Fore
SplineSet
8 0 m 1
 24 0 l 1
 24 16 l 1
 40 16 l 1
 40 0 l 1
 56 0 l 1
 56 40 l 1
 48 40 l 1
 48 48 l 1
 16 48 l 1
 16 40 l 1
 8 40 l 1
 8 0 l 1
0 -8 m 1
 0 56 l 1
 64 56 l 1
 64 -8 l 1
 0 -8 l 1
EndSplineSet
Refer: 19 46 S 1 0 0 1 0 24 2
EndChar

StartChar: uniE242
Encoding: 57922 57922 634
Width: 64
Flags: MW
LayerCount: 2
Fore
SplineSet
24 32 m 1
 24 40 l 1
 40 40 l 1
 40 32 l 1
 24 32 l 1
8 0 m 1
 48 0 l 1
 48 8 l 1
 56 8 l 1
 56 24 l 1
 48 24 l 1
 48 32 l 1
 56 32 l 1
 56 40 l 1
 48 40 l 1
 48 48 l 1
 8 48 l 1
 8 0 l 1
EndSplineSet
Refer: 120 219 S 1 0 0 1 0 0 2
Refer: 19 46 S 1 0 0 1 0 8 2
EndChar

StartChar: uniE243
Encoding: 57923 57923 635
Width: 64
Flags: MW
LayerCount: 2
Fore
SplineSet
8 8 m 1,0,-1
 16 8 l 1,1,-1
 16 0 l 1,2,-1
 56 0 l 1,3,-1
 56 8 l 1,4,-1
 24 8 l 1,5,-1
 24 40 l 1,6,-1
 56 40 l 1,7,-1
 56 48 l 1,8,-1
 16 48 l 1,9,-1
 16 40 l 1,10,-1
 8 40 l 1,11,-1
 8 8 l 1,0,-1
0 -8 m 1,12,-1
 0 56 l 1,13,-1
 64 56 l 1,14,-1
 64 -8 l 1,15,-1
 0 -8 l 1,12,-1
EndSplineSet
EndChar

StartChar: uniE244
Encoding: 57924 57924 636
Width: 64
Flags: MW
LayerCount: 2
Fore
SplineSet
24 8 m 1
 24 40 l 1
 40 40 l 1
 40 8 l 1
 24 8 l 1
8 0 m 1
 48 0 l 1
 48 8 l 1
 56 8 l 1
 56 40 l 1
 48 40 l 1
 48 48 l 1
 8 48 l 1
 8 0 l 1
EndSplineSet
Refer: 120 219 S 1 0 0 1 0 0 2
EndChar

StartChar: uniE245
Encoding: 57925 57925 637
Width: 64
Flags: MW
LayerCount: 2
Fore
SplineSet
8 0 m 1,0,-1
 56 0 l 1,1,-1
 56 8 l 1,2,-1
 24 8 l 1,3,-1
 24 24 l 1,4,-1
 48 24 l 1,5,-1
 48 32 l 1,6,-1
 24 32 l 1,7,-1
 24 40 l 1,8,-1
 56 40 l 1,9,-1
 56 48 l 1,10,-1
 8 48 l 1,11,-1
 8 0 l 1,0,-1
0 -8 m 1,12,-1
 0 56 l 1,13,-1
 64 56 l 1,14,-1
 64 -8 l 1,15,-1
 0 -8 l 1,12,-1
EndSplineSet
EndChar

StartChar: uniE246
Encoding: 57926 57926 638
Width: 64
Flags: MW
LayerCount: 2
Fore
SplineSet
8 0 m 1,0,-1
 24 0 l 1,1,-1
 24 24 l 1,2,-1
 48 24 l 1,3,-1
 48 32 l 1,4,-1
 24 32 l 1,5,-1
 24 40 l 1,6,-1
 56 40 l 1,7,-1
 56 48 l 1,8,-1
 8 48 l 1,9,-1
 8 0 l 1,0,-1
0 -8 m 1,10,-1
 0 56 l 1,11,-1
 64 56 l 1,12,-1
 64 -8 l 1,13,-1
 0 -8 l 1,10,-1
EndSplineSet
EndChar

StartChar: uniE247
Encoding: 57927 57927 639
Width: 64
Flags: MW
LayerCount: 2
Fore
SplineSet
8 8 m 1,0,-1
 16 8 l 1,1,-1
 16 0 l 1,2,-1
 56 0 l 1,3,-1
 56 32 l 1,4,-1
 32 32 l 1,5,-1
 32 24 l 1,6,-1
 40 24 l 1,7,-1
 40 8 l 1,8,-1
 24 8 l 1,9,-1
 24 40 l 1,10,-1
 56 40 l 1,11,-1
 56 48 l 1,12,-1
 16 48 l 1,13,-1
 16 40 l 1,14,-1
 8 40 l 1,15,-1
 8 8 l 1,0,-1
0 -8 m 1,16,-1
 0 56 l 1,17,-1
 64 56 l 1,18,-1
 64 -8 l 1,19,-1
 0 -8 l 1,16,-1
EndSplineSet
EndChar

StartChar: uniE248
Encoding: 57928 57928 640
Width: 64
Flags: MW
LayerCount: 2
Fore
SplineSet
8 0 m 1,0,-1
 24 0 l 1,1,-1
 24 24 l 1,2,-1
 40 24 l 1,3,-1
 40 0 l 1,4,-1
 56 0 l 1,5,-1
 56 48 l 1,6,-1
 40 48 l 1,7,-1
 40 32 l 1,8,-1
 24 32 l 1,9,-1
 24 48 l 1,10,-1
 8 48 l 1,11,-1
 8 0 l 1,0,-1
0 -8 m 1,12,-1
 0 56 l 1,13,-1
 64 56 l 1,14,-1
 64 -8 l 1,15,-1
 0 -8 l 1,12,-1
EndSplineSet
EndChar

StartChar: uniE249
Encoding: 57929 57929 641
Width: 64
Flags: MW
LayerCount: 2
Fore
SplineSet
16 0 m 1,0,-1
 48 0 l 1,1,-1
 48 8 l 1,2,-1
 40 8 l 1,3,-1
 40 40 l 1,4,-1
 48 40 l 1,5,-1
 48 48 l 1,6,-1
 16 48 l 1,7,-1
 16 40 l 1,8,-1
 24 40 l 1,9,-1
 24 8 l 1,10,-1
 16 8 l 1,11,-1
 16 0 l 1,0,-1
0 -8 m 1,12,-1
 0 56 l 1,13,-1
 64 56 l 1,14,-1
 64 -8 l 1,15,-1
 0 -8 l 1,12,-1
EndSplineSet
EndChar

StartChar: uniE24A
Encoding: 57930 57930 642
Width: 64
Flags: MW
LayerCount: 2
Fore
SplineSet
8 8 m 1,0,-1
 16 8 l 1,1,-1
 16 0 l 1,2,-1
 48 0 l 1,3,-1
 48 8 l 1,4,-1
 56 8 l 1,5,-1
 56 48 l 1,6,-1
 24 48 l 1,7,-1
 24 40 l 1,8,-1
 40 40 l 1,9,-1
 40 8 l 1,10,-1
 24 8 l 1,11,-1
 24 24 l 1,12,-1
 8 24 l 1,13,-1
 8 8 l 1,0,-1
0 -8 m 1,14,-1
 0 56 l 1,15,-1
 64 56 l 1,16,-1
 64 -8 l 1,17,-1
 0 -8 l 1,14,-1
EndSplineSet
EndChar

StartChar: uniE24B
Encoding: 57931 57931 643
Width: 64
Flags: MW
LayerCount: 2
Fore
SplineSet
8 0 m 1,0,-1
 24 0 l 1,1,-1
 24 16 l 1,2,-1
 32 16 l 1,3,-1
 32 8 l 1,4,-1
 40 8 l 1,5,-1
 40 0 l 1,6,-1
 56 0 l 1,7,-1
 56 8 l 1,8,-1
 48 8 l 1,9,-1
 48 16 l 1,10,-1
 40 16 l 1,11,-1
 40 32 l 1,12,-1
 48 32 l 1,13,-1
 48 40 l 1,14,-1
 56 40 l 1,15,-1
 56 48 l 1,16,-1
 40 48 l 1,17,-1
 40 40 l 1,18,-1
 32 40 l 1,19,-1
 32 32 l 1,20,-1
 24 32 l 1,21,-1
 24 48 l 1,22,-1
 8 48 l 1,23,-1
 8 0 l 1,0,-1
0 -8 m 1,24,-1
 0 56 l 1,25,-1
 64 56 l 1,26,-1
 64 -8 l 1,27,-1
 0 -8 l 1,24,-1
EndSplineSet
EndChar

StartChar: uniE24C
Encoding: 57932 57932 644
Width: 64
Flags: MW
LayerCount: 2
Fore
SplineSet
8 0 m 1,0,-1
 56 0 l 1,1,-1
 56 8 l 1,2,-1
 24 8 l 1,3,-1
 24 48 l 1,4,-1
 8 48 l 1,5,-1
 8 0 l 1,0,-1
0 -8 m 1,6,-1
 0 56 l 1,7,-1
 64 56 l 1,8,-1
 64 -8 l 1,9,-1
 0 -8 l 1,6,-1
EndSplineSet
EndChar

StartChar: uniE24D
Encoding: 57933 57933 645
Width: 64
Flags: MW
LayerCount: 2
Fore
SplineSet
0 -8 m 1,0,-1
 0 56 l 1,1,-1
 64 56 l 1,2,-1
 64 48 l 1,3,-1
 48 48 l 1,4,-1
 48 40 l 1,5,-1
 40 40 l 1,6,-1
 40 32 l 1,7,-1
 32 32 l 1,8,-1
 32 40 l 1,9,-1
 24 40 l 1,10,-1
 24 48 l 1,11,-1
 8 48 l 1,12,-1
 8 0 l 1,13,-1
 24 0 l 1,14,-1
 24 24 l 1,15,-1
 32 24 l 1,16,-1
 32 16 l 1,17,-1
 40 16 l 1,18,-1
 40 24 l 1,19,-1
 48 24 l 1,20,-1
 48 0 l 1,21,-1
 64 0 l 1,22,-1
 64 -8 l 1,23,-1
 0 -8 l 1,0,-1
EndSplineSet
EndChar

StartChar: uniE24E
Encoding: 57934 57934 646
Width: 64
Flags: MW
LayerCount: 2
Fore
SplineSet
8 0 m 1,0,-1
 24 0 l 1,1,-1
 24 24 l 1,2,-1
 32 24 l 1,3,-1
 32 16 l 1,4,-1
 40 16 l 1,5,-1
 40 0 l 1,6,-1
 56 0 l 1,7,-1
 56 48 l 1,8,-1
 40 48 l 1,9,-1
 40 32 l 1,10,-1
 32 32 l 1,11,-1
 32 40 l 1,12,-1
 24 40 l 1,13,-1
 24 48 l 1,14,-1
 8 48 l 1,15,-1
 8 0 l 1,0,-1
0 -8 m 1,16,-1
 0 56 l 1,17,-1
 64 56 l 1,18,-1
 64 -8 l 1,19,-1
 0 -8 l 1,16,-1
EndSplineSet
EndChar

StartChar: uniE24F
Encoding: 57935 57935 647
Width: 64
Flags: MW
LayerCount: 2
Fore
SplineSet
24 8 m 1
 24 40 l 1
 40 40 l 1
 40 8 l 1
 24 8 l 1
8 8 m 1
 16 8 l 1
 16 0 l 1
 48 0 l 1
 48 8 l 1
 56 8 l 1
 56 40 l 1
 48 40 l 1
 48 48 l 1
 16 48 l 1
 16 40 l 1
 8 40 l 1
 8 8 l 1
EndSplineSet
Refer: 120 219 S 1 0 0 1 0 0 2
EndChar

StartChar: uniE250
Encoding: 57936 57936 648
Width: 64
Flags: MW
LayerCount: 2
Fore
SplineSet
8 0 m 1
 24 0 l 1
 24 16 l 1
 48 16 l 1
 48 24 l 1
 56 24 l 1
 56 40 l 1
 48 40 l 1
 48 48 l 1
 8 48 l 1
 8 0 l 1
0 -8 m 1
 0 56 l 1
 64 56 l 1
 64 -8 l 1
 0 -8 l 1
EndSplineSet
Refer: 19 46 S 1 0 0 1 0 24 2
EndChar

StartChar: uniE251
Encoding: 57937 57937 649
Width: 64
Flags: MW
LayerCount: 2
Fore
SplineSet
24 8 m 1,0,-1
 24 40 l 1,1,-1
 40 40 l 1,2,-1
 40 8 l 1,3,-1
 24 8 l 1,0,-1
0 -8 m 1,4,-1
 0 56 l 1,5,-1
 64 56 l 1,6,-1
 64 -8 l 1,7,-1
 56 -8 l 1,8,-1
 56 0 l 1,9,-1
 48 0 l 1,10,-1
 48 8 l 1,11,-1
 56 8 l 1,12,-1
 56 40 l 1,13,-1
 48 40 l 1,14,-1
 48 48 l 1,15,-1
 16 48 l 1,16,-1
 16 40 l 1,17,-1
 8 40 l 1,18,-1
 8 8 l 1,19,-1
 16 8 l 1,20,-1
 16 0 l 1,21,-1
 32 0 l 1,22,-1
 32 -8 l 1,23,-1
 0 -8 l 1,4,-1
EndSplineSet
EndChar

StartChar: uniE252
Encoding: 57938 57938 650
Width: 64
Flags: MW
LayerCount: 2
Fore
SplineSet
8 0 m 1
 24 0 l 1
 24 16 l 1
 40 16 l 1
 40 0 l 1
 56 0 l 1
 56 16 l 1
 48 16 l 1
 48 24 l 1
 56 24 l 1
 56 40 l 1
 48 40 l 1
 48 48 l 1
 8 48 l 1
 8 0 l 1
0 -8 m 1
 0 56 l 1
 64 56 l 1
 64 -8 l 1
 0 -8 l 1
EndSplineSet
Refer: 19 46 S 1 0 0 1 0 24 2
EndChar

StartChar: uniE253
Encoding: 57939 57939 651
Width: 64
Flags: MW
LayerCount: 2
Fore
SplineSet
8 0 m 1,0,-1
 48 0 l 1,1,-1
 48 8 l 1,2,-1
 56 8 l 1,3,-1
 56 24 l 1,4,-1
 40 24 l 1,5,-1
 40 32 l 1,6,-1
 24 32 l 1,7,-1
 24 40 l 1,8,-1
 48 40 l 1,9,-1
 48 48 l 1,10,-1
 16 48 l 1,11,-1
 16 40 l 1,12,-1
 8 40 l 1,13,-1
 8 24 l 1,14,-1
 24 24 l 1,15,-1
 24 16 l 1,16,-1
 40 16 l 1,17,-1
 40 8 l 1,18,-1
 8 8 l 1,19,-1
 8 0 l 1,0,-1
0 -8 m 1,20,-1
 0 56 l 1,21,-1
 64 56 l 1,22,-1
 64 -8 l 1,23,-1
 0 -8 l 1,20,-1
EndSplineSet
EndChar

StartChar: uniE254
Encoding: 57940 57940 652
Width: 64
Flags: MW
LayerCount: 2
Fore
SplineSet
8 40 m 1,0,-1
 24 40 l 1,1,-1
 24 0 l 1,2,-1
 40 0 l 1,3,-1
 40 40 l 1,4,-1
 56 40 l 1,5,-1
 56 48 l 1,6,-1
 8 48 l 1,7,-1
 8 40 l 1,0,-1
0 -8 m 1,8,-1
 0 56 l 1,9,-1
 64 56 l 1,10,-1
 64 -8 l 1,11,-1
 0 -8 l 1,8,-1
EndSplineSet
EndChar

StartChar: uniE255
Encoding: 57941 57941 653
Width: 64
Flags: MW
LayerCount: 2
Fore
SplineSet
8 8 m 1,0,-1
 16 8 l 1,1,-1
 16 0 l 1,2,-1
 48 0 l 1,3,-1
 48 8 l 1,4,-1
 56 8 l 1,5,-1
 56 48 l 1,6,-1
 40 48 l 1,7,-1
 40 8 l 1,8,-1
 24 8 l 1,9,-1
 24 48 l 1,10,-1
 8 48 l 1,11,-1
 8 8 l 1,0,-1
0 -8 m 1,12,-1
 0 56 l 1,13,-1
 64 56 l 1,14,-1
 64 -8 l 1,15,-1
 0 -8 l 1,12,-1
EndSplineSet
EndChar

StartChar: uniE256
Encoding: 57942 57942 654
Width: 64
Flags: MW
LayerCount: 2
Fore
SplineSet
8 16 m 1,0,-1
 16 16 l 1,1,-1
 16 8 l 1,2,-1
 24 8 l 1,3,-1
 24 0 l 1,4,-1
 40 0 l 1,5,-1
 40 8 l 1,6,-1
 48 8 l 1,7,-1
 48 16 l 1,8,-1
 56 16 l 1,9,-1
 56 48 l 1,10,-1
 40 48 l 1,11,-1
 40 16 l 1,12,-1
 24 16 l 1,13,-1
 24 48 l 1,14,-1
 8 48 l 1,15,-1
 8 16 l 1,0,-1
0 -8 m 1,16,-1
 0 56 l 1,17,-1
 64 56 l 1,18,-1
 64 -8 l 1,19,-1
 0 -8 l 1,16,-1
EndSplineSet
EndChar

StartChar: uniE257
Encoding: 57943 57943 655
Width: 64
Flags: MW
LayerCount: 2
Fore
SplineSet
0 -8 m 1,0,-1
 0 56 l 1,1,-1
 64 56 l 1,2,-1
 64 48 l 1,3,-1
 48 48 l 1,4,-1
 48 16 l 1,5,-1
 40 16 l 1,6,-1
 40 32 l 1,7,-1
 32 32 l 1,8,-1
 32 16 l 1,9,-1
 24 16 l 1,10,-1
 24 48 l 1,11,-1
 8 48 l 1,12,-1
 8 8 l 1,13,-1
 16 8 l 1,14,-1
 16 0 l 1,15,-1
 32 0 l 1,16,-1
 32 8 l 1,17,-1
 40 8 l 1,18,-1
 40 0 l 1,19,-1
 56 0 l 1,20,-1
 56 8 l 1,21,-1
 64 8 l 1,22,-1
 64 -8 l 1,23,-1
 0 -8 l 1,0,-1
EndSplineSet
EndChar

StartChar: uniE258
Encoding: 57944 57944 656
Width: 64
Flags: MW
LayerCount: 2
Fore
SplineSet
8 0 m 1,0,-1
 24 0 l 1,1,-1
 24 16 l 1,2,-1
 40 16 l 1,3,-1
 40 0 l 1,4,-1
 56 0 l 1,5,-1
 56 16 l 1,6,-1
 48 16 l 1,7,-1
 48 32 l 1,8,-1
 56 32 l 1,9,-1
 56 48 l 1,10,-1
 40 48 l 1,11,-1
 40 32 l 1,12,-1
 24 32 l 1,13,-1
 24 48 l 1,14,-1
 8 48 l 1,15,-1
 8 32 l 1,16,-1
 16 32 l 1,17,-1
 16 16 l 1,18,-1
 8 16 l 1,19,-1
 8 0 l 1,0,-1
0 -8 m 1,20,-1
 0 56 l 1,21,-1
 64 56 l 1,22,-1
 64 -8 l 1,23,-1
 0 -8 l 1,20,-1
EndSplineSet
EndChar

StartChar: uniE259
Encoding: 57945 57945 657
Width: 64
Flags: MW
LayerCount: 2
Fore
SplineSet
8 32 m 1,0,-1
 16 32 l 1,1,-1
 16 24 l 1,2,-1
 24 24 l 1,3,-1
 24 0 l 1,4,-1
 40 0 l 1,5,-1
 40 24 l 1,6,-1
 48 24 l 1,7,-1
 48 32 l 1,8,-1
 56 32 l 1,9,-1
 56 48 l 1,10,-1
 40 48 l 1,11,-1
 40 32 l 1,12,-1
 24 32 l 1,13,-1
 24 48 l 1,14,-1
 8 48 l 1,15,-1
 8 32 l 1,0,-1
0 -8 m 1,16,-1
 0 56 l 1,17,-1
 64 56 l 1,18,-1
 64 -8 l 1,19,-1
 0 -8 l 1,16,-1
EndSplineSet
EndChar

StartChar: uniE25A
Encoding: 57946 57946 658
Width: 64
Flags: MW
LayerCount: 2
Fore
SplineSet
8 0 m 1,0,-1
 56 0 l 1,1,-1
 56 8 l 1,2,-1
 24 8 l 1,3,-1
 24 16 l 1,4,-1
 32 16 l 1,5,-1
 32 24 l 1,6,-1
 40 24 l 1,7,-1
 40 32 l 1,8,-1
 48 32 l 1,9,-1
 48 40 l 1,10,-1
 56 40 l 1,11,-1
 56 48 l 1,12,-1
 8 48 l 1,13,-1
 8 40 l 1,14,-1
 32 40 l 1,15,-1
 32 32 l 1,16,-1
 24 32 l 1,17,-1
 24 24 l 1,18,-1
 16 24 l 1,19,-1
 16 16 l 1,20,-1
 8 16 l 1,21,-1
 8 0 l 1,0,-1
0 -8 m 1,22,-1
 0 56 l 1,23,-1
 64 56 l 1,24,-1
 64 -8 l 1,25,-1
 0 -8 l 1,22,-1
EndSplineSet
EndChar

StartChar: uniE25B
Encoding: 57947 57947 659
Width: 64
Flags: MW
LayerCount: 2
Fore
SplineSet
16 0 m 1,0,-1
 48 0 l 1,1,-1
 48 8 l 1,2,-1
 32 8 l 1,3,-1
 32 40 l 1,4,-1
 48 40 l 1,5,-1
 48 48 l 1,6,-1
 16 48 l 1,7,-1
 16 0 l 1,0,-1
0 -8 m 1,8,-1
 0 56 l 1,9,-1
 64 56 l 1,10,-1
 64 -8 l 1,11,-1
 0 -8 l 1,8,-1
EndSplineSet
EndChar

StartChar: uniE25C
Encoding: 57948 57948 660
Width: 64
Flags: MW
LayerCount: 2
Fore
SplineSet
48 32 m 1,0,-1
 56 32 l 1,1,-1
 56 40 l 1,2,-1
 48 40 l 1,3,-1
 48 32 l 1,0,-1
8 0 m 1,4,-1
 56 0 l 1,5,-1
 56 8 l 1,6,-1
 32 8 l 1,7,-1
 32 16 l 1,8,-1
 40 16 l 1,9,-1
 40 24 l 1,10,-1
 32 24 l 1,11,-1
 32 40 l 1,12,-1
 48 40 l 1,13,-1
 48 48 l 1,14,-1
 24 48 l 1,15,-1
 24 40 l 1,16,-1
 16 40 l 1,17,-1
 16 24 l 1,18,-1
 8 24 l 1,19,-1
 8 16 l 1,20,-1
 16 16 l 1,21,-1
 16 8 l 1,22,-1
 8 8 l 1,23,-1
 8 0 l 1,4,-1
0 -8 m 1,24,-1
 0 56 l 1,25,-1
 64 56 l 1,26,-1
 64 -8 l 1,27,-1
 0 -8 l 1,24,-1
EndSplineSet
EndChar

StartChar: uniE25D
Encoding: 57949 57949 661
Width: 64
Flags: MW
LayerCount: 2
Fore
SplineSet
16 0 m 1,0,-1
 48 0 l 1,1,-1
 48 48 l 1,2,-1
 16 48 l 1,3,-1
 16 40 l 1,4,-1
 32 40 l 1,5,-1
 32 8 l 1,6,-1
 16 8 l 1,7,-1
 16 0 l 1,0,-1
0 -8 m 1,8,-1
 0 56 l 1,9,-1
 64 56 l 1,10,-1
 64 -8 l 1,11,-1
 0 -8 l 1,8,-1
EndSplineSet
EndChar

StartChar: uniE25E
Encoding: 57950 57950 662
Width: 64
Flags: MW
LayerCount: 2
Fore
SplineSet
8 24 m 1,0,-1
 24 24 l 1,1,-1
 24 0 l 1,2,-1
 40 0 l 1,3,-1
 40 24 l 1,4,-1
 56 24 l 1,5,-1
 56 32 l 1,6,-1
 48 32 l 1,7,-1
 48 40 l 1,8,-1
 40 40 l 1,9,-1
 40 48 l 1,10,-1
 24 48 l 1,11,-1
 24 40 l 1,12,-1
 16 40 l 1,13,-1
 16 32 l 1,14,-1
 8 32 l 1,15,-1
 8 24 l 1,0,-1
0 -8 m 1,16,-1
 0 56 l 1,17,-1
 64 56 l 1,18,-1
 64 -8 l 1,19,-1
 0 -8 l 1,16,-1
EndSplineSet
EndChar

StartChar: uniE25F
Encoding: 57951 57951 663
Width: 64
VWidth: 128
Flags: MW
LayerCount: 2
Fore
SplineSet
8 16 m 1,0,-1
 16 16 l 1,1,-1
 16 8 l 1,2,-1
 24 8 l 1,3,-1
 24 0 l 1,4,-1
 32 0 l 1,5,-1
 32 16 l 1,6,-1
 56 16 l 1,7,-1
 56 32 l 1,8,-1
 32 32 l 1,9,-1
 32 48 l 1,10,-1
 24 48 l 1,11,-1
 24 40 l 1,12,-1
 16 40 l 1,13,-1
 16 32 l 1,14,-1
 8 32 l 1,15,-1
 8 16 l 1,0,-1
0 -8 m 1,16,-1
 0 56 l 1,17,-1
 64 56 l 1,18,-1
 64 -8 l 1,19,-1
 0 -8 l 1,16,-1
EndSplineSet
EndChar

StartChar: uniE261
Encoding: 57953 57953 665
Width: 64
Flags: MW
LayerCount: 2
Fore
SplineSet
8 16 m 1,0,-1
 24 16 l 1,1,-1
 24 8 l 1,2,-1
 16 8 l 1,3,-1
 16 0 l 1,4,-1
 48 0 l 1,5,-1
 48 8 l 1,6,-1
 40 8 l 1,7,-1
 40 16 l 1,8,-1
 56 16 l 1,9,-1
 56 32 l 1,10,-1
 48 32 l 1,11,-1
 48 40 l 1,12,-1
 40 40 l 1,13,-1
 40 48 l 1,14,-1
 24 48 l 1,15,-1
 24 40 l 1,16,-1
 16 40 l 1,17,-1
 16 32 l 1,18,-1
 8 32 l 1,19,-1
 8 16 l 1,0,-1
0 -8 m 1,20,-1
 0 56 l 1,21,-1
 64 56 l 1,22,-1
 64 -8 l 1,23,-1
 0 -8 l 1,20,-1
EndSplineSet
EndChar

StartChar: uniE269
Encoding: 57961 57961 673
Width: 64
Flags: MW
LayerCount: 2
Fore
SplineSet
0 32 m 1,0,-1
 0 56 l 1,1,-1
 64 56 l 1,2,-1
 64 -8 l 1,3,-1
 40 -8 l 1,4,-1
 40 16 l 1,5,-1
 32 16 l 1,6,-1
 32 24 l 1,7,-1
 24 24 l 1,8,-1
 24 32 l 1,9,-1
 0 32 l 1,0,-1
0 -8 m 1,10,-1
 0 16 l 1,11,-1
 16 16 l 1,12,-1
 16 8 l 1,13,-1
 24 8 l 1,14,-1
 24 -8 l 1,15,-1
 0 -8 l 1,10,-1
EndSplineSet
EndChar

StartChar: uniE26A
Encoding: 57962 57962 674
Width: 64
Flags: MW
LayerCount: 2
Fore
SplineSet
40 40 m 1,0,-1
 40 56 l 1,1,-1
 64 56 l 1,2,-1
 64 32 l 1,3,-1
 48 32 l 1,4,-1
 48 40 l 1,5,-1
 40 40 l 1,0,-1
0 -8 m 1,6,-1
 0 56 l 1,7,-1
 24 56 l 1,8,-1
 24 32 l 1,9,-1
 32 32 l 1,10,-1
 32 24 l 1,11,-1
 40 24 l 1,12,-1
 40 16 l 1,13,-1
 64 16 l 1,14,-1
 64 -8 l 1,15,-1
 0 -8 l 1,6,-1
EndSplineSet
EndChar

StartChar: uniE26B
Encoding: 57963 57963 675
Width: 64
Flags: MW
LayerCount: 2
Fore
SplineSet
0 32 m 1,0,-1
 0 56 l 1,1,-1
 24 56 l 1,2,-1
 24 40 l 1,3,-1
 16 40 l 1,4,-1
 16 32 l 1,5,-1
 0 32 l 1,0,-1
0 -8 m 1,6,-1
 0 16 l 1,7,-1
 24 16 l 1,8,-1
 24 24 l 1,9,-1
 32 24 l 1,10,-1
 32 32 l 1,11,-1
 40 32 l 1,12,-1
 40 56 l 1,13,-1
 64 56 l 1,14,-1
 64 -8 l 1,15,-1
 0 -8 l 1,6,-1
EndSplineSet
EndChar

StartChar: uniE26C
Encoding: 57964 57964 676
Width: 64
Flags: MW
LayerCount: 2
Fore
SplineSet
16 8 m 1,0,-1
 16 56 l 1,1,-1
 64 56 l 1,2,-1
 64 8 l 1,3,-1
 16 8 l 1,0,-1
EndSplineSet
EndChar

StartChar: uniE26D
Encoding: 57965 57965 677
Width: 64
Flags: MW
LayerCount: 2
Fore
SplineSet
16 48 m 1,0,-1
 16 56 l 1,1,-1
 64 56 l 1,2,-1
 64 8 l 1,3,-1
 56 8 l 1,4,-1
 56 16 l 1,5,-1
 48 16 l 1,6,-1
 48 24 l 1,7,-1
 40 24 l 1,8,-1
 40 32 l 1,9,-1
 32 32 l 1,10,-1
 32 40 l 1,11,-1
 24 40 l 1,12,-1
 24 48 l 1,13,-1
 16 48 l 1,0,-1
0 -8 m 1,14,-1
 0 40 l 1,15,-1
 8 40 l 1,16,-1
 8 32 l 1,17,-1
 16 32 l 1,18,-1
 16 24 l 1,19,-1
 24 24 l 1,20,-1
 24 16 l 1,21,-1
 32 16 l 1,22,-1
 32 8 l 1,23,-1
 40 8 l 1,24,-1
 40 0 l 1,25,-1
 48 0 l 1,26,-1
 48 -8 l 1,27,-1
 0 -8 l 1,14,-1
EndSplineSet
EndChar

StartChar: uniE26E
Encoding: 57966 57966 678
Width: 64
Flags: MW
LayerCount: 2
Fore
SplineSet
16 0 m 1,0,-1
 24 0 l 1,1,-1
 24 8 l 1,2,-1
 32 8 l 1,3,-1
 32 16 l 1,4,-1
 40 16 l 1,5,-1
 40 24 l 1,6,-1
 48 24 l 1,7,-1
 48 32 l 1,8,-1
 56 32 l 1,9,-1
 56 40 l 1,10,-1
 64 40 l 1,11,-1
 64 -8 l 1,12,-1
 16 -8 l 1,13,-1
 16 0 l 1,0,-1
0 8 m 1,14,-1
 0 56 l 1,15,-1
 48 56 l 1,16,-1
 48 48 l 1,17,-1
 40 48 l 1,18,-1
 40 40 l 1,19,-1
 32 40 l 1,20,-1
 32 32 l 1,21,-1
 24 32 l 1,22,-1
 24 24 l 1,23,-1
 16 24 l 1,24,-1
 16 16 l 1,25,-1
 8 16 l 1,26,-1
 8 8 l 1,27,-1
 0 8 l 1,14,-1
EndSplineSet
EndChar

StartChar: uniE273
Encoding: 57971 57971 683
Width: 64
Flags: MW
LayerCount: 2
Fore
SplineSet
0 -8 m 1,0,-1
 0 56 l 1,1,-1
 64 56 l 1,2,-1
 64 40 l 1,3,-1
 56 40 l 1,4,-1
 56 48 l 1,5,-1
 40 48 l 1,6,-1
 40 40 l 1,7,-1
 32 40 l 1,8,-1
 32 48 l 1,9,-1
 16 48 l 1,10,-1
 16 40 l 1,11,-1
 8 40 l 1,12,-1
 8 24 l 1,13,-1
 16 24 l 1,14,-1
 16 16 l 1,15,-1
 24 16 l 1,16,-1
 24 8 l 1,17,-1
 32 8 l 1,18,-1
 32 0 l 1,19,-1
 40 0 l 1,20,-1
 40 8 l 1,21,-1
 48 8 l 1,22,-1
 48 16 l 1,23,-1
 56 16 l 1,24,-1
 56 24 l 1,25,-1
 64 24 l 1,26,-1
 64 -8 l 1,27,-1
 0 -8 l 1,0,-1
EndSplineSet
EndChar

StartChar: uniE274
Encoding: 57972 57972 684
Width: 64
Flags: MW
LayerCount: 2
Fore
SplineSet
0 -8 m 1
 0 56 l 1
 8 56 l 1
 8 -8 l 1
 0 -8 l 1
EndSplineSet
Refer: 177 9611 S 1 0 0 1 24 0 2
EndChar

StartChar: uniE275
Encoding: 57973 57973 685
Width: 64
Flags: MW
LayerCount: 2
Fore
SplineSet
40 -8 m 1,0,-1
 40 8 l 1,1,-1
 48 8 l 1,2,-1
 48 16 l 1,3,-1
 64 16 l 1,4,-1
 64 -8 l 1,5,-1
 40 -8 l 1,0,-1
0 -8 m 1,6,-1
 0 56 l 1,7,-1
 64 56 l 1,8,-1
 64 32 l 1,9,-1
 40 32 l 1,10,-1
 40 24 l 1,11,-1
 32 24 l 1,12,-1
 32 16 l 1,13,-1
 24 16 l 1,14,-1
 24 -8 l 1,15,-1
 0 -8 l 1,6,-1
EndSplineSet
EndChar

StartChar: uniE276
Encoding: 57974 57974 686
Width: 64
Flags: MW
LayerCount: 2
Fore
SplineSet
48 16 m 1,0,-1
 48 32 l 1,1,-1
 56 32 l 1,2,-1
 56 40 l 1,3,-1
 64 40 l 1,4,-1
 64 8 l 1,5,-1
 56 8 l 1,6,-1
 56 16 l 1,7,-1
 48 16 l 1,0,-1
16 48 m 1,8,-1
 16 56 l 1,9,-1
 48 56 l 1,10,-1
 48 48 l 1,11,-1
 40 48 l 1,12,-1
 40 40 l 1,13,-1
 24 40 l 1,14,-1
 24 48 l 1,15,-1
 16 48 l 1,8,-1
16 0 m 1,16,-1
 24 0 l 1,17,-1
 24 8 l 1,18,-1
 40 8 l 1,19,-1
 40 0 l 1,20,-1
 48 0 l 1,21,-1
 48 -8 l 1,22,-1
 16 -8 l 1,23,-1
 16 0 l 1,16,-1
0 8 m 1,24,-1
 0 40 l 1,25,-1
 8 40 l 1,26,-1
 8 32 l 1,27,-1
 16 32 l 1,28,-1
 16 16 l 1,29,-1
 8 16 l 1,30,-1
 8 8 l 1,31,-1
 0 8 l 1,24,-1
EndSplineSet
EndChar

StartChar: uniE278
Encoding: 57976 57976 688
Width: 64
VWidth: 128
Flags: MW
LayerCount: 2
Fore
SplineSet
32 24 m 1
 32 32 l 1
 40 32 l 1
 40 24 l 1
 32 24 l 1
32 24 m 1
 32 16 l 1
 24 16 l 1
 24 24 l 1
 32 24 l 1
40 32 m 1
 40 48 l 1
 24 48 l 1
 24 32 l 1
 8 32 l 1
 8 16 l 1
 24 16 l 1
 24 8 l 1
 16 8 l 1
 16 0 l 1
 48 0 l 1
 48 8 l 1
 40 8 l 1
 40 16 l 1
 56 16 l 1
 56 32 l 1
 40 32 l 1
EndSplineSet
Refer: 120 219 S 1 0 0 1 0 0 2
EndChar

StartChar: uniE279
Encoding: 57977 57977 689
Width: 64
Flags: MW
LayerCount: 2
Fore
SplineSet
56 -8 m 1
 56 56 l 1
 64 56 l 1
 64 -8 l 1
 56 -8 l 1
EndSplineSet
Refer: 177 9611 S 1 0 0 1 0 0 2
EndChar

StartChar: uniE27A
Encoding: 57978 57978 690
Width: 64
Flags: MW
LayerCount: 2
Fore
SplineSet
8 16 m 1,0,-1
 16 16 l 1,1,-1
 16 8 l 1,2,-1
 24 8 l 1,3,-1
 24 0 l 1,4,-1
 40 0 l 1,5,-1
 40 8 l 1,6,-1
 48 8 l 1,7,-1
 48 16 l 1,8,-1
 56 16 l 1,9,-1
 56 32 l 1,10,-1
 48 32 l 1,11,-1
 48 40 l 1,12,-1
 40 40 l 1,13,-1
 40 48 l 1,14,-1
 24 48 l 1,15,-1
 24 40 l 1,16,-1
 16 40 l 1,17,-1
 16 32 l 1,18,-1
 8 32 l 1,19,-1
 8 16 l 1,0,-1
0 -8 m 1,20,-1
 0 56 l 1,21,-1
 64 56 l 1,22,-1
 64 -8 l 1,23,-1
 0 -8 l 1,20,-1
EndSplineSet
EndChar

StartChar: uniE27B
Encoding: 57979 57979 691
Width: 64
Flags: MW
LayerCount: 2
Fore
SplineSet
40 32 m 1,0,-1
 40 56 l 1,1,-1
 64 56 l 1,2,-1
 64 32 l 1,3,-1
 40 32 l 1,0,-1
40 -8 m 1,4,-1
 40 16 l 1,5,-1
 64 16 l 1,6,-1
 64 -8 l 1,7,-1
 40 -8 l 1,4,-1
0 32 m 1,8,-1
 0 56 l 1,9,-1
 24 56 l 1,10,-1
 24 32 l 1,11,-1
 0 32 l 1,8,-1
0 -8 m 1,12,-1
 0 16 l 1,13,-1
 24 16 l 1,14,-1
 24 -8 l 1,15,-1
 0 -8 l 1,12,-1
EndSplineSet
EndChar

StartChar: uniE27C
Encoding: 57980 57980 692
Width: 64
Flags: MW
LayerCount: 2
Fore
SplineSet
0 -8 m 1
 0 8 l 1
 16 8 l 1
 16 24 l 1
 32 24 l 1
 32 40 l 1
 16 40 l 1
 16 56 l 1
 64 56 l 1
 64 -8 l 1
 32 -8 l 1
 32 8 l 1
 16 8 l 1
 16 -8 l 1
 0 -8 l 1
EndSplineSet
Refer: 19 46 S 1 0 0 1 -24 24 2
EndChar

StartChar: uniE27E
Encoding: 57982 57982 694
Width: 64
VWidth: 128
Flags: MW
LayerCount: 2
Fore
SplineSet
0 -8 m 1,0,-1
 0 56 l 1,1,-1
 64 56 l 1,2,-1
 64 40 l 1,3,-1
 8 40 l 1,4,-1
 8 32 l 1,5,-1
 16 32 l 1,6,-1
 16 0 l 1,7,-1
 32 0 l 1,8,-1
 32 32 l 1,9,-1
 40 32 l 1,10,-1
 40 0 l 1,11,-1
 56 0 l 1,12,-1
 56 32 l 1,13,-1
 64 32 l 1,14,-1
 64 -8 l 1,15,-1
 0 -8 l 1,0,-1
EndSplineSet
EndChar

StartChar: uniE2A0
Encoding: 58016 58016 696
Width: 64
VWidth: 128
Flags: W
LayerCount: 2
UndoRedoHistory
Layer: 1
Undoes
UndoOperation
Index: 0
Type: 3
WasModified: 1
WasOrder2: 1
Layer: 2
EndUndoOperation
EndUndoes
Redoes
EndRedoes
EndUndoRedoHistory
Fore
SplineSet
0 -8 m 1,0,-1
 0 56 l 1,1,-1
 64 56 l 1,2,-1
 64 -8 l 1,3,-1
 0 -8 l 1,0,-1
EndSplineSet
EndChar

StartChar: uniE2A1
Encoding: 58017 58017 697
Width: 64
Flags: W
LayerCount: 2
UndoRedoHistory
Layer: 1
Undoes
UndoOperation
Index: 0
Type: 3
WasModified: 1
WasOrder2: 1
Layer: 2
EndUndoOperation
EndUndoes
Redoes
EndRedoes
EndUndoRedoHistory
Fore
SplineSet
0 -8 m 1,0,-1
 0 56 l 1,1,-1
 32 56 l 1,2,-1
 32 -8 l 1,3,-1
 0 -8 l 1,0,-1
EndSplineSet
EndChar

StartChar: uniE2A2
Encoding: 58018 58018 698
Width: 64
Flags: W
LayerCount: 2
UndoRedoHistory
Layer: 1
Undoes
UndoOperation
Index: 0
Type: 3
WasModified: 1
WasOrder2: 1
Layer: 2
EndUndoOperation
EndUndoes
Redoes
EndRedoes
EndUndoRedoHistory
Fore
SplineSet
0 -8 m 1,0,-1
 0 24 l 1,1,-1
 64 24 l 1,2,-1
 64 -8 l 1,3,-1
 0 -8 l 1,0,-1
EndSplineSet
EndChar

StartChar: uniE2A3
Encoding: 58019 58019 699
Width: 64
Flags: W
LayerCount: 2
UndoRedoHistory
Layer: 1
Undoes
UndoOperation
Index: 0
Type: 3
WasModified: 1
WasOrder2: 1
Layer: 2
EndUndoOperation
EndUndoes
Redoes
EndRedoes
EndUndoRedoHistory
Fore
SplineSet
0 48 m 1,0,-1
 0 56 l 1,1,-1
 64 56 l 1,2,-1
 64 48 l 1,3,-1
 0 48 l 1,0,-1
EndSplineSet
EndChar

StartChar: uniE2A8
Encoding: 58024 58024 704
Width: 64
Flags: W
LayerCount: 2
UndoRedoHistory
Layer: 1
Undoes
UndoOperation
Index: 0
Type: 3
WasModified: 1
WasOrder2: 1
Layer: 2
EndUndoOperation
EndUndoes
Redoes
EndRedoes
EndUndoRedoHistory
Fore
SplineSet
32 8 m 1,0,-1
 32 24 l 1,1,-1
 48 24 l 1,2,-1
 48 8 l 1,3,-1
 32 8 l 1,0,-1
16 8 m 1,4,-1
 0 8 l 1,5,-1
 0 24 l 1,6,-1
 16 24 l 1,7,-1
 16 8 l 1,4,-1
32 8 m 1,8,-1
 32 -8 l 1,9,-1
 16 -8 l 1,10,-1
 16 8 l 1,11,-1
 32 8 l 1,8,-1
48 8 m 1,12,-1
 64 8 l 1,13,-1
 64 -8 l 1,14,-1
 48 -8 l 1,15,-1
 48 8 l 1,12,-1
EndSplineSet
EndChar

StartChar: uniE2AB
Encoding: 58027 58027 707
Width: 64
Flags: W
LayerCount: 2
UndoRedoHistory
Layer: 1
Undoes
UndoOperation
Index: 0
Type: 3
WasModified: 1
WasOrder2: 1
Layer: 2
EndUndoOperation
EndUndoes
Redoes
EndRedoes
EndUndoRedoHistory
Fore
SplineSet
24 -8 m 1,0,-1
 24 56 l 1,1,-1
 40 56 l 1,2,-1
 40 32 l 1,3,-1
 64 32 l 1,4,-1
 64 16 l 1,5,-1
 40 16 l 1,6,-1
 40 -8 l 1,7,-1
 24 -8 l 1,0,-1
EndSplineSet
EndChar

StartChar: uniE2AC
Encoding: 58028 58028 708
Width: 64
Flags: W
LayerCount: 2
UndoRedoHistory
Layer: 1
Undoes
UndoOperation
Index: 0
Type: 3
WasModified: 1
WasOrder2: 1
Layer: 2
EndUndoOperation
EndUndoes
Redoes
EndRedoes
EndUndoRedoHistory
Fore
SplineSet
32 -8 m 1,0,-1
 32 24 l 1,1,-1
 64 24 l 1,2,-1
 64 -8 l 1,3,-1
 32 -8 l 1,0,-1
EndSplineSet
EndChar

StartChar: uniE2AD
Encoding: 58029 58029 709
Width: 64
Flags: W
LayerCount: 2
UndoRedoHistory
Layer: 1
Undoes
UndoOperation
Index: 0
Type: 3
WasModified: 1
WasOrder2: 1
Layer: 2
EndUndoOperation
EndUndoes
Redoes
EndRedoes
EndUndoRedoHistory
Fore
SplineSet
24 16 m 1,0,-1
 24 56 l 1,1,-1
 40 56 l 1,2,-1
 40 32 l 1,3,-1
 64 32 l 1,4,-1
 64 16 l 1,5,-1
 24 16 l 1,0,-1
EndSplineSet
EndChar

StartChar: uniE2B1
Encoding: 58033 58033 713
Width: 64
Flags: W
LayerCount: 2
UndoRedoHistory
Layer: 1
Undoes
UndoOperation
Index: 0
Type: 3
WasModified: 1
WasOrder2: 1
Layer: 2
EndUndoOperation
EndUndoes
Redoes
EndRedoes
EndUndoRedoHistory
Fore
SplineSet
64 16 m 1,0,-1
 0 16 l 1,1,-1
 0 32 l 1,2,-1
 24 32 l 1,3,-1
 24 56 l 1,4,-1
 40 56 l 1,5,-1
 40 32 l 1,6,-1
 64 32 l 1,7,-1
 64 16 l 1,0,-1
EndSplineSet
EndChar

StartChar: uniE2B5
Encoding: 58037 58037 717
Width: 64
Flags: W
LayerCount: 2
UndoRedoHistory
Layer: 1
Undoes
UndoOperation
Index: 0
Type: 3
WasModified: 1
WasOrder2: 1
Layer: 2
EndUndoOperation
EndUndoes
Redoes
EndRedoes
EndUndoRedoHistory
Fore
SplineSet
0 -8 m 1,0,-1
 0 56 l 1,1,-1
 24 56 l 1,2,-1
 24 -8 l 1,3,-1
 0 -8 l 1,0,-1
EndSplineSet
EndChar

StartChar: uniE2B8
Encoding: 58040 58040 720
Width: 64
Flags: W
LayerCount: 2
UndoRedoHistory
Layer: 1
Undoes
UndoOperation
Index: 0
Type: 3
WasModified: 1
WasOrder2: 1
Layer: 2
EndUndoOperation
EndUndoes
Redoes
EndRedoes
EndUndoRedoHistory
Fore
SplineSet
0 32 m 1,0,-1
 0 56 l 1,1,-1
 64 56 l 1,2,-1
 64 32 l 1,3,-1
 0 32 l 1,0,-1
EndSplineSet
EndChar

StartChar: uniE2B9
Encoding: 58041 58041 721
Width: 64
Flags: W
LayerCount: 2
UndoRedoHistory
Layer: 1
Undoes
UndoOperation
Index: 0
Type: 3
WasModified: 1
WasOrder2: 1
Layer: 2
EndUndoOperation
EndUndoes
Redoes
EndRedoes
EndUndoRedoHistory
Fore
SplineSet
0 -8 m 1,0,-1
 0 16 l 1,1,-1
 64 16 l 1,2,-1
 64 -8 l 1,3,-1
 0 -8 l 1,0,-1
EndSplineSet
EndChar

StartChar: uniE2C0
Encoding: 58048 58048 728
Width: 64
Flags: W
LayerCount: 2
UndoRedoHistory
Layer: 1
Undoes
UndoOperation
Index: 0
Type: 3
WasModified: 1
WasOrder2: 1
Layer: 2
EndUndoOperation
EndUndoes
Redoes
EndRedoes
EndUndoRedoHistory
Fore
SplineSet
0 16 m 1,0,-1
 0 32 l 1,1,-1
 64 32 l 1,2,-1
 64 16 l 1,3,-1
 0 16 l 1,0,-1
EndSplineSet
EndChar

StartChar: uniE2C1
Encoding: 58049 58049 729
Width: 64
Flags: W
LayerCount: 2
UndoRedoHistory
Layer: 1
Undoes
UndoOperation
Index: 0
Type: 3
WasModified: 1
WasOrder2: 1
Layer: 2
EndUndoOperation
EndUndoes
Redoes
EndRedoes
EndUndoRedoHistory
Fore
SplineSet
16 0 m 1,0,-1
 16 8 l 1,1,-1
 24 8 l 1,2,-1
 24 16 l 1,3,-1
 8 16 l 1,4,-1
 8 32 l 1,5,-1
 16 32 l 1,6,-1
 16 40 l 1,7,-1
 24 40 l 1,8,-1
 24 48 l 1,9,-1
 32 48 l 1,10,-1
 32 56 l 1,11,-1
 40 56 l 1,12,-1
 40 48 l 1,13,-1
 48 48 l 1,14,-1
 48 40 l 1,15,-1
 56 40 l 1,16,-1
 56 32 l 1,17,-1
 64 32 l 1,18,-1
 64 16 l 1,19,-1
 48 16 l 1,20,-1
 48 8 l 1,21,-1
 56 8 l 1,22,-1
 56 0 l 1,23,-1
 16 0 l 1,0,-1
EndSplineSet
EndChar

StartChar: uniE2C2
Encoding: 58050 58050 730
Width: 64
Flags: W
LayerCount: 2
UndoRedoHistory
Layer: 1
Undoes
UndoOperation
Index: 0
Type: 3
WasModified: 1
WasOrder2: 1
Layer: 2
EndUndoOperation
EndUndoes
Redoes
EndRedoes
EndUndoRedoHistory
Fore
SplineSet
24 -8 m 1,0,-1
 24 56 l 1,1,-1
 40 56 l 1,2,-1
 40 -8 l 1,3,-1
 24 -8 l 1,0,-1
EndSplineSet
EndChar

StartChar: uniE2C3
Encoding: 58051 58051 731
Width: 64
Flags: W
LayerCount: 2
UndoRedoHistory
Layer: 1
Undoes
UndoOperation
Index: 0
Type: 3
WasModified: 1
WasOrder2: 1
Layer: 2
EndUndoOperation
EndUndoes
Redoes
EndRedoes
EndUndoRedoHistory
Fore
SplineSet
0 16 m 1,0,-1
 0 32 l 1,1,-1
 64 32 l 1,2,-1
 64 16 l 1,3,-1
 0 16 l 1,0,-1
EndSplineSet
EndChar

StartChar: uniE2C9
Encoding: 58057 58057 737
Width: 64
Flags: W
LayerCount: 2
UndoRedoHistory
Layer: 1
Undoes
UndoOperation
Index: 0
Type: 3
WasModified: 1
WasOrder2: 1
Layer: 2
EndUndoOperation
EndUndoes
Redoes
EndRedoes
EndUndoRedoHistory
Fore
SplineSet
24 -8 m 1,0,-1
 24 8 l 1,1,-1
 16 8 l 1,2,-1
 16 16 l 1,3,-1
 0 16 l 1,4,-1
 0 32 l 1,5,-1
 24 32 l 1,6,-1
 24 24 l 1,7,-1
 32 24 l 1,8,-1
 32 16 l 1,9,-1
 40 16 l 1,10,-1
 40 -8 l 1,11,-1
 24 -8 l 1,0,-1
EndSplineSet
EndChar

StartChar: uniE2CC
Encoding: 58060 58060 740
Width: 64
Flags: W
LayerCount: 2
UndoRedoHistory
Layer: 1
Undoes
UndoOperation
Index: 0
Type: 3
WasModified: 1
WasOrder2: 1
Layer: 2
EndUndoOperation
EndUndoes
Redoes
EndRedoes
EndUndoRedoHistory
Fore
SplineSet
0 -8 m 1,0,-1
 0 56 l 1,1,-1
 16 56 l 1,2,-1
 16 8 l 1,3,-1
 64 8 l 1,4,-1
 64 -8 l 1,5,-1
 0 -8 l 1,0,-1
EndSplineSet
EndChar

StartChar: uniE2CD
Encoding: 58061 58061 741
Width: 64
Flags: W
LayerCount: 2
UndoRedoHistory
Layer: 1
Undoes
UndoOperation
Index: 0
Type: 3
WasModified: 1
WasOrder2: 1
Layer: 2
EndUndoOperation
EndUndoes
Redoes
EndRedoes
EndUndoRedoHistory
Fore
SplineSet
48 -8 m 1,0,-1
 48 0 l 1,1,-1
 40 0 l 1,2,-1
 40 8 l 1,3,-1
 32 8 l 1,4,-1
 32 16 l 1,5,-1
 24 16 l 1,6,-1
 24 24 l 1,7,-1
 16 24 l 1,8,-1
 16 32 l 1,9,-1
 8 32 l 1,10,-1
 8 40 l 1,11,-1
 0 40 l 1,12,-1
 0 56 l 1,13,-1
 16 56 l 1,14,-1
 16 48 l 1,15,-1
 24 48 l 1,16,-1
 24 40 l 1,17,-1
 32 40 l 1,18,-1
 32 32 l 1,19,-1
 40 32 l 1,20,-1
 40 24 l 1,21,-1
 48 24 l 1,22,-1
 48 16 l 1,23,-1
 56 16 l 1,24,-1
 56 8 l 1,25,-1
 64 8 l 1,26,-1
 64 -8 l 1,27,-1
 48 -8 l 1,0,-1
EndSplineSet
EndChar

StartChar: uniE2D1
Encoding: 58065 58065 745
Width: 64
Flags: W
LayerCount: 2
UndoRedoHistory
Layer: 1
Undoes
UndoOperation
Index: 0
Type: 3
WasModified: 1
WasOrder2: 1
Layer: 2
EndUndoOperation
EndUndoes
Redoes
EndRedoes
EndUndoRedoHistory
Fore
SplineSet
16 0 m 1,0,-1
 16 8 l 1,1,-1
 8 8 l 1,2,-1
 8 40 l 1,3,-1
 16 40 l 1,4,-1
 16 48 l 1,5,-1
 48 48 l 1,6,-1
 48 40 l 1,7,-1
 56 40 l 1,8,-1
 56 8 l 1,9,-1
 48 8 l 1,10,-1
 48 0 l 1,11,-1
 16 0 l 1,0,-1
EndSplineSet
EndChar

StartChar: uniE2D3
Encoding: 58067 58067 747
Width: 64
Flags: W
LayerCount: 2
UndoRedoHistory
Layer: 1
Undoes
UndoOperation
Index: 0
Type: 3
WasModified: 1
WasOrder2: 1
Layer: 2
EndUndoOperation
EndUndoes
Redoes
EndRedoes
EndUndoRedoHistory
Fore
SplineSet
32 0 m 1,0,-1
 32 8 l 1,1,-1
 24 8 l 1,2,-1
 24 16 l 1,3,-1
 16 16 l 1,4,-1
 16 24 l 1,5,-1
 8 24 l 1,6,-1
 8 48 l 1,7,-1
 16 48 l 1,8,-1
 16 56 l 1,9,-1
 32 56 l 1,10,-1
 32 48 l 1,11,-1
 40 48 l 1,12,-1
 40 56 l 1,13,-1
 56 56 l 1,14,-1
 56 48 l 1,15,-1
 64 48 l 1,16,-1
 64 24 l 1,17,-1
 56 24 l 1,18,-1
 56 16 l 1,19,-1
 48 16 l 1,20,-1
 48 8 l 1,21,-1
 40 8 l 1,22,-1
 40 0 l 1,23,-1
 32 0 l 1,0,-1
EndSplineSet
EndChar

StartChar: uniE2D6
Encoding: 58070 58070 750
Width: 64
Flags: W
LayerCount: 2
UndoRedoHistory
Layer: 1
Undoes
UndoOperation
Index: 0
Type: 3
WasModified: 1
WasOrder2: 1
Layer: 2
EndUndoOperation
EndUndoes
Redoes
EndRedoes
EndUndoRedoHistory
Fore
SplineSet
0 -8 m 1,0,-1
 0 8 l 1,1,-1
 8 8 l 1,2,-1
 8 16 l 1,3,-1
 16 16 l 1,4,-1
 16 32 l 1,5,-1
 8 32 l 1,6,-1
 8 40 l 1,7,-1
 0 40 l 1,8,-1
 0 56 l 1,9,-1
 16 56 l 1,10,-1
 16 48 l 1,11,-1
 24 48 l 1,12,-1
 24 40 l 1,13,-1
 40 40 l 1,14,-1
 40 48 l 1,15,-1
 48 48 l 1,16,-1
 48 56 l 1,17,-1
 64 56 l 1,18,-1
 64 40 l 1,19,-1
 56 40 l 1,20,-1
 56 32 l 1,21,-1
 48 32 l 1,22,-1
 48 16 l 1,23,-1
 56 16 l 1,24,-1
 56 8 l 1,25,-1
 64 8 l 1,26,-1
 64 -8 l 1,27,-1
 48 -8 l 1,28,-1
 48 0 l 1,29,-1
 40 0 l 1,30,-1
 40 8 l 1,31,-1
 24 8 l 1,32,-1
 24 0 l 1,33,-1
 16 0 l 1,34,-1
 16 -8 l 1,35,-1
 0 -8 l 1,0,-1
EndSplineSet
EndChar

StartChar: uniE2D7
Encoding: 58071 58071 751
Width: 64
Flags: W
LayerCount: 2
UndoRedoHistory
Layer: 1
Undoes
UndoOperation
Index: 0
Type: 3
WasModified: 1
WasOrder2: 1
Layer: 2
EndUndoOperation
EndUndoes
Redoes
EndRedoes
EndUndoRedoHistory
Fore
SplineSet
16 0 m 1,0,-1
 16 8 l 1,1,-1
 8 8 l 1,2,-1
 8 40 l 1,3,-1
 16 40 l 1,4,-1
 16 48 l 1,5,-1
 48 48 l 1,6,-1
 48 40 l 1,7,-1
 56 40 l 1,8,-1
 56 8 l 1,9,-1
 48 8 l 1,10,-1
 48 0 l 1,11,-1
 16 0 l 1,0,-1
24 16 m 1,12,-1
 40 16 l 1,13,-1
 40 32 l 1,14,-1
 24 32 l 1,15,-1
 24 16 l 1,12,-1
EndSplineSet
EndChar

StartChar: uniE2D8
Encoding: 58072 58072 752
Width: 64
VWidth: 128
Flags: W
LayerCount: 2
UndoRedoHistory
Layer: 1
Undoes
UndoOperation
Index: 0
Type: 3
WasModified: 1
WasOrder2: 1
Layer: 2
EndUndoOperation
EndUndoes
Redoes
EndRedoes
EndUndoRedoHistory
Fore
SplineSet
40 24 m 1,0,-1
 40 40 l 1,1,-1
 32 40 l 1,2,-1
 32 24 l 1,3,-1
 40 24 l 1,0,-1
16 0 m 1,4,-1
 16 8 l 1,5,-1
 24 8 l 1,6,-1
 24 24 l 1,7,-1
 8 24 l 1,8,-1
 8 40 l 1,9,-1
 24 40 l 1,10,-1
 24 56 l 1,11,-1
 48 56 l 1,12,-1
 48 40 l 1,13,-1
 64 40 l 1,14,-1
 64 24 l 1,15,-1
 48 24 l 1,16,-1
 48 8 l 1,17,-1
 56 8 l 1,18,-1
 56 0 l 1,19,-1
 16 0 l 1,4,-1
EndSplineSet
EndChar

StartChar: uniE2DA
Encoding: 58074 58074 754
Width: 64
Flags: W
LayerCount: 2
UndoRedoHistory
Layer: 1
Undoes
UndoOperation
Index: 0
Type: 3
WasModified: 1
WasOrder2: 1
Layer: 2
EndUndoOperation
EndUndoes
Redoes
EndRedoes
EndUndoRedoHistory
Fore
SplineSet
32 0 m 1,0,-1
 32 8 l 1,1,-1
 24 8 l 1,2,-1
 24 16 l 1,3,-1
 16 16 l 1,4,-1
 16 24 l 1,5,-1
 8 24 l 1,6,-1
 8 32 l 1,7,-1
 16 32 l 1,8,-1
 16 40 l 1,9,-1
 24 40 l 1,10,-1
 24 48 l 1,11,-1
 32 48 l 1,12,-1
 32 56 l 1,13,-1
 40 56 l 1,14,-1
 40 48 l 1,15,-1
 48 48 l 1,16,-1
 48 40 l 1,17,-1
 56 40 l 1,18,-1
 56 32 l 1,19,-1
 64 32 l 1,20,-1
 64 24 l 1,21,-1
 56 24 l 1,22,-1
 56 16 l 1,23,-1
 48 16 l 1,24,-1
 48 8 l 1,25,-1
 40 8 l 1,26,-1
 40 0 l 1,27,-1
 32 0 l 1,0,-1
EndSplineSet
EndChar

StartChar: uniE2DB
Encoding: 58075 58075 755
Width: 64
Flags: W
LayerCount: 2
UndoRedoHistory
Layer: 1
Undoes
UndoOperation
Index: 0
Type: 3
WasModified: 1
WasOrder2: 1
Layer: 2
EndUndoOperation
EndUndoes
Redoes
EndRedoes
EndUndoRedoHistory
Fore
SplineSet
24 -8 m 1,0,-1
 24 16 l 1,1,-1
 0 16 l 1,2,-1
 0 32 l 1,3,-1
 24 32 l 1,4,-1
 24 56 l 1,5,-1
 40 56 l 1,6,-1
 40 32 l 1,7,-1
 64 32 l 1,8,-1
 64 16 l 1,9,-1
 40 16 l 1,10,-1
 40 -8 l 1,11,-1
 24 -8 l 1,0,-1
EndSplineSet
EndChar

StartChar: uniE2DC
Encoding: 58076 58076 756
Width: 64
Flags: W
LayerCount: 2
UndoRedoHistory
Layer: 1
Undoes
UndoOperation
Index: 0
Type: 3
WasModified: 1
WasOrder2: 1
Layer: 2
EndUndoOperation
EndUndoes
Redoes
EndRedoes
EndUndoRedoHistory
Fore
SplineSet
16 -8 m 1,0,-1
 16 8 l 1,1,-1
 32 8 l 1,2,-1
 32 -8 l 1,3,-1
 16 -8 l 1,0,-1
0 8 m 1,4,-1
 0 24 l 1,5,-1
 16 24 l 1,6,-1
 16 8 l 1,7,-1
 0 8 l 1,4,-1
16 24 m 1,8,-1
 16 40 l 1,9,-1
 32 40 l 1,10,-1
 32 24 l 1,11,-1
 16 24 l 1,8,-1
0 40 m 1,12,-1
 0 56 l 1,13,-1
 16 56 l 1,14,-1
 16 40 l 1,15,-1
 0 40 l 1,12,-1
EndSplineSet
EndChar

StartChar: uniE2DD
Encoding: 58077 58077 757
Width: 64
Flags: W
LayerCount: 2
UndoRedoHistory
Layer: 1
Undoes
UndoOperation
Index: 0
Type: 3
WasModified: 1
WasOrder2: 1
Layer: 2
EndUndoOperation
EndUndoes
Redoes
EndRedoes
EndUndoRedoHistory
Fore
SplineSet
24 -8 m 1,0,-1
 24 56 l 1,1,-1
 40 56 l 1,2,-1
 40 -8 l 1,3,-1
 24 -8 l 1,0,-1
EndSplineSet
EndChar

StartChar: uniE2DE
Encoding: 58078 58078 758
Width: 64
VWidth: 128
Flags: W
LayerCount: 2
UndoRedoHistory
Layer: 1
Undoes
UndoOperation
Index: 0
Type: 3
WasModified: 1
WasOrder2: 1
Layer: 2
EndUndoOperation
EndUndoes
Redoes
EndRedoes
EndUndoRedoHistory
Fore
SplineSet
16 0 m 1,0,-1
 16 32 l 1,1,-1
 8 32 l 0,2,-1
 8 40 l 0,3,-1
 64 40 l 0,4,-1
 64 32 l 0,5,-1
 56 32 l 1,6,-1
 56 0 l 1,7,-1
 40 0 l 1,8,-1
 40 32 l 1,9,-1
 32 32 l 1,10,-1
 32 0 l 1,11,-1
 16 0 l 1,0,-1
EndSplineSet
EndChar

StartChar: uniE2DF
Encoding: 58079 58079 759
Width: 64
Flags: W
LayerCount: 2
UndoRedoHistory
Layer: 1
Undoes
UndoOperation
Index: 0
Type: 3
WasModified: 1
WasOrder2: 1
Layer: 2
EndUndoOperation
EndUndoes
Redoes
EndRedoes
EndUndoRedoHistory
Fore
SplineSet
56 -8 m 1,0,-1
 56 0 l 1,1,-1
 48 0 l 1,2,-1
 48 8 l 1,3,-1
 40 8 l 1,4,-1
 40 16 l 1,5,-1
 32 16 l 1,6,-1
 32 24 l 1,7,-1
 24 24 l 1,8,-1
 24 32 l 1,9,-1
 16 32 l 1,10,-1
 16 40 l 1,11,-1
 8 40 l 1,12,-1
 8 48 l 1,13,-1
 0 48 l 1,14,-1
 0 56 l 1,15,-1
 64 56 l 1,16,-1
 64 -8 l 1,17,-1
 56 -8 l 1,0,-1
EndSplineSet
EndChar

StartChar: uniE2E1
Encoding: 58081 58081 761
Width: 64
Flags: W
LayerCount: 2
UndoRedoHistory
Layer: 1
Undoes
UndoOperation
Index: 0
Type: 3
WasModified: 1
WasOrder2: 1
Layer: 2
EndUndoOperation
EndUndoes
Redoes
EndRedoes
EndUndoRedoHistory
Fore
SplineSet
0 -8 m 1,0,-1
 0 56 l 1,1,-1
 32 56 l 1,2,-1
 32 -8 l 1,3,-1
 0 -8 l 1,0,-1
EndSplineSet
EndChar

StartChar: uniE2E2
Encoding: 58082 58082 762
Width: 64
Flags: W
LayerCount: 2
UndoRedoHistory
Layer: 1
Undoes
UndoOperation
Index: 0
Type: 3
WasModified: 1
WasOrder2: 1
Layer: 2
EndUndoOperation
EndUndoes
Redoes
EndRedoes
EndUndoRedoHistory
Fore
SplineSet
0 -8 m 1,0,-1
 0 24 l 1,1,-1
 64 24 l 1,2,-1
 64 -8 l 1,3,-1
 0 -8 l 1,0,-1
EndSplineSet
EndChar

StartChar: uniE2E3
Encoding: 58083 58083 763
Width: 64
Flags: W
LayerCount: 2
UndoRedoHistory
Layer: 1
Undoes
UndoOperation
Index: 0
Type: 3
WasModified: 1
WasOrder2: 1
Layer: 2
EndUndoOperation
EndUndoes
Redoes
EndRedoes
EndUndoRedoHistory
Fore
SplineSet
0 48 m 1,0,-1
 0 56 l 1,1,-1
 64 56 l 1,2,-1
 64 48 l 1,3,-1
 0 48 l 1,0,-1
EndSplineSet
EndChar

StartChar: uniE2E8
Encoding: 58088 58088 768
Width: 64
Flags: W
LayerCount: 2
UndoRedoHistory
Layer: 1
Undoes
UndoOperation
Index: 0
Type: 3
WasModified: 1
WasOrder2: 1
Layer: 2
EndUndoOperation
EndUndoes
Redoes
EndRedoes
EndUndoRedoHistory
Fore
SplineSet
32 8 m 1,0,-1
 32 24 l 1,1,-1
 48 24 l 1,2,-1
 48 8 l 1,3,-1
 32 8 l 1,0,-1
16 8 m 1,4,-1
 0 8 l 1,5,-1
 0 24 l 1,6,-1
 16 24 l 1,7,-1
 16 8 l 1,4,-1
32 8 m 1,8,-1
 32 -8 l 1,9,-1
 16 -8 l 1,10,-1
 16 8 l 1,11,-1
 32 8 l 1,8,-1
48 8 m 1,12,-1
 64 8 l 1,13,-1
 64 -8 l 1,14,-1
 48 -8 l 1,15,-1
 48 8 l 1,12,-1
EndSplineSet
EndChar

StartChar: uniE2EB
Encoding: 58091 58091 771
Width: 64
Flags: W
LayerCount: 2
UndoRedoHistory
Layer: 1
Undoes
UndoOperation
Index: 0
Type: 3
WasModified: 1
WasOrder2: 1
Layer: 2
EndUndoOperation
EndUndoes
Redoes
EndRedoes
EndUndoRedoHistory
Fore
SplineSet
24 -8 m 1,0,-1
 24 56 l 1,1,-1
 40 56 l 1,2,-1
 40 32 l 1,3,-1
 64 32 l 1,4,-1
 64 16 l 1,5,-1
 40 16 l 1,6,-1
 40 -8 l 1,7,-1
 24 -8 l 1,0,-1
EndSplineSet
EndChar

StartChar: uniE2EC
Encoding: 58092 58092 772
Width: 64
Flags: W
LayerCount: 2
UndoRedoHistory
Layer: 1
Undoes
UndoOperation
Index: 0
Type: 3
WasModified: 1
WasOrder2: 1
Layer: 2
EndUndoOperation
EndUndoes
Redoes
EndRedoes
EndUndoRedoHistory
Fore
SplineSet
32 -8 m 1,0,-1
 32 24 l 1,1,-1
 64 24 l 1,2,-1
 64 -8 l 1,3,-1
 32 -8 l 1,0,-1
EndSplineSet
EndChar

StartChar: uniE2ED
Encoding: 58093 58093 773
Width: 64
Flags: W
LayerCount: 2
UndoRedoHistory
Layer: 1
Undoes
UndoOperation
Index: 0
Type: 3
WasModified: 1
WasOrder2: 1
Layer: 2
EndUndoOperation
EndUndoes
Redoes
EndRedoes
EndUndoRedoHistory
Fore
SplineSet
24 16 m 1,0,-1
 24 56 l 1,1,-1
 40 56 l 1,2,-1
 40 32 l 1,3,-1
 64 32 l 1,4,-1
 64 16 l 1,5,-1
 24 16 l 1,0,-1
EndSplineSet
EndChar

StartChar: uniE2F1
Encoding: 58097 58097 777
Width: 64
Flags: W
LayerCount: 2
UndoRedoHistory
Layer: 1
Undoes
UndoOperation
Index: 0
Type: 3
WasModified: 1
WasOrder2: 1
Layer: 2
EndUndoOperation
EndUndoes
Redoes
EndRedoes
EndUndoRedoHistory
Fore
SplineSet
64 16 m 1,0,-1
 0 16 l 1,1,-1
 0 32 l 1,2,-1
 24 32 l 1,3,-1
 24 56 l 1,4,-1
 40 56 l 1,5,-1
 40 32 l 1,6,-1
 64 32 l 1,7,-1
 64 16 l 1,0,-1
EndSplineSet
EndChar

StartChar: uniE2F5
Encoding: 58101 58101 781
Width: 64
Flags: W
LayerCount: 2
UndoRedoHistory
Layer: 1
Undoes
UndoOperation
Index: 0
Type: 3
WasModified: 1
WasOrder2: 1
Layer: 2
EndUndoOperation
EndUndoes
Redoes
EndRedoes
EndUndoRedoHistory
Fore
SplineSet
0 -8 m 1,0,-1
 0 56 l 1,1,-1
 24 56 l 1,2,-1
 24 -8 l 1,3,-1
 0 -8 l 1,0,-1
EndSplineSet
EndChar

StartChar: uniE2F8
Encoding: 58104 58104 784
Width: 64
Flags: W
LayerCount: 2
UndoRedoHistory
Layer: 1
Undoes
UndoOperation
Index: 0
Type: 3
WasModified: 1
WasOrder2: 1
Layer: 2
EndUndoOperation
EndUndoes
Redoes
EndRedoes
EndUndoRedoHistory
Fore
SplineSet
0 32 m 1,0,-1
 0 56 l 1,1,-1
 64 56 l 1,2,-1
 64 32 l 1,3,-1
 0 32 l 1,0,-1
EndSplineSet
EndChar

StartChar: uniE2F9
Encoding: 58105 58105 785
Width: 64
Flags: W
LayerCount: 2
UndoRedoHistory
Layer: 1
Undoes
UndoOperation
Index: 0
Type: 3
WasModified: 1
WasOrder2: 1
Layer: 2
EndUndoOperation
EndUndoes
Redoes
EndRedoes
EndUndoRedoHistory
Fore
SplineSet
0 -8 m 1,0,-1
 0 16 l 1,1,-1
 64 16 l 1,2,-1
 64 -8 l 1,3,-1
 0 -8 l 1,0,-1
EndSplineSet
EndChar

StartChar: uniE2FF
Encoding: 58111 58111 791
Width: 64
VWidth: 128
Flags: W
LayerCount: 2
UndoRedoHistory
Layer: 1
Undoes
UndoOperation
Index: 0
Type: 3
WasModified: 1
WasOrder2: 1
Layer: 2
EndUndoOperation
EndUndoes
Redoes
EndRedoes
EndUndoRedoHistory
Fore
SplineSet
16 0 m 1,0,-1
 16 32 l 1,1,-1
 8 32 l 0,2,-1
 8 40 l 0,3,-1
 64 40 l 0,4,-1
 64 32 l 0,5,-1
 56 32 l 1,6,-1
 56 0 l 1,7,-1
 40 0 l 1,8,-1
 40 32 l 1,9,-1
 32 32 l 1,10,-1
 32 0 l 1,11,-1
 16 0 l 1,0,-1
EndSplineSet
EndChar

StartChar: uniE321
Encoding: 58145 58145 793
Width: 64
Flags: W
LayerCount: 2
UndoRedoHistory
Layer: 1
Undoes
UndoOperation
Index: 0
Type: 3
WasModified: 1
WasOrder2: 1
Layer: 2
EndUndoOperation
EndUndoes
Redoes
EndRedoes
EndUndoRedoHistory
Fore
SplineSet
24 0 m 1,0,-1
 24 8 l 1,1,-1
 40 8 l 1,2,-1
 40 0 l 1,3,-1
 24 0 l 1,0,-1
24 16 m 1,4,-1
 24 48 l 1,5,-1
 40 48 l 1,6,-1
 40 16 l 1,7,-1
 24 16 l 1,4,-1
EndSplineSet
EndChar

StartChar: uniE322
Encoding: 58146 58146 794
Width: 64
Flags: W
LayerCount: 2
UndoRedoHistory
Layer: 1
Undoes
UndoOperation
Index: 0
Type: 3
WasModified: 1
WasOrder2: 1
Layer: 2
EndUndoOperation
EndUndoes
Redoes
EndRedoes
EndUndoRedoHistory
Fore
SplineSet
40 24 m 1,0,-1
 40 48 l 1,1,-1
 56 48 l 1,2,-1
 56 32 l 0,3,-1
 48 32 l 1,4,-1
 48 24 l 0,5,-1
 40 24 l 1,0,-1
16 24 m 1,6,-1
 16 48 l 1,7,-1
 32 48 l 1,8,-1
 32 32 l 0,9,-1
 24 32 l 1,10,-1
 24 24 l 0,11,-1
 16 24 l 1,6,-1
EndSplineSet
EndChar

StartChar: uniE323
Encoding: 58147 58147 795
Width: 64
Flags: W
LayerCount: 2
UndoRedoHistory
Layer: 1
Undoes
UndoOperation
Index: 0
Type: 3
WasModified: 1
WasOrder2: 1
Layer: 2
EndUndoOperation
EndUndoes
Redoes
EndRedoes
EndUndoRedoHistory
Fore
SplineSet
32 16 m 1,0,-1
 40 16 l 1,1,-1
 40 32 l 1,2,-1
 32 32 l 1,3,-1
 32 16 l 1,0,-1
16 0 m 1,4,-1
 16 8 l 1,5,-1
 8 8 l 1,6,-1
 8 16 l 1,7,-1
 16 16 l 1,8,-1
 16 32 l 1,9,-1
 8 32 l 1,10,-1
 8 40 l 1,11,-1
 16 40 l 1,12,-1
 16 48 l 1,13,-1
 32 48 l 1,14,-1
 32 40 l 1,15,-1
 40 40 l 1,16,-1
 40 48 l 1,17,-1
 56 48 l 1,18,-1
 56 40 l 1,19,-1
 64 40 l 1,20,-1
 64 32 l 1,21,-1
 56 32 l 1,22,-1
 56 16 l 1,23,-1
 64 16 l 1,24,-1
 64 8 l 1,25,-1
 56 8 l 1,26,-1
 56 0 l 1,27,-1
 40 0 l 1,28,-1
 40 8 l 1,29,-1
 32 8 l 1,30,-1
 32 0 l 1,31,-1
 16 0 l 1,4,-1
EndSplineSet
EndChar

StartChar: uniE324
Encoding: 58148 58148 796
Width: 64
Flags: W
LayerCount: 2
UndoRedoHistory
Layer: 1
Undoes
UndoOperation
Index: 0
Type: 3
WasModified: 1
WasOrder2: 1
Layer: 2
EndUndoOperation
EndUndoes
Redoes
EndRedoes
EndUndoRedoHistory
Fore
SplineSet
16 0 m 1,0,-1
 16 8 l 1,1,-1
 32 8 l 1,2,-1
 32 16 l 1,3,-1
 16 16 l 1,4,-1
 16 32 l 1,5,-1
 24 32 l 1,6,-1
 24 48 l 1,7,-1
 40 48 l 1,8,-1
 40 40 l 1,9,-1
 48 40 l 1,10,-1
 48 32 l 1,11,-1
 32 32 l 1,12,-1
 32 24 l 1,13,-1
 48 24 l 1,14,-1
 48 8 l 1,15,-1
 40 8 l 1,16,-1
 40 -8 l 1,17,-1
 24 -8 l 1,18,-1
 24 0 l 1,19,-1
 16 0 l 1,0,-1
EndSplineSet
EndChar

StartChar: uniE325
Encoding: 58149 58149 797
Width: 64
Flags: W
LayerCount: 2
UndoRedoHistory
Layer: 1
Undoes
UndoOperation
Index: 0
Type: 3
WasModified: 1
WasOrder2: 1
Layer: 2
EndUndoOperation
EndUndoes
Redoes
EndRedoes
EndUndoRedoHistory
Fore
SplineSet
8 0 m 1,0,-1
 8 8 l 1,1,-1
 16 8 l 1,2,-1
 16 16 l 1,3,-1
 24 16 l 1,4,-1
 24 24 l 1,5,-1
 32 24 l 1,6,-1
 32 32 l 1,7,-1
 40 32 l 1,8,-1
 40 40 l 1,9,-1
 48 40 l 1,10,-1
 48 48 l 1,11,-1
 64 48 l 1,12,-1
 64 40 l 0,13,-1
 56 40 l 0,14,-1
 56 32 l 1,15,-1
 48 32 l 1,16,-1
 48 24 l 1,17,-1
 40 24 l 1,18,-1
 40 16 l 1,19,-1
 32 16 l 1,20,-1
 32 8 l 1,21,-1
 24 8 l 1,22,-1
 24 0 l 1,23,-1
 8 0 l 1,0,-1
40 0 m 1,24,-1
 40 16 l 1,25,-1
 48 16 l 0,26,-1
 48 8 l 0,27,-1
 56 8 l 0,28,-1
 56 16 l 0,29,-1
 48 16 l 0,30,-1
 48 24 l 0,31,-1
 64 24 l 1,32,-1
 64 0 l 1,33,-1
 40 0 l 1,24,-1
8 24 m 1,34,-1
 8 48 l 1,35,-1
 32 48 l 1,36,-1
 32 32 l 0,37,-1
 24 32 l 0,38,-1
 24 40 l 0,39,-1
 16 40 l 0,40,-1
 16 32 l 0,41,-1
 24 32 l 0,42,-1
 24 24 l 1,43,-1
 8 24 l 1,34,-1
EndSplineSet
EndChar

StartChar: uniE326
Encoding: 58150 58150 798
Width: 64
Flags: W
LayerCount: 2
UndoRedoHistory
Layer: 1
Undoes
UndoOperation
Index: 0
Type: 3
WasModified: 1
WasOrder2: 1
Layer: 2
EndUndoOperation
EndUndoes
Redoes
EndRedoes
EndUndoRedoHistory
Fore
SplineSet
24 8 m 1,0,-1
 40 8 l 1,1,-1
 40 16 l 1,2,-1
 32 16 l 0,3,-1
 32 24 l 0,4,-1
 24 24 l 1,5,-1
 24 8 l 1,0,-1
16 0 m 1,6,-1
 16 8 l 1,7,-1
 8 8 l 1,8,-1
 8 24 l 1,9,-1
 16 24 l 1,10,-1
 16 32 l 1,11,-1
 8 32 l 1,12,-1
 8 40 l 1,13,-1
 16 40 l 1,14,-1
 16 48 l 1,15,-1
 40 48 l 1,16,-1
 40 40 l 1,17,-1
 48 40 l 1,18,-1
 48 32 l 1,19,-1
 40 32 l 1,20,-1
 40 24 l 1,21,-1
 64 24 l 1,22,-1
 64 16 l 1,23,-1
 56 16 l 1,24,-1
 56 8 l 1,25,-1
 64 8 l 1,26,-1
 64 0 l 1,27,-1
 16 0 l 1,6,-1
24 32 m 1,28,-1
 32 32 l 1,29,-1
 32 40 l 1,30,-1
 24 40 l 1,31,-1
 24 32 l 1,28,-1
EndSplineSet
EndChar

StartChar: uniE327
Encoding: 58151 58151 799
Width: 64
Flags: W
LayerCount: 2
UndoRedoHistory
Layer: 1
Undoes
UndoOperation
Index: 0
Type: 3
WasModified: 1
WasOrder2: 1
Layer: 2
EndUndoOperation
EndUndoes
Redoes
EndRedoes
EndUndoRedoHistory
Fore
SplineSet
24 24 m 1,0,-1
 24 48 l 1,1,-1
 40 48 l 1,2,-1
 40 32 l 0,3,-1
 32 32 l 1,4,-1
 32 24 l 0,5,-1
 24 24 l 1,0,-1
EndSplineSet
EndChar

StartChar: uniE328
Encoding: 58152 58152 800
Width: 64
Flags: W
LayerCount: 2
UndoRedoHistory
Layer: 1
Undoes
UndoOperation
Index: 0
Type: 3
WasModified: 1
WasOrder2: 1
Layer: 2
EndUndoOperation
EndUndoes
Redoes
EndRedoes
EndUndoRedoHistory
Fore
SplineSet
24 0 m 1,0,-1
 24 8 l 1,1,-1
 16 8 l 1,2,-1
 16 40 l 1,3,-1
 24 40 l 1,4,-1
 24 48 l 1,5,-1
 40 48 l 1,6,-1
 40 40 l 1,7,-1
 32 40 l 1,8,-1
 32 8 l 1,9,-1
 40 8 l 1,10,-1
 40 0 l 1,11,-1
 24 0 l 1,0,-1
EndSplineSet
EndChar

StartChar: uniE329
Encoding: 58153 58153 801
Width: 64
Flags: W
LayerCount: 2
UndoRedoHistory
Layer: 1
Undoes
UndoOperation
Index: 0
Type: 3
WasModified: 1
WasOrder2: 1
Layer: 2
EndUndoOperation
EndUndoes
Redoes
EndRedoes
EndUndoRedoHistory
Fore
SplineSet
40 48 m 1,0,-1
 40 40 l 1,1,-1
 48 40 l 1,2,-1
 48 8 l 1,3,-1
 40 8 l 1,4,-1
 40 0 l 1,5,-1
 24 0 l 1,6,-1
 24 8 l 1,7,-1
 32 8 l 1,8,-1
 32 40 l 1,9,-1
 24 40 l 1,10,-1
 24 48 l 1,11,-1
 40 48 l 1,0,-1
EndSplineSet
EndChar

StartChar: uniE32A
Encoding: 58154 58154 802
Width: 64
Flags: W
LayerCount: 2
UndoRedoHistory
Layer: 1
Undoes
UndoOperation
Index: 0
Type: 3
WasModified: 1
WasOrder2: 1
Layer: 2
EndUndoOperation
EndUndoes
Redoes
EndRedoes
EndUndoRedoHistory
Fore
SplineSet
8 0 m 1,0,-1
 8 8 l 1,1,-1
 16 8 l 1,2,-1
 16 16 l 1,3,-1
 0 16 l 1,4,-1
 0 24 l 1,5,-1
 16 24 l 1,6,-1
 16 32 l 1,7,-1
 8 32 l 1,8,-1
 8 40 l 1,9,-1
 24 40 l 1,10,-1
 24 32 l 1,11,-1
 40 32 l 1,12,-1
 40 40 l 1,13,-1
 56 40 l 1,14,-1
 56 32 l 1,15,-1
 48 32 l 1,16,-1
 48 24 l 1,17,-1
 64 24 l 1,18,-1
 64 16 l 1,19,-1
 48 16 l 1,20,-1
 48 8 l 1,21,-1
 56 8 l 1,22,-1
 56 0 l 1,23,-1
 40 0 l 1,24,-1
 40 8 l 1,25,-1
 24 8 l 1,26,-1
 24 0 l 1,27,-1
 8 0 l 1,0,-1
EndSplineSet
EndChar

StartChar: uniE32B
Encoding: 58155 58155 803
Width: 64
Flags: W
LayerCount: 2
UndoRedoHistory
Layer: 1
Undoes
UndoOperation
Index: 0
Type: 3
WasModified: 1
WasOrder2: 1
Layer: 2
EndUndoOperation
EndUndoes
Redoes
EndRedoes
EndUndoRedoHistory
Fore
SplineSet
24 0 m 1,0,-1
 24 16 l 1,1,-1
 8 16 l 1,2,-1
 8 24 l 1,3,-1
 24 24 l 1,4,-1
 24 40 l 1,5,-1
 40 40 l 1,6,-1
 40 24 l 1,7,-1
 56 24 l 1,8,-1
 56 16 l 1,9,-1
 40 16 l 1,10,-1
 40 0 l 1,11,-1
 24 0 l 1,0,-1
EndSplineSet
EndChar

StartChar: uniE32C
Encoding: 58156 58156 804
Width: 64
Flags: W
LayerCount: 2
UndoRedoHistory
Layer: 1
Undoes
UndoOperation
Index: 0
Type: 3
WasModified: 1
WasOrder2: 1
Layer: 2
EndUndoOperation
EndUndoes
Redoes
EndRedoes
EndUndoRedoHistory
Fore
SplineSet
16 -8 m 1,0,-1
 16 0 l 1,1,-1
 24 0 l 1,2,-1
 24 16 l 1,3,-1
 40 16 l 1,4,-1
 40 0 l 1,5,-1
 32 0 l 1,6,-1
 32 -8 l 1,7,-1
 16 -8 l 1,0,-1
EndSplineSet
EndChar

StartChar: uniE32D
Encoding: 58157 58157 805
Width: 64
Flags: W
LayerCount: 2
UndoRedoHistory
Layer: 1
Undoes
UndoOperation
Index: 0
Type: 3
WasModified: 1
WasOrder2: 1
Layer: 2
EndUndoOperation
EndUndoes
Redoes
EndRedoes
EndUndoRedoHistory
Fore
SplineSet
8 16 m 1,0,-1
 8 24 l 1,1,-1
 56 24 l 1,2,-1
 56 16 l 1,3,-1
 8 16 l 1,0,-1
EndSplineSet
EndChar

StartChar: uniE32E
Encoding: 58158 58158 806
Width: 64
Flags: W
LayerCount: 2
UndoRedoHistory
Layer: 1
Undoes
UndoOperation
Index: 0
Type: 3
WasModified: 1
WasOrder2: 1
Layer: 2
EndUndoOperation
EndUndoes
Redoes
EndRedoes
EndUndoRedoHistory
Fore
SplineSet
24 0 m 1,0,-1
 24 16 l 1,1,-1
 40 16 l 1,2,-1
 40 0 l 1,3,-1
 24 0 l 1,0,-1
EndSplineSet
EndChar

StartChar: uniE32F
Encoding: 58159 58159 807
Width: 64
Flags: W
LayerCount: 2
UndoRedoHistory
Layer: 1
Undoes
UndoOperation
Index: 0
Type: 3
WasModified: 1
WasOrder2: 1
Layer: 2
EndUndoOperation
EndUndoes
Redoes
EndRedoes
EndUndoRedoHistory
Fore
SplineSet
16 0 m 1,0,-1
 16 16 l 1,1,-1
 24 16 l 1,2,-1
 24 32 l 1,3,-1
 32 32 l 1,4,-1
 32 48 l 1,5,-1
 48 48 l 1,6,-1
 48 32 l 1,7,-1
 40 32 l 1,8,-1
 40 16 l 1,9,-1
 32 16 l 1,10,-1
 32 0 l 1,11,-1
 16 0 l 1,0,-1
EndSplineSet
EndChar

StartChar: uniE330
Encoding: 58160 58160 808
Width: 64
Flags: W
LayerCount: 2
UndoRedoHistory
Layer: 1
Undoes
UndoOperation
Index: 0
Type: 3
WasModified: 1
WasOrder2: 1
Layer: 2
EndUndoOperation
EndUndoes
Redoes
EndRedoes
EndUndoRedoHistory
Fore
SplineSet
16 0 m 1,0,-1
 16 8 l 1,1,-1
 8 8 l 1,2,-1
 8 40 l 1,3,-1
 16 40 l 1,4,-1
 16 48 l 1,5,-1
 48 48 l 1,6,-1
 48 40 l 1,7,-1
 56 40 l 1,8,-1
 56 8 l 1,9,-1
 48 8 l 1,10,-1
 48 0 l 1,11,-1
 16 0 l 1,0,-1
24 8 m 1,12,-1
 40 8 l 1,13,-1
 40 24 l 1,14,-1
 32 24 l 1,15,-1
 32 32 l 1,16,-1
 40 32 l 1,17,-1
 40 40 l 1,18,-1
 24 40 l 1,19,-1
 24 24 l 1,20,-1
 32 24 l 1,21,-1
 32 16 l 1,22,-1
 24 16 l 1,23,-1
 24 8 l 1,12,-1
EndSplineSet
EndChar

StartChar: uniE331
Encoding: 58161 58161 809
Width: 64
Flags: W
LayerCount: 2
UndoRedoHistory
Layer: 1
Undoes
UndoOperation
Index: 0
Type: 3
WasModified: 1
WasOrder2: 1
Layer: 2
EndUndoOperation
EndUndoes
Redoes
EndRedoes
EndUndoRedoHistory
Fore
SplineSet
8 0 m 1,0,-1
 8 8 l 1,1,-1
 24 8 l 1,2,-1
 24 32 l 1,3,-1
 16 32 l 1,4,-1
 16 40 l 1,5,-1
 24 40 l 1,6,-1
 24 48 l 1,7,-1
 40 48 l 1,8,-1
 40 8 l 1,9,-1
 56 8 l 1,10,-1
 56 0 l 1,11,-1
 8 0 l 1,0,-1
EndSplineSet
EndChar

StartChar: uniE332
Encoding: 58162 58162 810
Width: 64
Flags: W
LayerCount: 2
UndoRedoHistory
Layer: 1
Undoes
UndoOperation
Index: 0
Type: 3
WasModified: 1
WasOrder2: 1
Layer: 2
EndUndoOperation
EndUndoes
Redoes
EndRedoes
EndUndoRedoHistory
Fore
SplineSet
8 0 m 1,0,-1
 8 8 l 1,1,-1
 16 8 l 1,2,-1
 16 16 l 1,3,-1
 24 16 l 1,4,-1
 24 24 l 1,5,-1
 32 24 l 1,6,-1
 32 40 l 1,7,-1
 8 40 l 1,8,-1
 8 48 l 1,9,-1
 40 48 l 1,10,-1
 40 40 l 1,11,-1
 48 40 l 1,12,-1
 48 24 l 1,13,-1
 40 24 l 1,14,-1
 40 16 l 1,15,-1
 32 16 l 1,16,-1
 32 8 l 1,17,-1
 56 8 l 1,18,-1
 56 0 l 1,19,-1
 8 0 l 1,0,-1
EndSplineSet
EndChar

StartChar: uniE333
Encoding: 58163 58163 811
Width: 64
Flags: W
LayerCount: 2
UndoRedoHistory
Layer: 1
Undoes
UndoOperation
Index: 0
Type: 3
WasModified: 1
WasOrder2: 1
Layer: 2
EndUndoOperation
EndUndoes
Redoes
EndRedoes
EndUndoRedoHistory
Fore
SplineSet
8 0 m 1,0,-1
 8 8 l 1,1,-1
 40 8 l 1,2,-1
 40 24 l 1,3,-1
 24 24 l 1,4,-1
 24 32 l 1,5,-1
 32 32 l 1,6,-1
 32 40 l 1,7,-1
 8 40 l 1,8,-1
 8 48 l 1,9,-1
 56 48 l 1,10,-1
 56 40 l 1,11,-1
 48 40 l 1,12,-1
 48 24 l 1,13,-1
 56 24 l 1,14,-1
 56 8 l 1,15,-1
 48 8 l 1,16,-1
 48 0 l 1,17,-1
 8 0 l 1,0,-1
EndSplineSet
EndChar

StartChar: uniE334
Encoding: 58164 58164 812
Width: 64
Flags: W
LayerCount: 2
UndoRedoHistory
Layer: 1
Undoes
UndoOperation
Index: 0
Type: 3
WasModified: 1
WasOrder2: 1
Layer: 2
EndUndoOperation
EndUndoes
Redoes
EndRedoes
EndUndoRedoHistory
Fore
SplineSet
56 0 m 1,0,-1
 40 0 l 1,1,-1
 40 8 l 1,2,-1
 8 8 l 1,3,-1
 8 24 l 1,4,-1
 16 24 l 0,5,-1
 16 32 l 0,6,-1
 24 32 l 0,7,-1
 24 40 l 0,8,-1
 32 40 l 0,9,-1
 32 48 l 0,10,-1
 48 48 l 0,11,-1
 48 40 l 0,12,-1
 40 40 l 0,13,-1
 40 32 l 0,14,-1
 32 32 l 0,15,-1
 32 24 l 0,16,-1
 24 24 l 1,17,-1
 24 16 l 1,18,-1
 40 16 l 1,19,-1
 40 32 l 1,20,-1
 56 32 l 1,21,-1
 56 0 l 1,0,-1
EndSplineSet
EndChar

StartChar: uniE335
Encoding: 58165 58165 813
Width: 64
Flags: W
LayerCount: 2
UndoRedoHistory
Layer: 1
Undoes
UndoOperation
Index: 0
Type: 3
WasModified: 1
WasOrder2: 1
Layer: 2
EndUndoOperation
EndUndoes
Redoes
EndRedoes
EndUndoRedoHistory
Fore
SplineSet
8 0 m 1,0,-1
 8 8 l 1,1,-1
 40 8 l 1,2,-1
 40 24 l 1,3,-1
 8 24 l 1,4,-1
 8 48 l 1,5,-1
 48 48 l 1,6,-1
 48 40 l 1,7,-1
 24 40 l 1,8,-1
 24 32 l 1,9,-1
 48 32 l 1,10,-1
 48 24 l 1,11,-1
 56 24 l 1,12,-1
 56 8 l 1,13,-1
 48 8 l 1,14,-1
 48 0 l 1,15,-1
 8 0 l 1,0,-1
EndSplineSet
EndChar

StartChar: uniE336
Encoding: 58166 58166 814
Width: 64
Flags: W
LayerCount: 2
UndoRedoHistory
Layer: 1
Undoes
UndoOperation
Index: 0
Type: 3
WasModified: 1
WasOrder2: 1
Layer: 2
EndUndoOperation
EndUndoes
Redoes
EndRedoes
EndUndoRedoHistory
Fore
SplineSet
16 0 m 1,0,-1
 16 8 l 1,1,-1
 8 8 l 1,2,-1
 8 40 l 1,3,-1
 16 40 l 1,4,-1
 16 48 l 1,5,-1
 48 48 l 1,6,-1
 48 40 l 1,7,-1
 24 40 l 1,8,-1
 24 32 l 1,9,-1
 48 32 l 1,10,-1
 48 24 l 1,11,-1
 56 24 l 1,12,-1
 56 8 l 1,13,-1
 48 8 l 1,14,-1
 48 0 l 1,15,-1
 16 0 l 1,0,-1
24 8 m 1,16,-1
 40 8 l 1,17,-1
 40 24 l 1,18,-1
 24 24 l 1,19,-1
 24 8 l 1,16,-1
EndSplineSet
EndChar

StartChar: uniE337
Encoding: 58167 58167 815
Width: 64
Flags: W
LayerCount: 2
UndoRedoHistory
Layer: 1
Undoes
UndoOperation
Index: 0
Type: 3
WasModified: 1
WasOrder2: 1
Layer: 2
EndUndoOperation
EndUndoes
Redoes
EndRedoes
EndUndoRedoHistory
Fore
SplineSet
24 0 m 1,0,-1
 24 16 l 1,1,-1
 32 16 l 1,2,-1
 32 32 l 1,3,-1
 40 32 l 1,4,-1
 40 40 l 1,5,-1
 8 40 l 1,6,-1
 8 48 l 1,7,-1
 56 48 l 1,8,-1
 56 32 l 1,9,-1
 48 32 l 1,10,-1
 48 16 l 1,11,-1
 40 16 l 1,12,-1
 40 0 l 1,13,-1
 24 0 l 1,0,-1
EndSplineSet
EndChar

StartChar: uniE338
Encoding: 58168 58168 816
Width: 64
Flags: W
LayerCount: 2
UndoRedoHistory
Layer: 1
Undoes
UndoOperation
Index: 0
Type: 3
WasModified: 1
WasOrder2: 1
Layer: 2
EndUndoOperation
EndUndoes
Redoes
EndRedoes
EndUndoRedoHistory
Fore
SplineSet
24 8 m 1,0,-1
 40 8 l 1,1,-1
 40 24 l 1,2,-1
 24 24 l 1,3,-1
 24 8 l 1,0,-1
24 32 m 1,4,-1
 40 32 l 1,5,-1
 40 40 l 1,6,-1
 24 40 l 1,7,-1
 24 32 l 1,4,-1
16 0 m 1,8,-1
 16 8 l 1,9,-1
 8 8 l 1,10,-1
 8 24 l 1,11,-1
 16 24 l 1,12,-1
 16 32 l 1,13,-1
 8 32 l 1,14,-1
 8 40 l 1,15,-1
 16 40 l 1,16,-1
 16 48 l 1,17,-1
 48 48 l 1,18,-1
 48 40 l 1,19,-1
 56 40 l 1,20,-1
 56 32 l 1,21,-1
 48 32 l 1,22,-1
 48 24 l 1,23,-1
 56 24 l 1,24,-1
 56 8 l 1,25,-1
 48 8 l 1,26,-1
 48 0 l 1,27,-1
 16 0 l 1,8,-1
EndSplineSet
EndChar

StartChar: uniE339
Encoding: 58169 58169 817
Width: 64
Flags: W
LayerCount: 2
UndoRedoHistory
Layer: 1
Undoes
UndoOperation
Index: 0
Type: 3
WasModified: 1
WasOrder2: 1
Layer: 2
EndUndoOperation
EndUndoes
Redoes
EndRedoes
EndUndoRedoHistory
Fore
SplineSet
24 24 m 1,0,-1
 40 24 l 1,1,-1
 40 40 l 1,2,-1
 24 40 l 1,3,-1
 24 24 l 1,0,-1
16 0 m 1,4,-1
 16 8 l 1,5,-1
 40 8 l 1,6,-1
 40 16 l 1,7,-1
 16 16 l 1,8,-1
 16 24 l 1,9,-1
 8 24 l 1,10,-1
 8 40 l 1,11,-1
 16 40 l 1,12,-1
 16 48 l 1,13,-1
 48 48 l 1,14,-1
 48 40 l 1,15,-1
 56 40 l 1,16,-1
 56 8 l 1,17,-1
 48 8 l 1,18,-1
 48 0 l 1,19,-1
 16 0 l 1,4,-1
EndSplineSet
EndChar

StartChar: uniE33A
Encoding: 58170 58170 818
Width: 64
Flags: W
LayerCount: 2
UndoRedoHistory
Layer: 1
Undoes
UndoOperation
Index: 0
Type: 3
WasModified: 1
WasOrder2: 1
Layer: 2
EndUndoOperation
EndUndoes
Redoes
EndRedoes
EndUndoRedoHistory
Fore
SplineSet
24 24 m 1,0,-1
 24 40 l 1,1,-1
 40 40 l 1,2,-1
 40 24 l 1,3,-1
 24 24 l 1,0,-1
24 0 m 1,4,-1
 24 16 l 1,5,-1
 40 16 l 1,6,-1
 40 0 l 1,7,-1
 24 0 l 1,4,-1
EndSplineSet
EndChar

StartChar: uniE33B
Encoding: 58171 58171 819
Width: 64
Flags: W
LayerCount: 2
UndoRedoHistory
Layer: 1
Undoes
UndoOperation
Index: 0
Type: 3
WasModified: 1
WasOrder2: 1
Layer: 2
EndUndoOperation
EndUndoes
Redoes
EndRedoes
EndUndoRedoHistory
Fore
SplineSet
24 24 m 1,0,-1
 24 40 l 1,1,-1
 40 40 l 1,2,-1
 40 24 l 1,3,-1
 24 24 l 1,0,-1
16 -8 m 1,4,-1
 16 0 l 1,5,-1
 24 0 l 1,6,-1
 24 16 l 1,7,-1
 40 16 l 1,8,-1
 40 0 l 1,9,-1
 32 0 l 1,10,-1
 32 -8 l 1,11,-1
 16 -8 l 1,4,-1
EndSplineSet
EndChar

StartChar: uniE33C
Encoding: 58172 58172 820
Width: 64
Flags: W
LayerCount: 2
UndoRedoHistory
Layer: 1
Undoes
UndoOperation
Index: 0
Type: 3
WasModified: 1
WasOrder2: 1
Layer: 2
EndUndoOperation
EndUndoes
Redoes
EndRedoes
EndUndoRedoHistory
Fore
SplineSet
32 0 m 1,0,-1
 32 8 l 1,1,-1
 24 8 l 1,2,-1
 24 16 l 1,3,-1
 16 16 l 1,4,-1
 16 24 l 1,5,-1
 24 24 l 1,6,-1
 24 32 l 1,7,-1
 32 32 l 1,8,-1
 32 40 l 1,9,-1
 48 40 l 1,10,-1
 48 32 l 1,11,-1
 40 32 l 1,12,-1
 40 24 l 1,13,-1
 32 24 l 1,14,-1
 32 16 l 1,15,-1
 40 16 l 1,16,-1
 40 8 l 1,17,-1
 48 8 l 1,18,-1
 48 0 l 1,19,-1
 32 0 l 1,0,-1
EndSplineSet
EndChar

StartChar: uniE33D
Encoding: 58173 58173 821
Width: 64
Flags: W
LayerCount: 2
UndoRedoHistory
Layer: 1
Undoes
UndoOperation
Index: 0
Type: 3
WasModified: 1
WasOrder2: 1
Layer: 2
EndUndoOperation
EndUndoes
Redoes
EndRedoes
EndUndoRedoHistory
Fore
SplineSet
8 24 m 1,0,-1
 8 32 l 1,1,-1
 56 32 l 1,2,-1
 56 24 l 1,3,-1
 8 24 l 1,0,-1
8 8 m 1,4,-1
 8 16 l 1,5,-1
 56 16 l 1,6,-1
 56 8 l 1,7,-1
 8 8 l 1,4,-1
EndSplineSet
EndChar

StartChar: uniE33E
Encoding: 58174 58174 822
Width: 64
Flags: W
LayerCount: 2
UndoRedoHistory
Layer: 1
Undoes
UndoOperation
Index: 0
Type: 3
WasModified: 1
WasOrder2: 1
Layer: 2
EndUndoOperation
EndUndoes
Redoes
EndRedoes
EndUndoRedoHistory
Fore
SplineSet
32 40 m 1,0,-1
 32 32 l 1,1,-1
 40 32 l 1,2,-1
 40 24 l 1,3,-1
 48 24 l 1,4,-1
 48 16 l 1,5,-1
 40 16 l 1,6,-1
 40 8 l 1,7,-1
 32 8 l 1,8,-1
 32 0 l 1,9,-1
 16 0 l 1,10,-1
 16 8 l 1,11,-1
 24 8 l 1,12,-1
 24 16 l 1,13,-1
 32 16 l 1,14,-1
 32 24 l 1,15,-1
 24 24 l 1,16,-1
 24 32 l 1,17,-1
 16 32 l 1,18,-1
 16 40 l 1,19,-1
 32 40 l 1,0,-1
EndSplineSet
EndChar

StartChar: uniE33F
Encoding: 58175 58175 823
Width: 64
Flags: W
LayerCount: 2
UndoRedoHistory
Layer: 1
Undoes
UndoOperation
Index: 0
Type: 3
WasModified: 1
WasOrder2: 1
Layer: 2
EndUndoOperation
EndUndoes
Redoes
EndRedoes
EndUndoRedoHistory
Fore
SplineSet
24 0 m 1,0,-1
 24 8 l 1,1,-1
 40 8 l 1,2,-1
 40 0 l 1,3,-1
 24 0 l 1,0,-1
24 16 m 1,4,-1
 24 24 l 1,5,-1
 32 24 l 1,6,-1
 32 32 l 1,7,-1
 40 32 l 1,8,-1
 40 40 l 1,9,-1
 24 40 l 1,10,-1
 24 32 l 1,11,-1
 8 32 l 1,12,-1
 8 40 l 1,13,-1
 16 40 l 1,14,-1
 16 48 l 1,15,-1
 48 48 l 1,16,-1
 48 40 l 1,17,-1
 56 40 l 1,18,-1
 56 24 l 1,19,-1
 48 24 l 1,20,-1
 48 16 l 1,21,-1
 24 16 l 1,4,-1
EndSplineSet
EndChar

StartChar: uniE340
Encoding: 58176 58176 824
Width: 64
Flags: W
LayerCount: 2
UndoRedoHistory
Layer: 1
Undoes
UndoOperation
Index: 0
Type: 3
WasModified: 1
WasOrder2: 1
Layer: 2
EndUndoOperation
EndUndoes
Redoes
EndRedoes
EndUndoRedoHistory
Fore
SplineSet
16 0 m 1,0,-1
 16 8 l 1,1,-1
 8 8 l 1,2,-1
 8 40 l 1,3,-1
 16 40 l 1,4,-1
 16 48 l 1,5,-1
 48 48 l 1,6,-1
 48 40 l 1,7,-1
 56 40 l 1,8,-1
 56 16 l 1,9,-1
 32 16 l 1,10,-1
 32 32 l 1,11,-1
 40 32 l 1,12,-1
 40 40 l 1,13,-1
 24 40 l 1,14,-1
 24 8 l 1,15,-1
 48 8 l 1,16,-1
 48 0 l 1,17,-1
 16 0 l 1,0,-1
EndSplineSet
EndChar

StartChar: uniE341
Encoding: 58177 58177 825
Width: 64
VWidth: 128
Flags: W
LayerCount: 2
UndoRedoHistory
Layer: 1
Undoes
UndoOperation
Index: 0
Type: 3
WasModified: 1
WasOrder2: 1
Layer: 2
EndUndoOperation
EndUndoes
Redoes
EndRedoes
EndUndoRedoHistory
Fore
SplineSet
24 8 m 1,0,-1
 40 8 l 1,1,-1
 40 16 l 1,2,-1
 24 16 l 1,3,-1
 24 8 l 1,0,-1
16 0 m 1,4,-1
 16 8 l 1,5,-1
 8 8 l 1,6,-1
 8 16 l 1,7,-1
 16 16 l 1,8,-1
 16 24 l 1,9,-1
 40 24 l 1,10,-1
 40 32 l 1,11,-1
 16 32 l 1,12,-1
 16 40 l 1,13,-1
 48 40 l 1,14,-1
 48 32 l 1,15,-1
 56 32 l 1,16,-1
 56 0 l 1,17,-1
 16 0 l 1,4,-1
EndSplineSet
EndChar

StartChar: uniE342
Encoding: 58178 58178 826
Width: 64
VWidth: 128
Flags: W
LayerCount: 2
UndoRedoHistory
Layer: 1
Undoes
UndoOperation
Index: 0
Type: 3
WasModified: 1
WasOrder2: 1
Layer: 2
EndUndoOperation
EndUndoes
Redoes
EndRedoes
EndUndoRedoHistory
Fore
SplineSet
8 0 m 5,0,-1
 8 48 l 1,1,-1
 24 48 l 1,2,-1
 24 32 l 1,3,-1
 32 32 l 0,4,-1
 32 40 l 0,5,-1
 48 40 l 1,6,-1
 48 32 l 1,7,-1
 56 32 l 1,8,-1
 56 8 l 1,9,-1
 48 8 l 1,10,-1
 48 0 l 1,11,-1
 8 0 l 5,0,-1
24 8 m 1,12,-1
 40 8 l 1,13,-1
 40 32 l 1,14,-1
 32 32 l 0,15,-1
 32 24 l 0,16,-1
 24 24 l 1,17,-1
 24 8 l 1,12,-1
EndSplineSet
EndChar

StartChar: uniE343
Encoding: 58179 58179 827
Width: 64
VWidth: 128
Flags: W
LayerCount: 2
UndoRedoHistory
Layer: 1
Undoes
UndoOperation
Index: 0
Type: 3
WasModified: 1
WasOrder2: 1
Layer: 2
EndUndoOperation
EndUndoes
Redoes
EndRedoes
EndUndoRedoHistory
Fore
SplineSet
16 0 m 1,0,-1
 16 8 l 1,1,-1
 8 8 l 1,2,-1
 8 32 l 1,3,-1
 16 32 l 1,4,-1
 16 40 l 1,5,-1
 56 40 l 1,6,-1
 56 32 l 1,7,-1
 24 32 l 1,8,-1
 24 8 l 1,9,-1
 56 8 l 1,10,-1
 56 0 l 1,11,-1
 16 0 l 1,0,-1
EndSplineSet
EndChar

StartChar: uniE344
Encoding: 58180 58180 828
Width: 64
VWidth: 128
Flags: W
LayerCount: 2
UndoRedoHistory
Layer: 1
Undoes
UndoOperation
Index: 0
Type: 3
WasModified: 1
WasOrder2: 1
Layer: 2
EndUndoOperation
EndUndoes
Redoes
EndRedoes
EndUndoRedoHistory
Fore
SplineSet
56 0 m 1,0,-1
 16 0 l 1,1,-1
 16 8 l 1,2,-1
 8 8 l 1,3,-1
 8 32 l 1,4,-1
 16 32 l 1,5,-1
 16 40 l 1,6,-1
 32 40 l 0,7,-1
 32 32 l 0,8,-1
 40 32 l 1,9,-1
 40 48 l 1,10,-1
 56 48 l 1,11,-1
 56 0 l 1,0,-1
40 8 m 1,12,-1
 40 24 l 1,13,-1
 32 24 l 0,14,-1
 32 32 l 0,15,-1
 24 32 l 1,16,-1
 24 8 l 1,17,-1
 40 8 l 1,12,-1
EndSplineSet
EndChar

StartChar: uniE345
Encoding: 58181 58181 829
Width: 64
VWidth: 128
Flags: W
LayerCount: 2
UndoRedoHistory
Layer: 1
Undoes
UndoOperation
Index: 0
Type: 3
WasModified: 1
WasOrder2: 1
Layer: 2
EndUndoOperation
EndUndoes
Redoes
EndRedoes
EndUndoRedoHistory
Fore
SplineSet
48 40 m 1,0,-1
 48 32 l 1,1,-1
 56 32 l 1,2,-1
 56 16 l 1,3,-1
 24 16 l 1,4,-1
 24 8 l 1,5,-1
 48 8 l 1,6,-1
 48 0 l 1,7,-1
 16 0 l 1,8,-1
 16 8 l 1,9,-1
 8 8 l 1,10,-1
 8 32 l 1,11,-1
 16 32 l 1,12,-1
 16 40 l 1,13,-1
 48 40 l 1,0,-1
40 32 m 1,14,-1
 24 32 l 1,15,-1
 24 24 l 1,16,-1
 40 24 l 1,17,-1
 40 32 l 1,14,-1
EndSplineSet
EndChar

StartChar: uniE346
Encoding: 58182 58182 830
Width: 64
VWidth: 128
Flags: W
LayerCount: 2
UndoRedoHistory
Layer: 1
Undoes
UndoOperation
Index: 0
Type: 1
WasModified: 1
WasOrder2: 1
Layer: 2
Width: 64
VWidth: 128
LBearingChange: 0
UnicodeEnc: 0
InstructionsLength: 0
SplineSet
0 -8 m 5,0,-1
 64 -8 l 5,1,-1
 64 56 l 5,2,-1
 0 56 l 5,3,-1
 0 -8 l 5,0,-1
16 0 m 5,4,-1
 16 24 l 5,5,-1
 8 24 l 5,6,-1
 8 32 l 5,7,-1
 16 32 l 5,8,-1
 16 40 l 5,9,-1
 24 40 l 5,10,-1
 24 48 l 5,11,-1
 56 48 l 5,12,-1
 56 40 l 5,13,-1
 32 40 l 5,14,-1
 32 32 l 5,15,-1
 48 32 l 5,16,-1
 48 24 l 5,17,-1
 32 24 l 5,18,-1
 32 0 l 5,19,-1
 16 0 l 5,4,-1
EndSplineSet
EndUndoOperation
EndUndoes
Redoes
EndRedoes
EndUndoRedoHistory
Fore
SplineSet
0 -8 m 1,0,-1
 0 56 l 1,1,-1
 64 56 l 1,2,-1
 64 -8 l 1,3,-1
 0 -8 l 1,0,-1
16 0 m 1,4,-1
 32 0 l 1,5,-1
 32 24 l 1,6,-1
 48 24 l 1,7,-1
 48 32 l 1,8,-1
 32 32 l 1,9,-1
 32 40 l 1,10,-1
 56 40 l 1,11,-1
 56 48 l 1,12,-1
 24 48 l 1,13,-1
 24 40 l 1,14,-1
 16 40 l 1,15,-1
 16 32 l 1,16,-1
 8 32 l 1,17,-1
 8 24 l 1,18,-1
 16 24 l 1,19,-1
 16 0 l 1,4,-1
EndSplineSet
EndChar

StartChar: uniE347
Encoding: 58183 58183 831
Width: 64
VWidth: 128
Flags: W
LayerCount: 2
UndoRedoHistory
Layer: 1
Undoes
UndoOperation
Index: 0
Type: 3
WasModified: 1
WasOrder2: 1
Layer: 2
EndUndoOperation
EndUndoes
Redoes
EndRedoes
EndUndoRedoHistory
Fore
SplineSet
24 16 m 1,0,-1
 40 16 l 1,1,-1
 40 32 l 1,2,-1
 24 32 l 1,3,-1
 24 16 l 1,0,-1
16 -8 m 1,4,-1
 16 0 l 1,5,-1
 40 0 l 1,6,-1
 40 8 l 1,7,-1
 16 8 l 1,8,-1
 16 16 l 1,9,-1
 8 16 l 1,10,-1
 8 32 l 1,11,-1
 16 32 l 1,12,-1
 16 40 l 1,13,-1
 56 40 l 1,14,-1
 56 0 l 1,15,-1
 48 0 l 1,16,-1
 48 -8 l 1,17,-1
 16 -8 l 1,4,-1
EndSplineSet
EndChar

StartChar: uniE348
Encoding: 58184 58184 832
Width: 64
VWidth: 128
Flags: W
LayerCount: 2
UndoRedoHistory
Layer: 1
Undoes
UndoOperation
Index: 0
Type: 3
WasModified: 1
WasOrder2: 1
Layer: 2
EndUndoOperation
EndUndoes
Redoes
EndRedoes
EndUndoRedoHistory
Fore
SplineSet
8 0 m 1,0,-1
 8 48 l 1,1,-1
 24 48 l 1,2,-1
 24 32 l 1,3,-1
 32 32 l 0,4,-1
 32 40 l 0,5,-1
 48 40 l 1,6,-1
 48 32 l 1,7,-1
 56 32 l 1,8,-1
 56 0 l 1,9,-1
 40 0 l 1,10,-1
 40 32 l 1,11,-1
 32 32 l 0,12,-1
 32 24 l 0,13,-1
 24 24 l 1,14,-1
 24 0 l 1,15,-1
 8 0 l 1,0,-1
EndSplineSet
EndChar

StartChar: uniE349
Encoding: 58185 58185 833
Width: 64
VWidth: 128
Flags: W
LayerCount: 2
UndoRedoHistory
Layer: 1
Undoes
UndoOperation
Index: 0
Type: 3
WasModified: 1
WasOrder2: 1
Layer: 2
EndUndoOperation
EndUndoes
Redoes
EndRedoes
EndUndoRedoHistory
Fore
SplineSet
24 48 m 1,0,-1
 24 56 l 1,1,-1
 40 56 l 1,2,-1
 40 48 l 1,3,-1
 24 48 l 1,0,-1
8 0 m 1,4,-1
 8 8 l 1,5,-1
 24 8 l 1,6,-1
 24 32 l 1,7,-1
 8 32 l 1,8,-1
 8 40 l 1,9,-1
 40 40 l 1,10,-1
 40 8 l 1,11,-1
 56 8 l 1,12,-1
 56 0 l 1,13,-1
 8 0 l 1,4,-1
EndSplineSet
EndChar

StartChar: uniE34B
Encoding: 58187 58187 835
Width: 64
VWidth: 128
Flags: W
LayerCount: 2
UndoRedoHistory
Layer: 1
Undoes
UndoOperation
Index: 0
Type: 3
WasModified: 1
WasOrder2: 1
Layer: 2
EndUndoOperation
EndUndoes
Redoes
EndRedoes
EndUndoRedoHistory
Fore
SplineSet
8 0 m 1,0,-1
 8 48 l 1,1,-1
 24 48 l 1,2,-1
 24 24 l 1,3,-1
 32 24 l 1,4,-1
 32 32 l 1,5,-1
 40 32 l 0,6,-1
 40 40 l 0,7,-1
 56 40 l 0,8,-1
 56 32 l 0,9,-1
 48 32 l 1,10,-1
 48 24 l 1,11,-1
 40 24 l 1,12,-1
 40 16 l 1,13,-1
 48 16 l 1,14,-1
 48 8 l 1,15,-1
 56 8 l 1,16,-1
 56 0 l 1,17,-1
 40 0 l 1,18,-1
 40 8 l 1,19,-1
 32 8 l 1,20,-1
 32 16 l 1,21,-1
 24 16 l 1,22,-1
 24 0 l 1,23,-1
 8 0 l 1,0,-1
EndSplineSet
EndChar

StartChar: uniE34C
Encoding: 58188 58188 836
Width: 64
VWidth: 128
Flags: W
LayerCount: 2
UndoRedoHistory
Layer: 1
Undoes
UndoOperation
Index: 0
Type: 3
WasModified: 1
WasOrder2: 1
Layer: 2
EndUndoOperation
EndUndoes
Redoes
EndRedoes
EndUndoRedoHistory
Fore
SplineSet
40 48 m 1,0,-1
 40 8 l 1,1,-1
 48 8 l 1,2,-1
 48 0 l 1,3,-1
 16 0 l 1,4,-1
 16 8 l 1,5,-1
 24 8 l 1,6,-1
 24 40 l 1,7,-1
 16 40 l 1,8,-1
 16 48 l 1,9,-1
 40 48 l 1,0,-1
EndSplineSet
EndChar

StartChar: uniE34D
Encoding: 58189 58189 837
Width: 64
VWidth: 128
Flags: W
LayerCount: 2
UndoRedoHistory
Layer: 1
Undoes
UndoOperation
Index: 0
Type: 3
WasModified: 1
WasOrder2: 1
Layer: 2
EndUndoOperation
EndUndoes
Redoes
EndRedoes
EndUndoRedoHistory
Fore
SplineSet
8 0 m 1,0,-1
 8 40 l 1,1,-1
 56 40 l 1,2,-1
 56 32 l 1,3,-1
 64 32 l 1,4,-1
 64 0 l 1,5,-1
 48 0 l 1,6,-1
 48 32 l 1,7,-1
 40 32 l 1,8,-1
 40 0 l 1,9,-1
 32 0 l 1,10,-1
 32 32 l 1,11,-1
 24 32 l 1,12,-1
 24 0 l 1,13,-1
 8 0 l 1,0,-1
EndSplineSet
EndChar

StartChar: uniE34E
Encoding: 58190 58190 838
Width: 64
VWidth: 128
Flags: W
LayerCount: 2
UndoRedoHistory
Layer: 1
Undoes
UndoOperation
Index: 0
Type: 3
WasModified: 1
WasOrder2: 1
Layer: 2
EndUndoOperation
EndUndoes
Redoes
EndRedoes
EndUndoRedoHistory
Fore
SplineSet
8 0 m 1,0,-1
 8 40 l 1,1,-1
 48 40 l 1,2,-1
 48 32 l 1,3,-1
 56 32 l 1,4,-1
 56 0 l 1,5,-1
 40 0 l 1,6,-1
 40 32 l 1,7,-1
 24 32 l 1,8,-1
 24 0 l 1,9,-1
 8 0 l 1,0,-1
EndSplineSet
EndChar

StartChar: uniE34F
Encoding: 58191 58191 839
Width: 64
VWidth: 128
Flags: W
LayerCount: 2
UndoRedoHistory
Layer: 1
Undoes
UndoOperation
Index: 0
Type: 3
WasModified: 1
WasOrder2: 1
Layer: 2
EndUndoOperation
EndUndoes
Redoes
EndRedoes
EndUndoRedoHistory
Fore
SplineSet
24 8 m 1,0,-1
 40 8 l 1,1,-1
 40 32 l 1,2,-1
 24 32 l 1,3,-1
 24 8 l 1,0,-1
16 0 m 1,4,-1
 16 8 l 1,5,-1
 8 8 l 1,6,-1
 8 32 l 1,7,-1
 16 32 l 1,8,-1
 16 40 l 1,9,-1
 48 40 l 1,10,-1
 48 32 l 1,11,-1
 56 32 l 1,12,-1
 56 8 l 1,13,-1
 48 8 l 1,14,-1
 48 0 l 1,15,-1
 16 0 l 1,4,-1
EndSplineSet
EndChar

StartChar: uniE350
Encoding: 58192 58192 840
Width: 64
VWidth: 128
Flags: W
LayerCount: 2
UndoRedoHistory
Layer: 1
Undoes
UndoOperation
Index: 0
Type: 3
WasModified: 1
WasOrder2: 1
Layer: 2
EndUndoOperation
EndUndoes
Redoes
EndRedoes
EndUndoRedoHistory
Fore
SplineSet
24 8 m 1,0,-1
 40 8 l 1,1,-1
 40 32 l 1,2,-1
 24 32 l 1,3,-1
 24 8 l 1,0,-1
8 -8 m 1,4,-1
 8 40 l 1,5,-1
 48 40 l 1,6,-1
 48 32 l 1,7,-1
 56 32 l 1,8,-1
 56 8 l 1,9,-1
 48 8 l 1,10,-1
 48 0 l 1,11,-1
 24 0 l 1,12,-1
 24 -8 l 1,13,-1
 8 -8 l 1,4,-1
EndSplineSet
EndChar

StartChar: uniE351
Encoding: 58193 58193 841
Width: 64
VWidth: 128
Flags: W
LayerCount: 2
UndoRedoHistory
Layer: 1
Undoes
UndoOperation
Index: 0
Type: 3
WasModified: 1
WasOrder2: 1
Layer: 2
EndUndoOperation
EndUndoes
Redoes
EndRedoes
EndUndoRedoHistory
Fore
SplineSet
40 16 m 1,0,-1
 40 32 l 1,1,-1
 24 32 l 1,2,-1
 24 8 l 1,3,-1
 32 8 l 0,4,-1
 32 16 l 0,5,-1
 40 16 l 1,0,-1
56 -8 m 1,6,-1
 40 -8 l 1,7,-1
 40 8 l 1,8,-1
 32 8 l 0,9,-1
 32 0 l 0,10,-1
 16 0 l 1,11,-1
 16 8 l 1,12,-1
 8 8 l 1,13,-1
 8 32 l 1,14,-1
 16 32 l 1,15,-1
 16 40 l 1,16,-1
 56 40 l 1,17,-1
 56 -8 l 1,6,-1
EndSplineSet
EndChar

StartChar: uniE352
Encoding: 58194 58194 842
Width: 64
VWidth: 128
Flags: W
LayerCount: 2
UndoRedoHistory
Layer: 1
Undoes
UndoOperation
Index: 0
Type: 3
WasModified: 1
WasOrder2: 1
Layer: 2
EndUndoOperation
EndUndoes
Redoes
EndRedoes
EndUndoRedoHistory
Fore
SplineSet
8 0 m 1,0,-1
 8 8 l 0,1,-1
 16 8 l 0,2,-1
 16 32 l 0,3,-1
 8 32 l 0,4,-1
 8 40 l 1,5,-1
 32 40 l 1,6,-1
 32 32 l 0,7,-1
 40 32 l 0,8,-1
 40 40 l 1,9,-1
 56 40 l 1,10,-1
 56 32 l 1,11,-1
 40 32 l 1,12,-1
 40 24 l 1,13,-1
 32 24 l 1,14,-1
 32 8 l 0,15,-1
 40 8 l 0,16,-1
 40 0 l 1,17,-1
 8 0 l 1,0,-1
EndSplineSet
EndChar

StartChar: uniE353
Encoding: 58195 58195 843
Width: 64
VWidth: 128
Flags: W
LayerCount: 2
UndoRedoHistory
Layer: 1
Undoes
UndoOperation
Index: 0
Type: 3
WasModified: 1
WasOrder2: 1
Layer: 2
EndUndoOperation
EndUndoes
Redoes
EndRedoes
EndUndoRedoHistory
Fore
SplineSet
48 40 m 1,0,-1
 48 32 l 1,1,-1
 24 32 l 1,2,-1
 24 24 l 1,3,-1
 56 24 l 1,4,-1
 56 8 l 1,5,-1
 48 8 l 1,6,-1
 48 0 l 1,7,-1
 8 0 l 1,8,-1
 8 8 l 1,9,-1
 40 8 l 1,10,-1
 40 16 l 1,11,-1
 8 16 l 1,12,-1
 8 32 l 1,13,-1
 16 32 l 1,14,-1
 16 40 l 1,15,-1
 48 40 l 1,0,-1
EndSplineSet
EndChar

StartChar: uniE355
Encoding: 58197 58197 845
Width: 64
VWidth: 128
Flags: W
LayerCount: 2
UndoRedoHistory
Layer: 1
Undoes
UndoOperation
Index: 0
Type: 3
WasModified: 1
WasOrder2: 1
Layer: 2
EndUndoOperation
EndUndoes
Redoes
EndRedoes
EndUndoRedoHistory
Fore
SplineSet
56 40 m 1,0,-1
 56 0 l 1,1,-1
 16 0 l 1,2,-1
 16 8 l 1,3,-1
 8 8 l 1,4,-1
 8 40 l 1,5,-1
 24 40 l 1,6,-1
 24 8 l 1,7,-1
 40 8 l 1,8,-1
 40 40 l 1,9,-1
 56 40 l 1,0,-1
EndSplineSet
EndChar

StartChar: uniE356
Encoding: 58198 58198 846
Width: 64
VWidth: 128
Flags: W
LayerCount: 2
UndoRedoHistory
Layer: 1
Undoes
UndoOperation
Index: 0
Type: 3
WasModified: 1
WasOrder2: 1
Layer: 2
EndUndoOperation
EndUndoes
Redoes
EndRedoes
EndUndoRedoHistory
Fore
SplineSet
24 0 m 1,0,-1
 24 8 l 1,1,-1
 16 8 l 1,2,-1
 16 16 l 1,3,-1
 8 16 l 1,4,-1
 8 40 l 1,5,-1
 24 40 l 1,6,-1
 24 16 l 1,7,-1
 40 16 l 1,8,-1
 40 40 l 1,9,-1
 56 40 l 1,10,-1
 56 16 l 1,11,-1
 48 16 l 1,12,-1
 48 8 l 1,13,-1
 40 8 l 1,14,-1
 40 0 l 1,15,-1
 24 0 l 1,0,-1
EndSplineSet
EndChar

StartChar: uniE357
Encoding: 58199 58199 847
Width: 64
VWidth: 128
Flags: W
LayerCount: 2
UndoRedoHistory
Layer: 1
Undoes
UndoOperation
Index: 0
Type: 3
WasModified: 1
WasOrder2: 1
Layer: 2
EndUndoOperation
EndUndoes
Redoes
EndRedoes
EndUndoRedoHistory
Fore
SplineSet
16 0 m 1,0,-1
 16 8 l 1,1,-1
 8 8 l 1,2,-1
 8 40 l 1,3,-1
 24 40 l 1,4,-1
 24 16 l 1,5,-1
 32 16 l 1,6,-1
 32 32 l 1,7,-1
 40 32 l 1,8,-1
 40 16 l 1,9,-1
 48 16 l 1,10,-1
 48 40 l 1,11,-1
 64 40 l 1,12,-1
 64 8 l 1,13,-1
 56 8 l 1,14,-1
 56 0 l 1,15,-1
 40 0 l 1,16,-1
 40 8 l 1,17,-1
 32 8 l 1,18,-1
 32 0 l 1,19,-1
 16 0 l 1,0,-1
EndSplineSet
EndChar

StartChar: uniE358
Encoding: 58200 58200 848
Width: 64
VWidth: 128
Flags: W
LayerCount: 2
UndoRedoHistory
Layer: 1
Undoes
UndoOperation
Index: 0
Type: 3
WasModified: 1
WasOrder2: 1
Layer: 2
EndUndoOperation
EndUndoes
Redoes
EndRedoes
EndUndoRedoHistory
Fore
SplineSet
8 0 m 1,0,-1
 8 8 l 1,1,-1
 16 8 l 1,2,-1
 16 16 l 1,3,-1
 24 16 l 1,4,-1
 24 24 l 1,5,-1
 16 24 l 1,6,-1
 16 32 l 1,7,-1
 8 32 l 1,8,-1
 8 40 l 1,9,-1
 24 40 l 1,10,-1
 24 32 l 1,11,-1
 40 32 l 1,12,-1
 40 40 l 1,13,-1
 56 40 l 1,14,-1
 56 32 l 1,15,-1
 48 32 l 1,16,-1
 48 24 l 1,17,-1
 40 24 l 1,18,-1
 40 16 l 1,19,-1
 48 16 l 1,20,-1
 48 8 l 1,21,-1
 56 8 l 1,22,-1
 56 0 l 1,23,-1
 40 0 l 1,24,-1
 40 8 l 1,25,-1
 24 8 l 1,26,-1
 24 0 l 1,27,-1
 8 0 l 1,0,-1
EndSplineSet
EndChar

StartChar: uniE359
Encoding: 58201 58201 849
Width: 64
VWidth: 128
Flags: W
LayerCount: 2
UndoRedoHistory
Layer: 1
Undoes
UndoOperation
Index: 0
Type: 3
WasModified: 1
WasOrder2: 1
Layer: 2
EndUndoOperation
EndUndoes
Redoes
EndRedoes
EndUndoRedoHistory
Fore
SplineSet
56 40 m 1,0,-1
 56 0 l 1,1,-1
 48 0 l 1,2,-1
 48 -8 l 1,3,-1
 16 -8 l 1,4,-1
 16 0 l 1,5,-1
 40 0 l 1,6,-1
 40 8 l 1,7,-1
 16 8 l 1,8,-1
 16 16 l 1,9,-1
 8 16 l 1,10,-1
 8 40 l 1,11,-1
 24 40 l 1,12,-1
 24 16 l 1,13,-1
 40 16 l 1,14,-1
 40 40 l 1,15,-1
 56 40 l 1,0,-1
EndSplineSet
EndChar

StartChar: uniE35A
Encoding: 58202 58202 850
Width: 64
VWidth: 128
Flags: W
LayerCount: 2
UndoRedoHistory
Layer: 1
Undoes
UndoOperation
Index: 0
Type: 3
WasModified: 1
WasOrder2: 1
Layer: 2
EndUndoOperation
EndUndoes
Redoes
EndRedoes
EndUndoRedoHistory
Fore
SplineSet
8 0 m 1,0,-1
 8 8 l 1,1,-1
 16 8 l 1,2,-1
 16 16 l 1,3,-1
 24 16 l 1,4,-1
 24 24 l 1,5,-1
 32 24 l 1,6,-1
 32 32 l 1,7,-1
 8 32 l 1,8,-1
 8 40 l 1,9,-1
 56 40 l 1,10,-1
 56 32 l 1,11,-1
 48 32 l 1,12,-1
 48 24 l 1,13,-1
 40 24 l 1,14,-1
 40 16 l 1,15,-1
 32 16 l 1,16,-1
 32 8 l 1,17,-1
 56 8 l 1,18,-1
 56 0 l 1,19,-1
 8 0 l 1,0,-1
EndSplineSet
EndChar

StartChar: uniE35B
Encoding: 58203 58203 851
Width: 64
Flags: W
LayerCount: 2
UndoRedoHistory
Layer: 1
Undoes
UndoOperation
Index: 0
Type: 3
WasModified: 1
WasOrder2: 1
Layer: 2
EndUndoOperation
EndUndoes
Redoes
EndRedoes
EndUndoRedoHistory
Fore
SplineSet
16 0 m 1,0,-1
 16 48 l 1,1,-1
 48 48 l 1,2,-1
 48 40 l 1,3,-1
 32 40 l 1,4,-1
 32 8 l 1,5,-1
 48 8 l 1,6,-1
 48 0 l 1,7,-1
 16 0 l 1,0,-1
EndSplineSet
EndChar

StartChar: uniE35C
Encoding: 58204 58204 852
Width: 64
Flags: W
LayerCount: 2
UndoRedoHistory
Layer: 1
Undoes
UndoOperation
Index: 0
Type: 3
WasModified: 1
WasOrder2: 1
Layer: 2
EndUndoOperation
EndUndoes
Redoes
EndRedoes
EndUndoRedoHistory
Fore
SplineSet
8 0 m 1,0,-1
 8 8 l 1,1,-1
 16 8 l 1,2,-1
 16 16 l 1,3,-1
 8 16 l 1,4,-1
 8 24 l 1,5,-1
 16 24 l 1,6,-1
 16 40 l 1,7,-1
 24 40 l 1,8,-1
 24 48 l 1,9,-1
 48 48 l 1,10,-1
 48 40 l 1,11,-1
 56 40 l 1,12,-1
 56 32 l 1,13,-1
 48 32 l 1,14,-1
 48 40 l 1,15,-1
 32 40 l 1,16,-1
 32 24 l 1,17,-1
 40 24 l 1,18,-1
 40 16 l 1,19,-1
 32 16 l 1,20,-1
 32 8 l 1,21,-1
 56 8 l 1,22,-1
 56 0 l 1,23,-1
 8 0 l 1,0,-1
EndSplineSet
EndChar

StartChar: uniE35D
Encoding: 58205 58205 853
Width: 64
Flags: W
LayerCount: 2
UndoRedoHistory
Layer: 1
Undoes
UndoOperation
Index: 0
Type: 3
WasModified: 1
WasOrder2: 1
Layer: 2
EndUndoOperation
EndUndoes
Redoes
EndRedoes
EndUndoRedoHistory
Fore
SplineSet
48 48 m 1,0,-1
 48 0 l 1,1,-1
 16 0 l 1,2,-1
 16 8 l 1,3,-1
 32 8 l 1,4,-1
 32 40 l 1,5,-1
 16 40 l 1,6,-1
 16 48 l 1,7,-1
 48 48 l 1,0,-1
EndSplineSet
EndChar

StartChar: uniE35E
Encoding: 58206 58206 854
Width: 64
Flags: W
LayerCount: 2
UndoRedoHistory
Layer: 1
Undoes
UndoOperation
Index: 0
Type: 3
WasModified: 1
WasOrder2: 1
Layer: 2
EndUndoOperation
EndUndoes
Redoes
EndRedoes
EndUndoRedoHistory
Fore
SplineSet
24 0 m 1,0,-1
 24 24 l 1,1,-1
 8 24 l 1,2,-1
 8 32 l 1,3,-1
 16 32 l 1,4,-1
 16 40 l 1,5,-1
 24 40 l 1,6,-1
 24 48 l 1,7,-1
 40 48 l 1,8,-1
 40 40 l 1,9,-1
 48 40 l 1,10,-1
 48 32 l 1,11,-1
 56 32 l 1,12,-1
 56 24 l 1,13,-1
 40 24 l 1,14,-1
 40 0 l 1,15,-1
 24 0 l 1,0,-1
EndSplineSet
EndChar

StartChar: uniE35F
Encoding: 58207 58207 855
Width: 64
VWidth: 128
Flags: W
LayerCount: 2
UndoRedoHistory
Layer: 1
Undoes
UndoOperation
Index: 0
Type: 3
WasModified: 1
WasOrder2: 1
Layer: 2
EndUndoOperation
EndUndoes
Redoes
EndRedoes
EndUndoRedoHistory
Fore
SplineSet
56 16 m 1,0,-1
 32 16 l 1,1,-1
 32 0 l 1,2,-1
 24 0 l 1,3,-1
 24 8 l 1,4,-1
 16 8 l 1,5,-1
 16 16 l 1,6,-1
 8 16 l 1,7,-1
 8 32 l 1,8,-1
 16 32 l 1,9,-1
 16 40 l 1,10,-1
 24 40 l 1,11,-1
 24 48 l 1,12,-1
 32 48 l 1,13,-1
 32 32 l 1,14,-1
 56 32 l 1,15,-1
 56 16 l 1,0,-1
EndSplineSet
EndChar

StartChar: uniE360
Encoding: 58208 58208 856
Width: 64
Flags: W
LayerCount: 2
UndoRedoHistory
Layer: 1
Undoes
UndoOperation
Index: 0
Type: 3
WasModified: 1
WasOrder2: 1
Layer: 2
EndUndoOperation
EndUndoes
Redoes
EndRedoes
EndUndoRedoHistory
Fore
SplineSet
0 16 m 1,0,-1
 0 32 l 1,1,-1
 64 32 l 1,2,-1
 64 16 l 1,3,-1
 0 16 l 1,0,-1
EndSplineSet
EndChar

StartChar: uniE361
Encoding: 58209 58209 857
Width: 64
Flags: W
LayerCount: 2
UndoRedoHistory
Layer: 1
Undoes
UndoOperation
Index: 0
Type: 3
WasModified: 1
WasOrder2: 1
Layer: 2
EndUndoOperation
EndUndoes
Redoes
EndRedoes
EndUndoRedoHistory
Fore
SplineSet
24 24 m 1,0,-1
 40 24 l 1,1,-1
 40 40 l 1,2,-1
 24 40 l 1,3,-1
 24 24 l 1,0,-1
8 0 m 1,4,-1
 8 40 l 1,5,-1
 16 40 l 1,6,-1
 16 48 l 1,7,-1
 48 48 l 1,8,-1
 48 40 l 1,9,-1
 56 40 l 1,10,-1
 56 0 l 1,11,-1
 40 0 l 1,12,-1
 40 16 l 1,13,-1
 24 16 l 1,14,-1
 24 0 l 1,15,-1
 8 0 l 1,4,-1
EndSplineSet
EndChar

StartChar: uniE362
Encoding: 58210 58210 858
Width: 64
Flags: W
LayerCount: 2
UndoRedoHistory
Layer: 1
Undoes
UndoOperation
Index: 0
Type: 3
WasModified: 1
WasOrder2: 1
Layer: 2
EndUndoOperation
EndUndoes
Redoes
EndRedoes
EndUndoRedoHistory
Fore
SplineSet
24 32 m 1,0,-1
 40 32 l 1,1,-1
 40 40 l 1,2,-1
 24 40 l 1,3,-1
 24 32 l 1,0,-1
24 8 m 1,4,-1
 40 8 l 1,5,-1
 40 24 l 1,6,-1
 24 24 l 1,7,-1
 24 8 l 1,4,-1
8 0 m 1,8,-1
 8 48 l 1,9,-1
 48 48 l 1,10,-1
 48 40 l 1,11,-1
 56 40 l 1,12,-1
 56 32 l 1,13,-1
 48 32 l 1,14,-1
 48 24 l 1,15,-1
 56 24 l 1,16,-1
 56 8 l 1,17,-1
 48 8 l 1,18,-1
 48 0 l 1,19,-1
 8 0 l 1,8,-1
EndSplineSet
EndChar

StartChar: uniE363
Encoding: 58211 58211 859
Width: 64
Flags: W
LayerCount: 2
UndoRedoHistory
Layer: 1
Undoes
UndoOperation
Index: 0
Type: 3
WasModified: 1
WasOrder2: 1
Layer: 2
EndUndoOperation
EndUndoes
Redoes
EndRedoes
EndUndoRedoHistory
Fore
SplineSet
16 0 m 1,0,-1
 16 8 l 1,1,-1
 8 8 l 1,2,-1
 8 40 l 1,3,-1
 16 40 l 1,4,-1
 16 48 l 1,5,-1
 48 48 l 1,6,-1
 48 40 l 1,7,-1
 24 40 l 1,8,-1
 24 8 l 1,9,-1
 48 8 l 1,10,-1
 48 0 l 1,11,-1
 16 0 l 1,0,-1
EndSplineSet
EndChar

StartChar: uniE364
Encoding: 58212 58212 860
Width: 64
Flags: W
LayerCount: 2
UndoRedoHistory
Layer: 1
Undoes
UndoOperation
Index: 0
Type: 3
WasModified: 1
WasOrder2: 1
Layer: 2
EndUndoOperation
EndUndoes
Redoes
EndRedoes
EndUndoRedoHistory
Fore
SplineSet
24 8 m 1,0,-1
 40 8 l 1,1,-1
 40 40 l 1,2,-1
 24 40 l 1,3,-1
 24 8 l 1,0,-1
8 0 m 1,4,-1
 8 48 l 1,5,-1
 48 48 l 1,6,-1
 48 40 l 1,7,-1
 56 40 l 1,8,-1
 56 8 l 1,9,-1
 48 8 l 1,10,-1
 48 0 l 1,11,-1
 8 0 l 1,4,-1
EndSplineSet
EndChar

StartChar: uniE365
Encoding: 58213 58213 861
Width: 64
Flags: W
LayerCount: 2
UndoRedoHistory
Layer: 1
Undoes
UndoOperation
Index: 0
Type: 3
WasModified: 1
WasOrder2: 1
Layer: 2
EndUndoOperation
EndUndoes
Redoes
EndRedoes
EndUndoRedoHistory
Fore
SplineSet
56 48 m 1,0,-1
 56 40 l 1,1,-1
 24 40 l 1,2,-1
 24 32 l 1,3,-1
 48 32 l 1,4,-1
 48 24 l 1,5,-1
 24 24 l 1,6,-1
 24 8 l 1,7,-1
 56 8 l 1,8,-1
 56 0 l 1,9,-1
 8 0 l 1,10,-1
 8 48 l 1,11,-1
 56 48 l 1,0,-1
EndSplineSet
EndChar

StartChar: uniE366
Encoding: 58214 58214 862
Width: 64
Flags: W
LayerCount: 2
UndoRedoHistory
Layer: 1
Undoes
UndoOperation
Index: 0
Type: 3
WasModified: 1
WasOrder2: 1
Layer: 2
EndUndoOperation
EndUndoes
Redoes
EndRedoes
EndUndoRedoHistory
Fore
SplineSet
8 0 m 1,0,-1
 8 48 l 1,1,-1
 56 48 l 1,2,-1
 56 40 l 1,3,-1
 24 40 l 1,4,-1
 24 32 l 1,5,-1
 48 32 l 1,6,-1
 48 24 l 1,7,-1
 24 24 l 1,8,-1
 24 0 l 1,9,-1
 8 0 l 1,0,-1
EndSplineSet
EndChar

StartChar: uniE367
Encoding: 58215 58215 863
Width: 64
Flags: W
LayerCount: 2
UndoRedoHistory
Layer: 1
Undoes
UndoOperation
Index: 0
Type: 3
WasModified: 1
WasOrder2: 1
Layer: 2
EndUndoOperation
EndUndoes
Redoes
EndRedoes
EndUndoRedoHistory
Fore
SplineSet
16 0 m 1,0,-1
 16 8 l 1,1,-1
 8 8 l 1,2,-1
 8 40 l 1,3,-1
 16 40 l 1,4,-1
 16 48 l 1,5,-1
 56 48 l 1,6,-1
 56 40 l 1,7,-1
 24 40 l 1,8,-1
 24 8 l 1,9,-1
 40 8 l 1,10,-1
 40 24 l 1,11,-1
 32 24 l 1,12,-1
 32 32 l 1,13,-1
 56 32 l 1,14,-1
 56 0 l 1,15,-1
 16 0 l 1,0,-1
EndSplineSet
EndChar

StartChar: uniE368
Encoding: 58216 58216 864
Width: 64
Flags: W
LayerCount: 2
UndoRedoHistory
Layer: 1
Undoes
UndoOperation
Index: 0
Type: 3
WasModified: 1
WasOrder2: 1
Layer: 2
EndUndoOperation
EndUndoes
Redoes
EndRedoes
EndUndoRedoHistory
Fore
SplineSet
8 0 m 1,0,-1
 8 48 l 1,1,-1
 24 48 l 1,2,-1
 24 32 l 1,3,-1
 40 32 l 1,4,-1
 40 48 l 1,5,-1
 56 48 l 1,6,-1
 56 0 l 1,7,-1
 40 0 l 1,8,-1
 40 24 l 1,9,-1
 24 24 l 1,10,-1
 24 0 l 1,11,-1
 8 0 l 1,0,-1
EndSplineSet
EndChar

StartChar: uniE369
Encoding: 58217 58217 865
Width: 64
Flags: W
LayerCount: 2
UndoRedoHistory
Layer: 1
Undoes
UndoOperation
Index: 0
Type: 3
WasModified: 1
WasOrder2: 1
Layer: 2
EndUndoOperation
EndUndoes
Redoes
EndRedoes
EndUndoRedoHistory
Fore
SplineSet
48 48 m 1,0,-1
 48 40 l 1,1,-1
 40 40 l 1,2,-1
 40 8 l 1,3,-1
 48 8 l 1,4,-1
 48 0 l 1,5,-1
 16 0 l 1,6,-1
 16 8 l 1,7,-1
 24 8 l 1,8,-1
 24 40 l 1,9,-1
 16 40 l 1,10,-1
 16 48 l 1,11,-1
 48 48 l 1,0,-1
EndSplineSet
EndChar

StartChar: uniE36A
Encoding: 58218 58218 866
Width: 64
Flags: W
LayerCount: 2
UndoRedoHistory
Layer: 1
Undoes
UndoOperation
Index: 0
Type: 3
WasModified: 1
WasOrder2: 1
Layer: 2
EndUndoOperation
EndUndoes
Redoes
EndRedoes
EndUndoRedoHistory
Fore
SplineSet
16 0 m 1,0,-1
 16 8 l 1,1,-1
 8 8 l 1,2,-1
 8 16 l 1,3,-1
 24 16 l 1,4,-1
 24 8 l 1,5,-1
 32 8 l 1,6,-1
 32 40 l 1,7,-1
 24 40 l 1,8,-1
 24 48 l 1,9,-1
 48 48 l 1,10,-1
 48 8 l 1,11,-1
 40 8 l 1,12,-1
 40 0 l 1,13,-1
 16 0 l 1,0,-1
EndSplineSet
EndChar

StartChar: uniE36B
Encoding: 58219 58219 867
Width: 64
Flags: W
LayerCount: 2
UndoRedoHistory
Layer: 1
Undoes
UndoOperation
Index: 0
Type: 3
WasModified: 1
WasOrder2: 1
Layer: 2
EndUndoOperation
EndUndoes
Redoes
EndRedoes
EndUndoRedoHistory
Fore
SplineSet
8 0 m 1,0,-1
 8 48 l 1,1,-1
 24 48 l 1,2,-1
 24 32 l 1,3,-1
 32 32 l 1,4,-1
 32 40 l 1,5,-1
 40 40 l 1,6,-1
 40 48 l 1,7,-1
 56 48 l 1,8,-1
 56 40 l 1,9,-1
 48 40 l 1,10,-1
 48 32 l 1,11,-1
 40 32 l 1,12,-1
 40 16 l 1,13,-1
 48 16 l 1,14,-1
 48 8 l 1,15,-1
 56 8 l 1,16,-1
 56 0 l 1,17,-1
 40 0 l 1,18,-1
 40 8 l 1,19,-1
 32 8 l 1,20,-1
 32 16 l 1,21,-1
 24 16 l 1,22,-1
 24 0 l 1,23,-1
 8 0 l 1,0,-1
EndSplineSet
EndChar

StartChar: uniE36C
Encoding: 58220 58220 868
Width: 64
Flags: W
LayerCount: 2
UndoRedoHistory
Layer: 1
Undoes
UndoOperation
Index: 0
Type: 3
WasModified: 1
WasOrder2: 1
Layer: 2
EndUndoOperation
EndUndoes
Redoes
EndRedoes
EndUndoRedoHistory
Fore
SplineSet
24 48 m 1,0,-1
 24 8 l 1,1,-1
 56 8 l 1,2,-1
 56 0 l 1,3,-1
 8 0 l 1,4,-1
 8 48 l 1,5,-1
 24 48 l 1,0,-1
EndSplineSet
EndChar

StartChar: uniE36D
Encoding: 58221 58221 869
Width: 64
Flags: W
LayerCount: 2
UndoRedoHistory
Layer: 1
Undoes
UndoOperation
Index: 0
Type: 3
WasModified: 1
WasOrder2: 1
Layer: 2
EndUndoOperation
EndUndoes
Redoes
EndRedoes
EndUndoRedoHistory
Fore
SplineSet
8 0 m 1,0,-1
 8 48 l 1,1,-1
 24 48 l 1,2,-1
 24 40 l 1,3,-1
 32 40 l 1,4,-1
 32 32 l 1,5,-1
 40 32 l 1,6,-1
 40 40 l 1,7,-1
 48 40 l 1,8,-1
 48 48 l 1,9,-1
 64 48 l 1,10,-1
 64 0 l 1,11,-1
 48 0 l 1,12,-1
 48 24 l 1,13,-1
 40 24 l 1,14,-1
 40 16 l 1,15,-1
 32 16 l 1,16,-1
 32 24 l 1,17,-1
 24 24 l 1,18,-1
 24 0 l 1,19,-1
 8 0 l 1,0,-1
EndSplineSet
EndChar

StartChar: uniE36E
Encoding: 58222 58222 870
Width: 64
Flags: W
LayerCount: 2
UndoRedoHistory
Layer: 1
Undoes
UndoOperation
Index: 0
Type: 3
WasModified: 1
WasOrder2: 1
Layer: 2
EndUndoOperation
EndUndoes
Redoes
EndRedoes
EndUndoRedoHistory
Fore
SplineSet
8 0 m 1,0,-1
 8 48 l 1,1,-1
 24 48 l 1,2,-1
 24 40 l 1,3,-1
 32 40 l 1,4,-1
 32 32 l 1,5,-1
 40 32 l 1,6,-1
 40 48 l 1,7,-1
 56 48 l 1,8,-1
 56 0 l 1,9,-1
 40 0 l 1,10,-1
 40 16 l 1,11,-1
 32 16 l 1,12,-1
 32 24 l 1,13,-1
 24 24 l 1,14,-1
 24 0 l 1,15,-1
 8 0 l 1,0,-1
EndSplineSet
EndChar

StartChar: uniE36F
Encoding: 58223 58223 871
Width: 64
Flags: W
LayerCount: 2
UndoRedoHistory
Layer: 1
Undoes
UndoOperation
Index: 0
Type: 3
WasModified: 1
WasOrder2: 1
Layer: 2
EndUndoOperation
EndUndoes
Redoes
EndRedoes
EndUndoRedoHistory
Fore
SplineSet
24 8 m 1,0,-1
 40 8 l 1,1,-1
 40 40 l 1,2,-1
 24 40 l 1,3,-1
 24 8 l 1,0,-1
16 0 m 1,4,-1
 16 8 l 1,5,-1
 8 8 l 1,6,-1
 8 40 l 1,7,-1
 16 40 l 1,8,-1
 16 48 l 1,9,-1
 48 48 l 1,10,-1
 48 40 l 1,11,-1
 56 40 l 1,12,-1
 56 8 l 1,13,-1
 48 8 l 1,14,-1
 48 0 l 1,15,-1
 16 0 l 1,4,-1
EndSplineSet
EndChar

StartChar: uniE370
Encoding: 58224 58224 872
Width: 64
Flags: W
LayerCount: 2
UndoRedoHistory
Layer: 1
Undoes
UndoOperation
Index: 0
Type: 3
WasModified: 1
WasOrder2: 1
Layer: 2
EndUndoOperation
EndUndoes
Redoes
EndRedoes
EndUndoRedoHistory
Fore
SplineSet
24 24 m 1,0,-1
 40 24 l 1,1,-1
 40 40 l 1,2,-1
 24 40 l 1,3,-1
 24 24 l 1,0,-1
8 0 m 1,4,-1
 8 48 l 1,5,-1
 48 48 l 1,6,-1
 48 40 l 1,7,-1
 56 40 l 1,8,-1
 56 24 l 1,9,-1
 48 24 l 1,10,-1
 48 16 l 1,11,-1
 24 16 l 1,12,-1
 24 0 l 1,13,-1
 8 0 l 1,4,-1
EndSplineSet
EndChar

StartChar: uniE371
Encoding: 58225 58225 873
Width: 64
Flags: W
LayerCount: 2
UndoRedoHistory
Layer: 1
Undoes
UndoOperation
Index: 0
Type: 3
WasModified: 1
WasOrder2: 1
Layer: 2
EndUndoOperation
EndUndoes
Redoes
EndRedoes
EndUndoRedoHistory
Fore
SplineSet
24 8 m 1,0,-1
 40 8 l 1,1,-1
 40 40 l 1,2,-1
 24 40 l 1,3,-1
 24 8 l 1,0,-1
32 -8 m 1,4,-1
 32 0 l 1,5,-1
 16 0 l 1,6,-1
 16 8 l 1,7,-1
 8 8 l 1,8,-1
 8 40 l 1,9,-1
 16 40 l 1,10,-1
 16 48 l 1,11,-1
 48 48 l 1,12,-1
 48 40 l 1,13,-1
 56 40 l 1,14,-1
 56 8 l 1,15,-1
 48 8 l 1,16,-1
 48 0 l 1,17,-1
 56 0 l 1,18,-1
 56 -8 l 1,19,-1
 32 -8 l 1,4,-1
EndSplineSet
EndChar

StartChar: uniE372
Encoding: 58226 58226 874
Width: 64
Flags: W
LayerCount: 2
UndoRedoHistory
Layer: 1
Undoes
UndoOperation
Index: 0
Type: 3
WasModified: 1
WasOrder2: 1
Layer: 2
EndUndoOperation
EndUndoes
Redoes
EndRedoes
EndUndoRedoHistory
Fore
SplineSet
24 24 m 1,0,-1
 40 24 l 1,1,-1
 40 40 l 1,2,-1
 24 40 l 1,3,-1
 24 24 l 1,0,-1
8 0 m 1,4,-1
 8 48 l 1,5,-1
 48 48 l 1,6,-1
 48 40 l 1,7,-1
 56 40 l 1,8,-1
 56 24 l 1,9,-1
 48 24 l 1,10,-1
 48 16 l 1,11,-1
 56 16 l 1,12,-1
 56 0 l 1,13,-1
 40 0 l 1,14,-1
 40 16 l 1,15,-1
 24 16 l 1,16,-1
 24 0 l 1,17,-1
 8 0 l 1,4,-1
EndSplineSet
EndChar

StartChar: uniE373
Encoding: 58227 58227 875
Width: 64
Flags: W
LayerCount: 2
UndoRedoHistory
Layer: 1
Undoes
UndoOperation
Index: 0
Type: 3
WasModified: 1
WasOrder2: 1
Layer: 2
EndUndoOperation
EndUndoes
Redoes
EndRedoes
EndUndoRedoHistory
Fore
SplineSet
8 0 m 1,0,-1
 8 8 l 1,1,-1
 40 8 l 1,2,-1
 40 16 l 1,3,-1
 24 16 l 1,4,-1
 24 24 l 1,5,-1
 8 24 l 1,6,-1
 8 40 l 1,7,-1
 16 40 l 1,8,-1
 16 48 l 1,9,-1
 48 48 l 1,10,-1
 48 40 l 1,11,-1
 24 40 l 1,12,-1
 24 32 l 1,13,-1
 40 32 l 1,14,-1
 40 24 l 1,15,-1
 56 24 l 1,16,-1
 56 8 l 1,17,-1
 48 8 l 1,18,-1
 48 0 l 1,19,-1
 8 0 l 1,0,-1
EndSplineSet
EndChar

StartChar: uniE374
Encoding: 58228 58228 876
Width: 64
Flags: W
LayerCount: 2
UndoRedoHistory
Layer: 1
Undoes
UndoOperation
Index: 0
Type: 3
WasModified: 1
WasOrder2: 1
Layer: 2
EndUndoOperation
EndUndoes
Redoes
EndRedoes
EndUndoRedoHistory
Fore
SplineSet
24 0 m 1,0,-1
 24 40 l 1,1,-1
 8 40 l 1,2,-1
 8 48 l 1,3,-1
 56 48 l 1,4,-1
 56 40 l 1,5,-1
 40 40 l 1,6,-1
 40 0 l 1,7,-1
 24 0 l 1,0,-1
EndSplineSet
EndChar

StartChar: uniE375
Encoding: 58229 58229 877
Width: 64
Flags: W
LayerCount: 2
UndoRedoHistory
Layer: 1
Undoes
UndoOperation
Index: 0
Type: 3
WasModified: 1
WasOrder2: 1
Layer: 2
EndUndoOperation
EndUndoes
Redoes
EndRedoes
EndUndoRedoHistory
Fore
SplineSet
16 0 m 1,0,-1
 16 8 l 1,1,-1
 8 8 l 1,2,-1
 8 48 l 1,3,-1
 24 48 l 1,4,-1
 24 8 l 1,5,-1
 40 8 l 1,6,-1
 40 48 l 1,7,-1
 56 48 l 1,8,-1
 56 8 l 1,9,-1
 48 8 l 1,10,-1
 48 0 l 1,11,-1
 16 0 l 1,0,-1
EndSplineSet
EndChar

StartChar: uniE376
Encoding: 58230 58230 878
Width: 64
Flags: W
LayerCount: 2
UndoRedoHistory
Layer: 1
Undoes
UndoOperation
Index: 0
Type: 3
WasModified: 1
WasOrder2: 1
Layer: 2
EndUndoOperation
EndUndoes
Redoes
EndRedoes
EndUndoRedoHistory
Fore
SplineSet
24 0 m 1,0,-1
 24 8 l 1,1,-1
 16 8 l 1,2,-1
 16 16 l 1,3,-1
 8 16 l 1,4,-1
 8 48 l 5,5,-1
 24 48 l 5,6,-1
 24 16 l 1,7,-1
 40 16 l 1,8,-1
 40 48 l 5,9,-1
 56 48 l 5,10,-1
 56 16 l 1,11,-1
 48 16 l 1,12,-1
 48 8 l 1,13,-1
 40 8 l 1,14,-1
 40 0 l 1,15,-1
 24 0 l 1,0,-1
EndSplineSet
EndChar

StartChar: uniE377
Encoding: 58231 58231 879
Width: 64
Flags: W
LayerCount: 2
UndoRedoHistory
Layer: 1
Undoes
UndoOperation
Index: 0
Type: 3
WasModified: 1
WasOrder2: 1
Layer: 2
EndUndoOperation
EndUndoes
Redoes
EndRedoes
EndUndoRedoHistory
Fore
SplineSet
64 48 m 1,0,-1
 64 8 l 1,1,-1
 56 8 l 1,2,-1
 56 0 l 1,3,-1
 40 0 l 1,4,-1
 40 8 l 1,5,-1
 32 8 l 1,6,-1
 32 0 l 1,7,-1
 16 0 l 1,8,-1
 16 8 l 1,9,-1
 8 8 l 1,10,-1
 8 48 l 1,11,-1
 24 48 l 1,12,-1
 24 16 l 1,13,-1
 32 16 l 1,14,-1
 32 32 l 1,15,-1
 40 32 l 1,16,-1
 40 16 l 1,17,-1
 48 16 l 1,18,-1
 48 48 l 1,19,-1
 64 48 l 1,0,-1
EndSplineSet
EndChar

StartChar: uniE378
Encoding: 58232 58232 880
Width: 64
Flags: W
LayerCount: 2
UndoRedoHistory
Layer: 1
Undoes
UndoOperation
Index: 0
Type: 3
WasModified: 1
WasOrder2: 1
Layer: 2
EndUndoOperation
EndUndoes
Redoes
EndRedoes
EndUndoRedoHistory
Fore
SplineSet
56 48 m 1,0,-1
 56 32 l 1,1,-1
 48 32 l 1,2,-1
 48 16 l 1,3,-1
 56 16 l 1,4,-1
 56 0 l 1,5,-1
 40 0 l 1,6,-1
 40 16 l 1,7,-1
 24 16 l 1,8,-1
 24 0 l 1,9,-1
 8 0 l 1,10,-1
 8 16 l 1,11,-1
 16 16 l 1,12,-1
 16 32 l 1,13,-1
 8 32 l 1,14,-1
 8 48 l 1,15,-1
 24 48 l 1,16,-1
 24 32 l 1,17,-1
 40 32 l 1,18,-1
 40 48 l 1,19,-1
 56 48 l 1,0,-1
EndSplineSet
EndChar

StartChar: uniE379
Encoding: 58233 58233 881
Width: 64
Flags: W
LayerCount: 2
UndoRedoHistory
Layer: 1
Undoes
UndoOperation
Index: 0
Type: 3
WasModified: 1
WasOrder2: 1
Layer: 2
EndUndoOperation
EndUndoes
Redoes
EndRedoes
EndUndoRedoHistory
Fore
SplineSet
24 0 m 1,0,-1
 24 24 l 1,1,-1
 16 24 l 1,2,-1
 16 32 l 1,3,-1
 8 32 l 1,4,-1
 8 48 l 1,5,-1
 24 48 l 1,6,-1
 24 32 l 1,7,-1
 40 32 l 1,8,-1
 40 48 l 1,9,-1
 56 48 l 1,10,-1
 56 32 l 1,11,-1
 48 32 l 1,12,-1
 48 24 l 1,13,-1
 40 24 l 1,14,-1
 40 0 l 1,15,-1
 24 0 l 1,0,-1
EndSplineSet
EndChar

StartChar: uniE37A
Encoding: 58234 58234 882
Width: 64
Flags: W
LayerCount: 2
UndoRedoHistory
Layer: 1
Undoes
UndoOperation
Index: 0
Type: 3
WasModified: 1
WasOrder2: 1
Layer: 2
EndUndoOperation
EndUndoes
Redoes
EndRedoes
EndUndoRedoHistory
Fore
SplineSet
8 0 m 1,0,-1
 8 16 l 1,1,-1
 16 16 l 1,2,-1
 16 24 l 1,3,-1
 24 24 l 1,4,-1
 24 32 l 1,5,-1
 32 32 l 1,6,-1
 32 40 l 1,7,-1
 8 40 l 1,8,-1
 8 48 l 1,9,-1
 56 48 l 1,10,-1
 56 40 l 1,11,-1
 48 40 l 1,12,-1
 48 32 l 1,13,-1
 40 32 l 1,14,-1
 40 24 l 1,15,-1
 32 24 l 1,16,-1
 32 16 l 1,17,-1
 24 16 l 1,18,-1
 24 8 l 1,19,-1
 56 8 l 1,20,-1
 56 0 l 1,21,-1
 8 0 l 1,0,-1
EndSplineSet
EndChar

StartChar: uniE37B
Encoding: 58235 58235 883
Width: 64
Flags: W
LayerCount: 2
UndoRedoHistory
Layer: 1
Undoes
UndoOperation
Index: 0
Type: 3
WasModified: 1
WasOrder2: 1
Layer: 2
EndUndoOperation
EndUndoes
Redoes
EndRedoes
EndUndoRedoHistory
Fore
SplineSet
24 -8 m 1,0,-1
 24 16 l 1,1,-1
 0 16 l 1,2,-1
 0 32 l 1,3,-1
 24 32 l 1,4,-1
 24 56 l 1,5,-1
 40 56 l 1,6,-1
 40 32 l 1,7,-1
 64 32 l 1,8,-1
 64 16 l 1,9,-1
 40 16 l 1,10,-1
 40 -8 l 1,11,-1
 24 -8 l 1,0,-1
EndSplineSet
EndChar

StartChar: uniE37C
Encoding: 58236 58236 884
Width: 64
Flags: W
LayerCount: 2
UndoRedoHistory
Layer: 1
Undoes
UndoOperation
Index: 0
Type: 3
WasModified: 1
WasOrder2: 1
Layer: 2
EndUndoOperation
EndUndoes
Redoes
EndRedoes
EndUndoRedoHistory
Fore
SplineSet
0 40 m 1,0,-1
 0 56 l 1,1,-1
 16 56 l 1,2,-1
 16 40 l 1,3,-1
 0 40 l 1,0,-1
0 8 m 1,4,-1
 0 24 l 1,5,-1
 16 24 l 1,6,-1
 16 40 l 1,7,-1
 32 40 l 1,8,-1
 32 24 l 1,9,-1
 16 24 l 1,10,-1
 16 8 l 1,11,-1
 0 8 l 1,4,-1
16 8 m 1,12,-1
 32 8 l 1,13,-1
 32 -8 l 1,14,-1
 16 -8 l 1,15,-1
 16 8 l 1,12,-1
EndSplineSet
EndChar

StartChar: uniE37D
Encoding: 58237 58237 885
Width: 64
Flags: W
LayerCount: 2
UndoRedoHistory
Layer: 1
Undoes
UndoOperation
Index: 0
Type: 3
WasModified: 1
WasOrder2: 1
Layer: 2
EndUndoOperation
EndUndoes
Redoes
EndRedoes
EndUndoRedoHistory
Fore
SplineSet
24 -8 m 1,0,-1
 24 56 l 1,1,-1
 40 56 l 1,2,-1
 40 -8 l 1,3,-1
 24 -8 l 1,0,-1
EndSplineSet
EndChar

StartChar: uniE37E
Encoding: 58238 58238 886
Width: 64
Flags: W
LayerCount: 2
UndoRedoHistory
Layer: 1
Undoes
UndoOperation
Index: 0
Type: 3
WasModified: 1
WasOrder2: 1
Layer: 2
EndUndoOperation
EndUndoes
Redoes
EndRedoes
EndUndoRedoHistory
Fore
SplineSet
0 -8 m 1,0,-1
 0 8 l 1,1,-1
 16 8 l 1,2,-1
 16 -8 l 1,3,-1
 0 -8 l 1,0,-1
0 24 m 1,4,-1
 0 40 l 1,5,-1
 16 40 l 1,6,-1
 16 24 l 1,7,-1
 32 24 l 1,8,-1
 32 8 l 1,9,-1
 16 8 l 1,10,-1
 16 24 l 1,11,-1
 0 24 l 1,4,-1
48 8 m 1,12,-1
 48 -8 l 1,13,-1
 32 -8 l 1,14,-1
 32 8 l 1,15,-1
 48 8 l 1,12,-1
48 8 m 1,16,-1
 48 24 l 1,17,-1
 64 24 l 1,18,-1
 64 8 l 1,19,-1
 48 8 l 1,16,-1
32 24 m 1,20,-1
 32 40 l 1,21,-1
 16 40 l 1,22,-1
 16 56 l 1,23,-1
 32 56 l 1,24,-1
 32 40 l 1,25,-1
 48 40 l 1,26,-1
 48 24 l 1,27,-1
 32 24 l 1,20,-1
48 40 m 1,28,-1
 48 56 l 1,29,-1
 64 56 l 1,30,-1
 64 40 l 1,31,-1
 48 40 l 1,28,-1
EndSplineSet
EndChar

StartChar: uniE37F
Encoding: 58239 58239 887
Width: 64
Flags: W
LayerCount: 2
UndoRedoHistory
Layer: 1
Undoes
UndoOperation
Index: 0
Type: 3
WasModified: 1
WasOrder2: 1
Layer: 2
EndUndoOperation
EndUndoes
Redoes
EndRedoes
EndUndoRedoHistory
Fore
SplineSet
8 -8 m 1,0,-1
 8 0 l 1,1,-1
 0 0 l 1,2,-1
 0 16 l 1,3,-1
 8 16 l 1,4,-1
 8 8 l 1,5,-1
 16 8 l 1,6,-1
 16 0 l 1,7,-1
 24 0 l 1,8,-1
 24 -8 l 1,9,-1
 8 -8 l 1,0,-1
56 40 m 1,10,-1
 56 48 l 1,11,-1
 48 48 l 1,12,-1
 48 56 l 1,13,-1
 64 56 l 1,14,-1
 64 40 l 1,15,-1
 56 40 l 1,10,-1
56 8 m 1,16,-1
 56 16 l 1,17,-1
 48 16 l 1,18,-1
 48 24 l 1,19,-1
 40 24 l 1,20,-1
 40 32 l 1,21,-1
 32 32 l 1,22,-1
 32 40 l 1,23,-1
 24 40 l 1,24,-1
 24 48 l 1,25,-1
 16 48 l 1,26,-1
 16 56 l 1,27,-1
 32 56 l 1,28,-1
 32 48 l 1,29,-1
 40 48 l 1,30,-1
 40 40 l 1,31,-1
 48 40 l 1,32,-1
 48 32 l 1,33,-1
 56 32 l 1,34,-1
 56 24 l 1,35,-1
 64 24 l 1,36,-1
 64 8 l 1,37,-1
 56 8 l 1,16,-1
40 -8 m 1,38,-1
 40 0 l 1,39,-1
 32 0 l 1,40,-1
 32 8 l 1,41,-1
 24 8 l 1,42,-1
 24 16 l 1,43,-1
 16 16 l 1,44,-1
 16 24 l 1,45,-1
 8 24 l 1,46,-1
 8 32 l 1,47,-1
 0 32 l 1,48,-1
 0 48 l 1,49,-1
 8 48 l 1,50,-1
 8 40 l 1,51,-1
 16 40 l 1,52,-1
 16 32 l 1,53,-1
 24 32 l 1,54,-1
 24 24 l 1,55,-1
 32 24 l 1,56,-1
 32 16 l 1,57,-1
 40 16 l 1,58,-1
 40 8 l 1,59,-1
 48 8 l 1,60,-1
 48 0 l 1,61,-1
 56 0 l 1,62,-1
 56 -8 l 1,63,-1
 40 -8 l 1,38,-1
EndSplineSet
EndChar

StartChar: uniE3A1
Encoding: 58273 58273 889
Width: 64
Flags: W
LayerCount: 2
UndoRedoHistory
Layer: 1
Undoes
UndoOperation
Index: 0
Type: 3
WasModified: 1
WasOrder2: 1
Layer: 2
EndUndoOperation
EndUndoes
Redoes
EndRedoes
EndUndoRedoHistory
Fore
SplineSet
0 -8 m 1,0,-1
 0 56 l 1,1,-1
 32 56 l 1,2,-1
 32 -8 l 1,3,-1
 0 -8 l 1,0,-1
EndSplineSet
EndChar

StartChar: uniE3A2
Encoding: 58274 58274 890
Width: 64
Flags: W
LayerCount: 2
UndoRedoHistory
Layer: 1
Undoes
UndoOperation
Index: 0
Type: 3
WasModified: 1
WasOrder2: 1
Layer: 2
EndUndoOperation
EndUndoes
Redoes
EndRedoes
EndUndoRedoHistory
Fore
SplineSet
0 -8 m 1,0,-1
 0 24 l 1,1,-1
 64 24 l 1,2,-1
 64 -8 l 1,3,-1
 0 -8 l 1,0,-1
EndSplineSet
EndChar

StartChar: uniE3A3
Encoding: 58275 58275 891
Width: 64
Flags: W
LayerCount: 2
UndoRedoHistory
Layer: 1
Undoes
UndoOperation
Index: 0
Type: 3
WasModified: 1
WasOrder2: 1
Layer: 2
EndUndoOperation
EndUndoes
Redoes
EndRedoes
EndUndoRedoHistory
Fore
SplineSet
0 48 m 1,0,-1
 0 56 l 1,1,-1
 64 56 l 1,2,-1
 64 48 l 1,3,-1
 0 48 l 1,0,-1
EndSplineSet
EndChar

StartChar: uniE3A8
Encoding: 58280 58280 896
Width: 64
Flags: W
LayerCount: 2
UndoRedoHistory
Layer: 1
Undoes
UndoOperation
Index: 0
Type: 3
WasModified: 1
WasOrder2: 1
Layer: 2
EndUndoOperation
EndUndoes
Redoes
EndRedoes
EndUndoRedoHistory
Fore
SplineSet
32 8 m 1,0,-1
 32 24 l 1,1,-1
 48 24 l 1,2,-1
 48 8 l 1,3,-1
 32 8 l 1,0,-1
16 8 m 1,4,-1
 0 8 l 1,5,-1
 0 24 l 1,6,-1
 16 24 l 1,7,-1
 16 8 l 1,4,-1
32 8 m 1,8,-1
 32 -8 l 1,9,-1
 16 -8 l 1,10,-1
 16 8 l 1,11,-1
 32 8 l 1,8,-1
48 8 m 1,12,-1
 64 8 l 1,13,-1
 64 -8 l 1,14,-1
 48 -8 l 1,15,-1
 48 8 l 1,12,-1
EndSplineSet
EndChar

StartChar: uniE3AB
Encoding: 58283 58283 899
Width: 64
Flags: W
LayerCount: 2
UndoRedoHistory
Layer: 1
Undoes
UndoOperation
Index: 0
Type: 3
WasModified: 1
WasOrder2: 1
Layer: 2
EndUndoOperation
EndUndoes
Redoes
EndRedoes
EndUndoRedoHistory
Fore
SplineSet
24 -8 m 1,0,-1
 24 56 l 1,1,-1
 40 56 l 1,2,-1
 40 32 l 1,3,-1
 64 32 l 1,4,-1
 64 16 l 1,5,-1
 40 16 l 1,6,-1
 40 -8 l 1,7,-1
 24 -8 l 1,0,-1
EndSplineSet
EndChar

StartChar: uniE3AC
Encoding: 58284 58284 900
Width: 64
Flags: W
LayerCount: 2
UndoRedoHistory
Layer: 1
Undoes
UndoOperation
Index: 0
Type: 3
WasModified: 1
WasOrder2: 1
Layer: 2
EndUndoOperation
EndUndoes
Redoes
EndRedoes
EndUndoRedoHistory
Fore
SplineSet
32 -8 m 1,0,-1
 32 24 l 1,1,-1
 64 24 l 1,2,-1
 64 -8 l 1,3,-1
 32 -8 l 1,0,-1
EndSplineSet
EndChar

StartChar: uniE3AD
Encoding: 58285 58285 901
Width: 64
Flags: W
LayerCount: 2
UndoRedoHistory
Layer: 1
Undoes
UndoOperation
Index: 0
Type: 3
WasModified: 1
WasOrder2: 1
Layer: 2
EndUndoOperation
EndUndoes
Redoes
EndRedoes
EndUndoRedoHistory
Fore
SplineSet
24 16 m 1,0,-1
 24 56 l 1,1,-1
 40 56 l 1,2,-1
 40 32 l 1,3,-1
 64 32 l 1,4,-1
 64 16 l 1,5,-1
 24 16 l 1,0,-1
EndSplineSet
EndChar

StartChar: uniE3B1
Encoding: 58289 58289 905
Width: 64
Flags: W
LayerCount: 2
UndoRedoHistory
Layer: 1
Undoes
UndoOperation
Index: 0
Type: 3
WasModified: 1
WasOrder2: 1
Layer: 2
EndUndoOperation
EndUndoes
Redoes
EndRedoes
EndUndoRedoHistory
Fore
SplineSet
64 16 m 1,0,-1
 0 16 l 1,1,-1
 0 32 l 1,2,-1
 24 32 l 1,3,-1
 24 56 l 1,4,-1
 40 56 l 1,5,-1
 40 32 l 1,6,-1
 64 32 l 1,7,-1
 64 16 l 1,0,-1
EndSplineSet
EndChar

StartChar: uniE3B5
Encoding: 58293 58293 909
Width: 64
Flags: W
LayerCount: 2
UndoRedoHistory
Layer: 1
Undoes
UndoOperation
Index: 0
Type: 3
WasModified: 1
WasOrder2: 1
Layer: 2
EndUndoOperation
EndUndoes
Redoes
EndRedoes
EndUndoRedoHistory
Fore
SplineSet
0 -8 m 1,0,-1
 0 56 l 1,1,-1
 24 56 l 1,2,-1
 24 -8 l 1,3,-1
 0 -8 l 1,0,-1
EndSplineSet
EndChar

StartChar: uniE3B8
Encoding: 58296 58296 912
Width: 64
Flags: W
LayerCount: 2
UndoRedoHistory
Layer: 1
Undoes
UndoOperation
Index: 0
Type: 3
WasModified: 1
WasOrder2: 1
Layer: 2
EndUndoOperation
EndUndoes
Redoes
EndRedoes
EndUndoRedoHistory
Fore
SplineSet
0 32 m 1,0,-1
 0 56 l 1,1,-1
 64 56 l 1,2,-1
 64 32 l 1,3,-1
 0 32 l 1,0,-1
EndSplineSet
EndChar

StartChar: uniE3B9
Encoding: 58297 58297 913
Width: 64
Flags: W
LayerCount: 2
UndoRedoHistory
Layer: 1
Undoes
UndoOperation
Index: 0
Type: 3
WasModified: 1
WasOrder2: 1
Layer: 2
EndUndoOperation
EndUndoes
Redoes
EndRedoes
EndUndoRedoHistory
Fore
SplineSet
0 -8 m 1,0,-1
 0 16 l 1,1,-1
 64 16 l 1,2,-1
 64 -8 l 1,3,-1
 0 -8 l 1,0,-1
EndSplineSet
EndChar

StartChar: uniE3BA
Encoding: 58298 58298 914
Width: 64
Flags: W
LayerCount: 2
UndoRedoHistory
Layer: 1
Undoes
UndoOperation
Index: 0
Type: 1
WasModified: 1
WasOrder2: 1
Layer: 2
Width: 64
VWidth: 64
LBearingChange: 0
UnicodeEnc: 0
InstructionsLength: 0
SplineSet
16 0 m 5,0,-1
 16 16 l 4,1,-1
 8 16 l 4,2,-1
 8 32 l 5,3,-1
 24 32 l 5,4,-1
 24 24 l 5,5,-1
 32 24 l 5,6,-1
 32 32 l 5,7,-1
 40 32 l 5,8,-1
 40 40 l 5,9,-1
 48 40 l 5,10,-1
 48 48 l 5,11,-1
 64 48 l 5,12,-1
 64 32 l 5,13,-1
 56 32 l 5,14,-1
 56 24 l 5,15,-1
 48 24 l 5,16,-1
 48 16 l 5,17,-1
 40 16 l 5,18,-1
 40 8 l 5,19,-1
 32 8 l 5,20,-1
 32 0 l 5,21,-1
 16 0 l 5,0,-1
EndSplineSet
EndUndoOperation
EndUndoes
Redoes
EndRedoes
EndUndoRedoHistory
EndChar

StartChar: uniE3C0
Encoding: 58304 58304 920
Width: 64
Flags: W
LayerCount: 2
UndoRedoHistory
Layer: 1
Undoes
UndoOperation
Index: 0
Type: 3
WasModified: 1
WasOrder2: 1
Layer: 2
EndUndoOperation
EndUndoes
Redoes
EndRedoes
EndUndoRedoHistory
Fore
SplineSet
0 16 m 1,0,-1
 0 32 l 1,1,-1
 64 32 l 1,2,-1
 64 16 l 1,3,-1
 0 16 l 1,0,-1
EndSplineSet
EndChar

StartChar: uniE3C1
Encoding: 58305 58305 921
Width: 64
Flags: W
LayerCount: 2
UndoRedoHistory
Layer: 1
Undoes
UndoOperation
Index: 0
Type: 3
WasModified: 1
WasOrder2: 1
Layer: 2
EndUndoOperation
EndUndoes
Redoes
EndRedoes
EndUndoRedoHistory
Fore
SplineSet
24 24 m 1,0,-1
 40 24 l 1,1,-1
 40 40 l 1,2,-1
 24 40 l 1,3,-1
 24 24 l 1,0,-1
8 0 m 1,4,-1
 8 40 l 1,5,-1
 16 40 l 1,6,-1
 16 48 l 1,7,-1
 48 48 l 1,8,-1
 48 40 l 1,9,-1
 56 40 l 1,10,-1
 56 0 l 1,11,-1
 40 0 l 1,12,-1
 40 16 l 1,13,-1
 24 16 l 1,14,-1
 24 0 l 1,15,-1
 8 0 l 1,4,-1
EndSplineSet
EndChar

StartChar: uniE3C2
Encoding: 58306 58306 922
Width: 64
Flags: W
LayerCount: 2
UndoRedoHistory
Layer: 1
Undoes
UndoOperation
Index: 0
Type: 3
WasModified: 1
WasOrder2: 1
Layer: 2
EndUndoOperation
EndUndoes
Redoes
EndRedoes
EndUndoRedoHistory
Fore
SplineSet
24 32 m 1,0,-1
 40 32 l 1,1,-1
 40 40 l 1,2,-1
 24 40 l 1,3,-1
 24 32 l 1,0,-1
24 8 m 1,4,-1
 40 8 l 1,5,-1
 40 24 l 1,6,-1
 24 24 l 1,7,-1
 24 8 l 1,4,-1
8 0 m 1,8,-1
 8 48 l 1,9,-1
 48 48 l 1,10,-1
 48 40 l 1,11,-1
 56 40 l 1,12,-1
 56 32 l 1,13,-1
 48 32 l 1,14,-1
 48 24 l 1,15,-1
 56 24 l 1,16,-1
 56 8 l 1,17,-1
 48 8 l 1,18,-1
 48 0 l 1,19,-1
 8 0 l 1,8,-1
EndSplineSet
EndChar

StartChar: uniE3C3
Encoding: 58307 58307 923
Width: 64
Flags: W
LayerCount: 2
UndoRedoHistory
Layer: 1
Undoes
UndoOperation
Index: 0
Type: 3
WasModified: 1
WasOrder2: 1
Layer: 2
EndUndoOperation
EndUndoes
Redoes
EndRedoes
EndUndoRedoHistory
Fore
SplineSet
16 0 m 1,0,-1
 16 8 l 1,1,-1
 8 8 l 1,2,-1
 8 40 l 1,3,-1
 16 40 l 1,4,-1
 16 48 l 1,5,-1
 48 48 l 1,6,-1
 48 40 l 1,7,-1
 24 40 l 1,8,-1
 24 8 l 1,9,-1
 48 8 l 1,10,-1
 48 0 l 1,11,-1
 16 0 l 1,0,-1
EndSplineSet
EndChar

StartChar: uniE3C4
Encoding: 58308 58308 924
Width: 64
Flags: W
LayerCount: 2
UndoRedoHistory
Layer: 1
Undoes
UndoOperation
Index: 0
Type: 3
WasModified: 1
WasOrder2: 1
Layer: 2
EndUndoOperation
EndUndoes
Redoes
EndRedoes
EndUndoRedoHistory
Fore
SplineSet
24 8 m 1,0,-1
 40 8 l 1,1,-1
 40 40 l 1,2,-1
 24 40 l 1,3,-1
 24 8 l 1,0,-1
8 0 m 1,4,-1
 8 48 l 1,5,-1
 48 48 l 1,6,-1
 48 40 l 1,7,-1
 56 40 l 1,8,-1
 56 8 l 1,9,-1
 48 8 l 1,10,-1
 48 0 l 1,11,-1
 8 0 l 1,4,-1
EndSplineSet
EndChar

StartChar: uniE3C5
Encoding: 58309 58309 925
Width: 64
Flags: W
LayerCount: 2
UndoRedoHistory
Layer: 1
Undoes
UndoOperation
Index: 0
Type: 3
WasModified: 1
WasOrder2: 1
Layer: 2
EndUndoOperation
EndUndoes
Redoes
EndRedoes
EndUndoRedoHistory
Fore
SplineSet
56 48 m 1,0,-1
 56 40 l 1,1,-1
 24 40 l 1,2,-1
 24 32 l 1,3,-1
 48 32 l 1,4,-1
 48 24 l 1,5,-1
 24 24 l 1,6,-1
 24 8 l 1,7,-1
 56 8 l 1,8,-1
 56 0 l 1,9,-1
 8 0 l 1,10,-1
 8 48 l 1,11,-1
 56 48 l 1,0,-1
EndSplineSet
EndChar

StartChar: uniE3C6
Encoding: 58310 58310 926
Width: 64
Flags: W
LayerCount: 2
UndoRedoHistory
Layer: 1
Undoes
UndoOperation
Index: 0
Type: 3
WasModified: 1
WasOrder2: 1
Layer: 2
EndUndoOperation
EndUndoes
Redoes
EndRedoes
EndUndoRedoHistory
Fore
SplineSet
8 0 m 1,0,-1
 8 48 l 1,1,-1
 56 48 l 1,2,-1
 56 40 l 1,3,-1
 24 40 l 1,4,-1
 24 32 l 1,5,-1
 48 32 l 1,6,-1
 48 24 l 1,7,-1
 24 24 l 1,8,-1
 24 0 l 1,9,-1
 8 0 l 1,0,-1
EndSplineSet
EndChar

StartChar: uniE3C7
Encoding: 58311 58311 927
Width: 64
Flags: W
LayerCount: 2
UndoRedoHistory
Layer: 1
Undoes
UndoOperation
Index: 0
Type: 3
WasModified: 1
WasOrder2: 1
Layer: 2
EndUndoOperation
EndUndoes
Redoes
EndRedoes
EndUndoRedoHistory
Fore
SplineSet
16 0 m 1,0,-1
 16 8 l 1,1,-1
 8 8 l 1,2,-1
 8 40 l 1,3,-1
 16 40 l 1,4,-1
 16 48 l 1,5,-1
 56 48 l 1,6,-1
 56 40 l 1,7,-1
 24 40 l 1,8,-1
 24 8 l 1,9,-1
 40 8 l 1,10,-1
 40 24 l 1,11,-1
 32 24 l 1,12,-1
 32 32 l 1,13,-1
 56 32 l 1,14,-1
 56 0 l 1,15,-1
 16 0 l 1,0,-1
EndSplineSet
EndChar

StartChar: uniE3C8
Encoding: 58312 58312 928
Width: 64
Flags: W
LayerCount: 2
UndoRedoHistory
Layer: 1
Undoes
UndoOperation
Index: 0
Type: 3
WasModified: 1
WasOrder2: 1
Layer: 2
EndUndoOperation
EndUndoes
Redoes
EndRedoes
EndUndoRedoHistory
Fore
SplineSet
8 0 m 1,0,-1
 8 48 l 1,1,-1
 24 48 l 1,2,-1
 24 32 l 1,3,-1
 40 32 l 1,4,-1
 40 48 l 1,5,-1
 56 48 l 1,6,-1
 56 0 l 1,7,-1
 40 0 l 1,8,-1
 40 24 l 1,9,-1
 24 24 l 1,10,-1
 24 0 l 1,11,-1
 8 0 l 1,0,-1
EndSplineSet
EndChar

StartChar: uniE3C9
Encoding: 58313 58313 929
Width: 64
Flags: W
LayerCount: 2
UndoRedoHistory
Layer: 1
Undoes
UndoOperation
Index: 0
Type: 3
WasModified: 1
WasOrder2: 1
Layer: 2
EndUndoOperation
EndUndoes
Redoes
EndRedoes
EndUndoRedoHistory
Fore
SplineSet
48 48 m 1,0,-1
 48 40 l 1,1,-1
 40 40 l 1,2,-1
 40 8 l 1,3,-1
 48 8 l 1,4,-1
 48 0 l 1,5,-1
 16 0 l 1,6,-1
 16 8 l 1,7,-1
 24 8 l 1,8,-1
 24 40 l 1,9,-1
 16 40 l 1,10,-1
 16 48 l 1,11,-1
 48 48 l 1,0,-1
EndSplineSet
EndChar

StartChar: uniE3CA
Encoding: 58314 58314 930
Width: 64
Flags: W
LayerCount: 2
UndoRedoHistory
Layer: 1
Undoes
UndoOperation
Index: 0
Type: 3
WasModified: 1
WasOrder2: 1
Layer: 2
EndUndoOperation
EndUndoes
Redoes
EndRedoes
EndUndoRedoHistory
Fore
SplineSet
16 0 m 1,0,-1
 16 8 l 1,1,-1
 8 8 l 1,2,-1
 8 16 l 1,3,-1
 24 16 l 1,4,-1
 24 8 l 1,5,-1
 32 8 l 1,6,-1
 32 40 l 1,7,-1
 24 40 l 1,8,-1
 24 48 l 1,9,-1
 48 48 l 1,10,-1
 48 8 l 1,11,-1
 40 8 l 1,12,-1
 40 0 l 1,13,-1
 16 0 l 1,0,-1
EndSplineSet
EndChar

StartChar: uniE3CB
Encoding: 58315 58315 931
Width: 64
Flags: W
LayerCount: 2
UndoRedoHistory
Layer: 1
Undoes
UndoOperation
Index: 0
Type: 3
WasModified: 1
WasOrder2: 1
Layer: 2
EndUndoOperation
EndUndoes
Redoes
EndRedoes
EndUndoRedoHistory
Fore
SplineSet
8 0 m 1,0,-1
 8 48 l 1,1,-1
 24 48 l 1,2,-1
 24 32 l 1,3,-1
 32 32 l 1,4,-1
 32 40 l 1,5,-1
 40 40 l 1,6,-1
 40 48 l 1,7,-1
 56 48 l 1,8,-1
 56 40 l 1,9,-1
 48 40 l 1,10,-1
 48 32 l 1,11,-1
 40 32 l 1,12,-1
 40 16 l 1,13,-1
 48 16 l 1,14,-1
 48 8 l 1,15,-1
 56 8 l 1,16,-1
 56 0 l 1,17,-1
 40 0 l 1,18,-1
 40 8 l 1,19,-1
 32 8 l 1,20,-1
 32 16 l 1,21,-1
 24 16 l 1,22,-1
 24 0 l 1,23,-1
 8 0 l 1,0,-1
EndSplineSet
EndChar

StartChar: uniE3CC
Encoding: 58316 58316 932
Width: 64
Flags: W
LayerCount: 2
UndoRedoHistory
Layer: 1
Undoes
UndoOperation
Index: 0
Type: 3
WasModified: 1
WasOrder2: 1
Layer: 2
EndUndoOperation
EndUndoes
Redoes
EndRedoes
EndUndoRedoHistory
Fore
SplineSet
24 48 m 1,0,-1
 24 8 l 1,1,-1
 56 8 l 1,2,-1
 56 0 l 1,3,-1
 8 0 l 1,4,-1
 8 48 l 1,5,-1
 24 48 l 1,0,-1
EndSplineSet
EndChar

StartChar: uniE3CD
Encoding: 58317 58317 933
Width: 64
Flags: W
LayerCount: 2
UndoRedoHistory
Layer: 1
Undoes
UndoOperation
Index: 0
Type: 3
WasModified: 1
WasOrder2: 1
Layer: 2
EndUndoOperation
EndUndoes
Redoes
EndRedoes
EndUndoRedoHistory
Fore
SplineSet
8 0 m 1,0,-1
 8 48 l 1,1,-1
 24 48 l 1,2,-1
 24 40 l 1,3,-1
 32 40 l 1,4,-1
 32 32 l 1,5,-1
 40 32 l 1,6,-1
 40 40 l 1,7,-1
 48 40 l 1,8,-1
 48 48 l 1,9,-1
 64 48 l 1,10,-1
 64 0 l 1,11,-1
 48 0 l 1,12,-1
 48 24 l 1,13,-1
 40 24 l 1,14,-1
 40 16 l 1,15,-1
 32 16 l 1,16,-1
 32 24 l 1,17,-1
 24 24 l 1,18,-1
 24 0 l 1,19,-1
 8 0 l 1,0,-1
EndSplineSet
EndChar

StartChar: uniE3CE
Encoding: 58318 58318 934
Width: 64
Flags: W
LayerCount: 2
UndoRedoHistory
Layer: 1
Undoes
UndoOperation
Index: 0
Type: 3
WasModified: 1
WasOrder2: 1
Layer: 2
EndUndoOperation
EndUndoes
Redoes
EndRedoes
EndUndoRedoHistory
Fore
SplineSet
8 0 m 1,0,-1
 8 48 l 1,1,-1
 24 48 l 1,2,-1
 24 40 l 1,3,-1
 32 40 l 1,4,-1
 32 32 l 1,5,-1
 40 32 l 1,6,-1
 40 48 l 1,7,-1
 56 48 l 1,8,-1
 56 0 l 1,9,-1
 40 0 l 1,10,-1
 40 16 l 1,11,-1
 32 16 l 1,12,-1
 32 24 l 1,13,-1
 24 24 l 1,14,-1
 24 0 l 1,15,-1
 8 0 l 1,0,-1
EndSplineSet
EndChar

StartChar: uniE3CF
Encoding: 58319 58319 935
Width: 64
Flags: W
LayerCount: 2
UndoRedoHistory
Layer: 1
Undoes
UndoOperation
Index: 0
Type: 3
WasModified: 1
WasOrder2: 1
Layer: 2
EndUndoOperation
EndUndoes
Redoes
EndRedoes
EndUndoRedoHistory
Fore
SplineSet
24 8 m 1,0,-1
 40 8 l 1,1,-1
 40 40 l 1,2,-1
 24 40 l 1,3,-1
 24 8 l 1,0,-1
16 0 m 1,4,-1
 16 8 l 1,5,-1
 8 8 l 1,6,-1
 8 40 l 1,7,-1
 16 40 l 1,8,-1
 16 48 l 1,9,-1
 48 48 l 1,10,-1
 48 40 l 1,11,-1
 56 40 l 1,12,-1
 56 8 l 1,13,-1
 48 8 l 1,14,-1
 48 0 l 1,15,-1
 16 0 l 1,4,-1
EndSplineSet
EndChar

StartChar: uniE3D0
Encoding: 58320 58320 936
Width: 64
Flags: W
LayerCount: 2
UndoRedoHistory
Layer: 1
Undoes
UndoOperation
Index: 0
Type: 3
WasModified: 1
WasOrder2: 1
Layer: 2
EndUndoOperation
EndUndoes
Redoes
EndRedoes
EndUndoRedoHistory
Fore
SplineSet
24 24 m 1,0,-1
 40 24 l 1,1,-1
 40 40 l 1,2,-1
 24 40 l 1,3,-1
 24 24 l 1,0,-1
8 0 m 1,4,-1
 8 48 l 1,5,-1
 48 48 l 1,6,-1
 48 40 l 1,7,-1
 56 40 l 1,8,-1
 56 24 l 1,9,-1
 48 24 l 1,10,-1
 48 16 l 1,11,-1
 24 16 l 1,12,-1
 24 0 l 1,13,-1
 8 0 l 1,4,-1
EndSplineSet
EndChar

StartChar: uniE3D1
Encoding: 58321 58321 937
Width: 64
Flags: W
LayerCount: 2
UndoRedoHistory
Layer: 1
Undoes
UndoOperation
Index: 0
Type: 3
WasModified: 1
WasOrder2: 1
Layer: 2
EndUndoOperation
EndUndoes
Redoes
EndRedoes
EndUndoRedoHistory
Fore
SplineSet
24 8 m 1,0,-1
 40 8 l 1,1,-1
 40 40 l 1,2,-1
 24 40 l 1,3,-1
 24 8 l 1,0,-1
32 -8 m 1,4,-1
 32 0 l 1,5,-1
 16 0 l 1,6,-1
 16 8 l 1,7,-1
 8 8 l 1,8,-1
 8 40 l 1,9,-1
 16 40 l 1,10,-1
 16 48 l 1,11,-1
 48 48 l 1,12,-1
 48 40 l 1,13,-1
 56 40 l 1,14,-1
 56 8 l 1,15,-1
 48 8 l 1,16,-1
 48 0 l 1,17,-1
 56 0 l 1,18,-1
 56 -8 l 1,19,-1
 32 -8 l 1,4,-1
EndSplineSet
EndChar

StartChar: uniE3D2
Encoding: 58322 58322 938
Width: 64
Flags: W
LayerCount: 2
UndoRedoHistory
Layer: 1
Undoes
UndoOperation
Index: 0
Type: 3
WasModified: 1
WasOrder2: 1
Layer: 2
EndUndoOperation
EndUndoes
Redoes
EndRedoes
EndUndoRedoHistory
Fore
SplineSet
24 24 m 1,0,-1
 40 24 l 1,1,-1
 40 40 l 1,2,-1
 24 40 l 1,3,-1
 24 24 l 1,0,-1
8 0 m 1,4,-1
 8 48 l 1,5,-1
 48 48 l 1,6,-1
 48 40 l 1,7,-1
 56 40 l 1,8,-1
 56 24 l 1,9,-1
 48 24 l 1,10,-1
 48 16 l 1,11,-1
 56 16 l 1,12,-1
 56 0 l 1,13,-1
 40 0 l 1,14,-1
 40 16 l 1,15,-1
 24 16 l 1,16,-1
 24 0 l 1,17,-1
 8 0 l 1,4,-1
EndSplineSet
EndChar

StartChar: uniE3D3
Encoding: 58323 58323 939
Width: 64
Flags: W
LayerCount: 2
UndoRedoHistory
Layer: 1
Undoes
UndoOperation
Index: 0
Type: 3
WasModified: 1
WasOrder2: 1
Layer: 2
EndUndoOperation
EndUndoes
Redoes
EndRedoes
EndUndoRedoHistory
Fore
SplineSet
8 0 m 1,0,-1
 8 8 l 1,1,-1
 40 8 l 1,2,-1
 40 16 l 1,3,-1
 24 16 l 1,4,-1
 24 24 l 1,5,-1
 8 24 l 1,6,-1
 8 40 l 1,7,-1
 16 40 l 1,8,-1
 16 48 l 1,9,-1
 48 48 l 1,10,-1
 48 40 l 1,11,-1
 24 40 l 1,12,-1
 24 32 l 1,13,-1
 40 32 l 1,14,-1
 40 24 l 1,15,-1
 56 24 l 1,16,-1
 56 8 l 1,17,-1
 48 8 l 1,18,-1
 48 0 l 1,19,-1
 8 0 l 1,0,-1
EndSplineSet
EndChar

StartChar: uniE3D4
Encoding: 58324 58324 940
Width: 64
Flags: W
LayerCount: 2
UndoRedoHistory
Layer: 1
Undoes
UndoOperation
Index: 0
Type: 3
WasModified: 1
WasOrder2: 1
Layer: 2
EndUndoOperation
EndUndoes
Redoes
EndRedoes
EndUndoRedoHistory
Fore
SplineSet
24 0 m 1,0,-1
 24 40 l 1,1,-1
 8 40 l 1,2,-1
 8 48 l 1,3,-1
 56 48 l 1,4,-1
 56 40 l 1,5,-1
 40 40 l 1,6,-1
 40 0 l 1,7,-1
 24 0 l 1,0,-1
EndSplineSet
EndChar

StartChar: uniE3D5
Encoding: 58325 58325 941
Width: 64
Flags: W
LayerCount: 2
UndoRedoHistory
Layer: 1
Undoes
UndoOperation
Index: 0
Type: 3
WasModified: 1
WasOrder2: 1
Layer: 2
EndUndoOperation
EndUndoes
Redoes
EndRedoes
EndUndoRedoHistory
Fore
SplineSet
16 0 m 1,0,-1
 16 8 l 1,1,-1
 8 8 l 1,2,-1
 8 48 l 1,3,-1
 24 48 l 1,4,-1
 24 8 l 1,5,-1
 40 8 l 1,6,-1
 40 48 l 1,7,-1
 56 48 l 1,8,-1
 56 8 l 1,9,-1
 48 8 l 1,10,-1
 48 0 l 1,11,-1
 16 0 l 1,0,-1
EndSplineSet
EndChar

StartChar: uniE3D6
Encoding: 58326 58326 942
Width: 64
Flags: W
LayerCount: 2
UndoRedoHistory
Layer: 1
Undoes
UndoOperation
Index: 0
Type: 3
WasModified: 1
WasOrder2: 1
Layer: 2
EndUndoOperation
EndUndoes
Redoes
EndRedoes
EndUndoRedoHistory
Fore
SplineSet
24 0 m 1,0,-1
 24 8 l 1,1,-1
 16 8 l 1,2,-1
 16 16 l 1,3,-1
 8 16 l 1,4,-1
 8 48 l 5,5,-1
 24 48 l 5,6,-1
 24 16 l 1,7,-1
 40 16 l 1,8,-1
 40 48 l 5,9,-1
 56 48 l 5,10,-1
 56 16 l 1,11,-1
 48 16 l 1,12,-1
 48 8 l 1,13,-1
 40 8 l 1,14,-1
 40 0 l 1,15,-1
 24 0 l 1,0,-1
EndSplineSet
EndChar

StartChar: uniE3D7
Encoding: 58327 58327 943
Width: 64
Flags: W
LayerCount: 2
UndoRedoHistory
Layer: 1
Undoes
UndoOperation
Index: 0
Type: 3
WasModified: 1
WasOrder2: 1
Layer: 2
EndUndoOperation
EndUndoes
Redoes
EndRedoes
EndUndoRedoHistory
Fore
SplineSet
64 48 m 1,0,-1
 64 8 l 1,1,-1
 56 8 l 1,2,-1
 56 0 l 1,3,-1
 40 0 l 1,4,-1
 40 8 l 1,5,-1
 32 8 l 1,6,-1
 32 0 l 1,7,-1
 16 0 l 1,8,-1
 16 8 l 1,9,-1
 8 8 l 1,10,-1
 8 48 l 1,11,-1
 24 48 l 1,12,-1
 24 16 l 1,13,-1
 32 16 l 1,14,-1
 32 32 l 1,15,-1
 40 32 l 1,16,-1
 40 16 l 1,17,-1
 48 16 l 1,18,-1
 48 48 l 1,19,-1
 64 48 l 1,0,-1
EndSplineSet
EndChar

StartChar: uniE3D8
Encoding: 58328 58328 944
Width: 64
Flags: W
LayerCount: 2
UndoRedoHistory
Layer: 1
Undoes
UndoOperation
Index: 0
Type: 3
WasModified: 1
WasOrder2: 1
Layer: 2
EndUndoOperation
EndUndoes
Redoes
EndRedoes
EndUndoRedoHistory
Fore
SplineSet
56 48 m 1,0,-1
 56 32 l 1,1,-1
 48 32 l 1,2,-1
 48 16 l 1,3,-1
 56 16 l 1,4,-1
 56 0 l 1,5,-1
 40 0 l 1,6,-1
 40 16 l 1,7,-1
 24 16 l 1,8,-1
 24 0 l 1,9,-1
 8 0 l 1,10,-1
 8 16 l 1,11,-1
 16 16 l 1,12,-1
 16 32 l 1,13,-1
 8 32 l 1,14,-1
 8 48 l 1,15,-1
 24 48 l 1,16,-1
 24 32 l 1,17,-1
 40 32 l 1,18,-1
 40 48 l 1,19,-1
 56 48 l 1,0,-1
EndSplineSet
EndChar

StartChar: uniE3D9
Encoding: 58329 58329 945
Width: 64
Flags: W
LayerCount: 2
UndoRedoHistory
Layer: 1
Undoes
UndoOperation
Index: 0
Type: 3
WasModified: 1
WasOrder2: 1
Layer: 2
EndUndoOperation
EndUndoes
Redoes
EndRedoes
EndUndoRedoHistory
Fore
SplineSet
24 0 m 1,0,-1
 24 24 l 1,1,-1
 16 24 l 1,2,-1
 16 32 l 1,3,-1
 8 32 l 1,4,-1
 8 48 l 1,5,-1
 24 48 l 1,6,-1
 24 32 l 1,7,-1
 40 32 l 1,8,-1
 40 48 l 1,9,-1
 56 48 l 1,10,-1
 56 32 l 1,11,-1
 48 32 l 1,12,-1
 48 24 l 1,13,-1
 40 24 l 1,14,-1
 40 0 l 1,15,-1
 24 0 l 1,0,-1
EndSplineSet
EndChar

StartChar: uniE3DA
Encoding: 58330 58330 946
Width: 64
Flags: W
LayerCount: 2
UndoRedoHistory
Layer: 1
Undoes
UndoOperation
Index: 0
Type: 3
WasModified: 1
WasOrder2: 1
Layer: 2
EndUndoOperation
EndUndoes
Redoes
EndRedoes
EndUndoRedoHistory
Fore
SplineSet
8 0 m 1,0,-1
 8 16 l 1,1,-1
 16 16 l 1,2,-1
 16 24 l 1,3,-1
 24 24 l 1,4,-1
 24 32 l 1,5,-1
 32 32 l 1,6,-1
 32 40 l 1,7,-1
 8 40 l 1,8,-1
 8 48 l 1,9,-1
 56 48 l 1,10,-1
 56 40 l 1,11,-1
 48 40 l 1,12,-1
 48 32 l 1,13,-1
 40 32 l 1,14,-1
 40 24 l 1,15,-1
 32 24 l 1,16,-1
 32 16 l 1,17,-1
 24 16 l 1,18,-1
 24 8 l 1,19,-1
 56 8 l 1,20,-1
 56 0 l 1,21,-1
 8 0 l 1,0,-1
EndSplineSet
EndChar

StartChar: uniE3DB
Encoding: 58331 58331 947
Width: 64
Flags: W
LayerCount: 2
UndoRedoHistory
Layer: 1
Undoes
UndoOperation
Index: 0
Type: 3
WasModified: 1
WasOrder2: 1
Layer: 2
EndUndoOperation
EndUndoes
Redoes
EndRedoes
EndUndoRedoHistory
Fore
SplineSet
24 -8 m 1,0,-1
 24 16 l 1,1,-1
 0 16 l 1,2,-1
 0 32 l 1,3,-1
 24 32 l 1,4,-1
 24 56 l 1,5,-1
 40 56 l 1,6,-1
 40 32 l 1,7,-1
 64 32 l 1,8,-1
 64 16 l 1,9,-1
 40 16 l 1,10,-1
 40 -8 l 1,11,-1
 24 -8 l 1,0,-1
EndSplineSet
EndChar

StartChar: uniE3DC
Encoding: 58332 58332 948
Width: 64
Flags: W
LayerCount: 2
UndoRedoHistory
Layer: 1
Undoes
UndoOperation
Index: 0
Type: 3
WasModified: 1
WasOrder2: 1
Layer: 2
EndUndoOperation
EndUndoes
Redoes
EndRedoes
EndUndoRedoHistory
Fore
SplineSet
0 40 m 1,0,-1
 0 56 l 1,1,-1
 16 56 l 1,2,-1
 16 40 l 1,3,-1
 0 40 l 1,0,-1
0 8 m 1,4,-1
 0 24 l 1,5,-1
 16 24 l 1,6,-1
 16 40 l 1,7,-1
 32 40 l 1,8,-1
 32 24 l 1,9,-1
 16 24 l 1,10,-1
 16 8 l 1,11,-1
 0 8 l 1,4,-1
16 8 m 1,12,-1
 32 8 l 1,13,-1
 32 -8 l 1,14,-1
 16 -8 l 1,15,-1
 16 8 l 1,12,-1
EndSplineSet
EndChar

StartChar: uniE3DD
Encoding: 58333 58333 949
Width: 64
Flags: W
LayerCount: 2
UndoRedoHistory
Layer: 1
Undoes
UndoOperation
Index: 0
Type: 3
WasModified: 1
WasOrder2: 1
Layer: 2
EndUndoOperation
EndUndoes
Redoes
EndRedoes
EndUndoRedoHistory
Fore
SplineSet
24 -8 m 1,0,-1
 24 56 l 1,1,-1
 40 56 l 1,2,-1
 40 -8 l 1,3,-1
 24 -8 l 1,0,-1
EndSplineSet
EndChar

StartChar: uniE3DE
Encoding: 58334 58334 950
Width: 64
Flags: W
LayerCount: 2
UndoRedoHistory
Layer: 1
Undoes
UndoOperation
Index: 0
Type: 3
WasModified: 1
WasOrder2: 1
Layer: 2
EndUndoOperation
EndUndoes
Redoes
EndRedoes
EndUndoRedoHistory
Fore
SplineSet
0 -8 m 1,0,-1
 0 8 l 1,1,-1
 16 8 l 1,2,-1
 16 -8 l 1,3,-1
 0 -8 l 1,0,-1
0 24 m 1,4,-1
 0 40 l 1,5,-1
 16 40 l 1,6,-1
 16 24 l 1,7,-1
 32 24 l 1,8,-1
 32 8 l 1,9,-1
 16 8 l 1,10,-1
 16 24 l 1,11,-1
 0 24 l 1,4,-1
48 8 m 1,12,-1
 48 -8 l 1,13,-1
 32 -8 l 1,14,-1
 32 8 l 1,15,-1
 48 8 l 1,12,-1
48 8 m 1,16,-1
 48 24 l 1,17,-1
 64 24 l 1,18,-1
 64 8 l 1,19,-1
 48 8 l 1,16,-1
32 24 m 1,20,-1
 32 40 l 1,21,-1
 16 40 l 1,22,-1
 16 56 l 1,23,-1
 32 56 l 1,24,-1
 32 40 l 1,25,-1
 48 40 l 1,26,-1
 48 24 l 1,27,-1
 32 24 l 1,20,-1
48 40 m 1,28,-1
 48 56 l 1,29,-1
 64 56 l 1,30,-1
 64 40 l 1,31,-1
 48 40 l 1,28,-1
EndSplineSet
EndChar

StartChar: uniE3DF
Encoding: 58335 58335 951
Width: 64
Flags: W
LayerCount: 2
UndoRedoHistory
Layer: 1
Undoes
UndoOperation
Index: 0
Type: 3
WasModified: 1
WasOrder2: 1
Layer: 2
EndUndoOperation
EndUndoes
Redoes
EndRedoes
EndUndoRedoHistory
Fore
SplineSet
8 -8 m 1,0,-1
 8 0 l 1,1,-1
 0 0 l 1,2,-1
 0 16 l 1,3,-1
 8 16 l 1,4,-1
 8 8 l 1,5,-1
 16 8 l 1,6,-1
 16 0 l 1,7,-1
 24 0 l 1,8,-1
 24 -8 l 1,9,-1
 8 -8 l 1,0,-1
56 40 m 1,10,-1
 56 48 l 1,11,-1
 48 48 l 1,12,-1
 48 56 l 1,13,-1
 64 56 l 1,14,-1
 64 40 l 1,15,-1
 56 40 l 1,10,-1
56 8 m 1,16,-1
 56 16 l 1,17,-1
 48 16 l 1,18,-1
 48 24 l 1,19,-1
 40 24 l 1,20,-1
 40 32 l 1,21,-1
 32 32 l 1,22,-1
 32 40 l 1,23,-1
 24 40 l 1,24,-1
 24 48 l 1,25,-1
 16 48 l 1,26,-1
 16 56 l 1,27,-1
 32 56 l 1,28,-1
 32 48 l 1,29,-1
 40 48 l 1,30,-1
 40 40 l 1,31,-1
 48 40 l 1,32,-1
 48 32 l 1,33,-1
 56 32 l 1,34,-1
 56 24 l 1,35,-1
 64 24 l 1,36,-1
 64 8 l 1,37,-1
 56 8 l 1,16,-1
40 -8 m 1,38,-1
 40 0 l 1,39,-1
 32 0 l 1,40,-1
 32 8 l 1,41,-1
 24 8 l 1,42,-1
 24 16 l 1,43,-1
 16 16 l 1,44,-1
 16 24 l 1,45,-1
 8 24 l 1,46,-1
 8 32 l 1,47,-1
 0 32 l 1,48,-1
 0 48 l 1,49,-1
 8 48 l 1,50,-1
 8 40 l 1,51,-1
 16 40 l 1,52,-1
 16 32 l 1,53,-1
 24 32 l 1,54,-1
 24 24 l 1,55,-1
 32 24 l 1,56,-1
 32 16 l 1,57,-1
 40 16 l 1,58,-1
 40 8 l 1,59,-1
 48 8 l 1,60,-1
 48 0 l 1,61,-1
 56 0 l 1,62,-1
 56 -8 l 1,63,-1
 40 -8 l 1,38,-1
EndSplineSet
EndChar

StartChar: uniE3E1
Encoding: 58337 58337 953
Width: 64
Flags: W
LayerCount: 2
UndoRedoHistory
Layer: 1
Undoes
UndoOperation
Index: 0
Type: 3
WasModified: 1
WasOrder2: 1
Layer: 2
EndUndoOperation
EndUndoes
Redoes
EndRedoes
EndUndoRedoHistory
Fore
SplineSet
0 -8 m 1,0,-1
 0 56 l 1,1,-1
 32 56 l 1,2,-1
 32 -8 l 1,3,-1
 0 -8 l 1,0,-1
EndSplineSet
EndChar

StartChar: uniE3E2
Encoding: 58338 58338 954
Width: 64
Flags: W
LayerCount: 2
UndoRedoHistory
Layer: 1
Undoes
UndoOperation
Index: 0
Type: 3
WasModified: 1
WasOrder2: 1
Layer: 2
EndUndoOperation
EndUndoes
Redoes
EndRedoes
EndUndoRedoHistory
Fore
SplineSet
0 -8 m 1,0,-1
 0 24 l 1,1,-1
 64 24 l 1,2,-1
 64 -8 l 1,3,-1
 0 -8 l 1,0,-1
EndSplineSet
EndChar

StartChar: uniE3E3
Encoding: 58339 58339 955
Width: 64
Flags: W
LayerCount: 2
UndoRedoHistory
Layer: 1
Undoes
UndoOperation
Index: 0
Type: 3
WasModified: 1
WasOrder2: 1
Layer: 2
EndUndoOperation
EndUndoes
Redoes
EndRedoes
EndUndoRedoHistory
Fore
SplineSet
0 48 m 1,0,-1
 0 56 l 1,1,-1
 64 56 l 1,2,-1
 64 48 l 1,3,-1
 0 48 l 1,0,-1
EndSplineSet
EndChar

StartChar: uniE3E8
Encoding: 58344 58344 960
Width: 64
Flags: W
LayerCount: 2
UndoRedoHistory
Layer: 1
Undoes
UndoOperation
Index: 0
Type: 3
WasModified: 1
WasOrder2: 1
Layer: 2
EndUndoOperation
EndUndoes
Redoes
EndRedoes
EndUndoRedoHistory
Fore
SplineSet
32 8 m 1,0,-1
 32 24 l 1,1,-1
 48 24 l 1,2,-1
 48 8 l 1,3,-1
 32 8 l 1,0,-1
16 8 m 1,4,-1
 0 8 l 1,5,-1
 0 24 l 1,6,-1
 16 24 l 1,7,-1
 16 8 l 1,4,-1
32 8 m 1,8,-1
 32 -8 l 1,9,-1
 16 -8 l 1,10,-1
 16 8 l 1,11,-1
 32 8 l 1,8,-1
48 8 m 1,12,-1
 64 8 l 1,13,-1
 64 -8 l 1,14,-1
 48 -8 l 1,15,-1
 48 8 l 1,12,-1
EndSplineSet
EndChar

StartChar: uniE3EB
Encoding: 58347 58347 963
Width: 64
Flags: W
LayerCount: 2
UndoRedoHistory
Layer: 1
Undoes
UndoOperation
Index: 0
Type: 3
WasModified: 1
WasOrder2: 1
Layer: 2
EndUndoOperation
EndUndoes
Redoes
EndRedoes
EndUndoRedoHistory
Fore
SplineSet
24 -8 m 1,0,-1
 24 56 l 1,1,-1
 40 56 l 1,2,-1
 40 32 l 1,3,-1
 64 32 l 1,4,-1
 64 16 l 1,5,-1
 40 16 l 1,6,-1
 40 -8 l 1,7,-1
 24 -8 l 1,0,-1
EndSplineSet
EndChar

StartChar: uniE3EC
Encoding: 58348 58348 964
Width: 64
Flags: W
LayerCount: 2
UndoRedoHistory
Layer: 1
Undoes
UndoOperation
Index: 0
Type: 3
WasModified: 1
WasOrder2: 1
Layer: 2
EndUndoOperation
EndUndoes
Redoes
EndRedoes
EndUndoRedoHistory
Fore
SplineSet
32 -8 m 1,0,-1
 32 24 l 1,1,-1
 64 24 l 1,2,-1
 64 -8 l 1,3,-1
 32 -8 l 1,0,-1
EndSplineSet
EndChar

StartChar: uniE3ED
Encoding: 58349 58349 965
Width: 64
Flags: W
LayerCount: 2
UndoRedoHistory
Layer: 1
Undoes
UndoOperation
Index: 0
Type: 3
WasModified: 1
WasOrder2: 1
Layer: 2
EndUndoOperation
EndUndoes
Redoes
EndRedoes
EndUndoRedoHistory
Fore
SplineSet
24 16 m 1,0,-1
 24 56 l 1,1,-1
 40 56 l 1,2,-1
 40 32 l 1,3,-1
 64 32 l 1,4,-1
 64 16 l 1,5,-1
 24 16 l 1,0,-1
EndSplineSet
EndChar

StartChar: uniE3F1
Encoding: 58353 58353 969
Width: 64
Flags: W
LayerCount: 2
UndoRedoHistory
Layer: 1
Undoes
UndoOperation
Index: 0
Type: 3
WasModified: 1
WasOrder2: 1
Layer: 2
EndUndoOperation
EndUndoes
Redoes
EndRedoes
EndUndoRedoHistory
Fore
SplineSet
64 16 m 1,0,-1
 0 16 l 1,1,-1
 0 32 l 1,2,-1
 24 32 l 1,3,-1
 24 56 l 1,4,-1
 40 56 l 1,5,-1
 40 32 l 1,6,-1
 64 32 l 1,7,-1
 64 16 l 1,0,-1
EndSplineSet
EndChar

StartChar: uniE3F5
Encoding: 58357 58357 973
Width: 64
Flags: W
LayerCount: 2
UndoRedoHistory
Layer: 1
Undoes
UndoOperation
Index: 0
Type: 3
WasModified: 1
WasOrder2: 1
Layer: 2
EndUndoOperation
EndUndoes
Redoes
EndRedoes
EndUndoRedoHistory
Fore
SplineSet
0 -8 m 1,0,-1
 0 56 l 1,1,-1
 24 56 l 1,2,-1
 24 -8 l 1,3,-1
 0 -8 l 1,0,-1
EndSplineSet
EndChar

StartChar: uniE3F8
Encoding: 58360 58360 976
Width: 64
Flags: W
LayerCount: 2
UndoRedoHistory
Layer: 1
Undoes
UndoOperation
Index: 0
Type: 3
WasModified: 1
WasOrder2: 1
Layer: 2
EndUndoOperation
EndUndoes
Redoes
EndRedoes
EndUndoRedoHistory
Fore
SplineSet
0 32 m 1,0,-1
 0 56 l 1,1,-1
 64 56 l 1,2,-1
 64 32 l 1,3,-1
 0 32 l 1,0,-1
EndSplineSet
EndChar

StartChar: uniE3F9
Encoding: 58361 58361 977
Width: 64
Flags: W
LayerCount: 2
UndoRedoHistory
Layer: 1
Undoes
UndoOperation
Index: 0
Type: 3
WasModified: 1
WasOrder2: 1
Layer: 2
EndUndoOperation
EndUndoes
Redoes
EndRedoes
EndUndoRedoHistory
Fore
SplineSet
0 -8 m 1,0,-1
 0 16 l 1,1,-1
 64 16 l 1,2,-1
 64 -8 l 1,3,-1
 0 -8 l 1,0,-1
EndSplineSet
EndChar

StartChar: uniE3FA
Encoding: 58362 58362 978
Width: 64
Flags: W
LayerCount: 2
UndoRedoHistory
Layer: 1
Undoes
UndoOperation
Index: 0
Type: 3
WasModified: 1
WasOrder2: 1
Layer: 2
EndUndoOperation
EndUndoes
Redoes
EndRedoes
EndUndoRedoHistory
Fore
SplineSet
16 0 m 1,0,-1
 16 16 l 0,1,-1
 8 16 l 0,2,-1
 8 32 l 1,3,-1
 24 32 l 1,4,-1
 24 24 l 1,5,-1
 32 24 l 1,6,-1
 32 32 l 1,7,-1
 40 32 l 1,8,-1
 40 40 l 1,9,-1
 48 40 l 1,10,-1
 48 48 l 1,11,-1
 64 48 l 1,12,-1
 64 32 l 1,13,-1
 56 32 l 1,14,-1
 56 24 l 1,15,-1
 48 24 l 1,16,-1
 48 16 l 1,17,-1
 40 16 l 1,18,-1
 40 8 l 1,19,-1
 32 8 l 1,20,-1
 32 0 l 1,21,-1
 16 0 l 1,0,-1
EndSplineSet
EndChar

StartChar: uniE2A6
Encoding: 58022 58022 990
Width: 64
Flags: MW
LayerCount: 2
Fore
SplineSet
0 24 m 1
 0 40 l 1
 16 40 l 1
 16 56 l 1
 32 56 l 1
 32 40 l 1
 16 40 l 1
 16 24 l 1
 0 24 l 1
0 -8 m 1
 0 8 l 1
 16 8 l 1
 16 24 l 1
 32 24 l 1
 32 40 l 1
 48 40 l 1
 48 24 l 1
 32 24 l 1
 32 8 l 1
 16 8 l 1
 16 -8 l 1
 0 -8 l 1
EndSplineSet
Refer: 19 46 S 1 0 0 1 8 -8 2
Refer: 19 46 S 1 0 0 1 24 8 2
Refer: 19 46 S 1 0 0 1 24 40 2
EndChar

StartChar: uniE2A8
Encoding: 58024 58024 992
Width: 64
Flags: MW
LayerCount: 2
Fore
SplineSet
0 24 m 1
 0 56 l 1
 64 56 l 1
 64 8 l 1
 48 8 l 1
 48 -8 l 1
 32 -8 l 1
 32 8 l 1
 16 8 l 1
 16 24 l 1
 0 24 l 1
32 8 m 1
 48 8 l 1
 48 24 l 1
 32 24 l 1
 32 8 l 1
EndSplineSet
Refer: 19 46 S 1 0 0 1 -24 -8 2
EndChar

StartChar: uniE2AB
Encoding: 58027 58027 995
Width: 64
Flags: MW
LayerCount: 2
Fore
SplineSet
40 32 m 1
 40 56 l 1
 64 56 l 1
 64 32 l 1
 40 32 l 1
40 -8 m 1
 40 16 l 1
 64 16 l 1
 64 -8 l 1
 40 -8 l 1
EndSplineSet
Refer: 179 9613 S 1 0 0 1 0 0 2
EndChar

StartChar: uniE2AD
Encoding: 58029 58029 997
Width: 64
Flags: MW
LayerCount: 2
Fore
SplineSet
40 32 m 1,0,-1
 40 56 l 1,1,-1
 64 56 l 1,2,-1
 64 32 l 1,3,-1
 40 32 l 1,0,-1
0 -8 m 1,4,-1
 0 56 l 1,5,-1
 24 56 l 1,6,-1
 24 16 l 1,7,-1
 64 16 l 1,8,-1
 64 -8 l 1,9,-1
 0 -8 l 1,4,-1
EndSplineSet
EndChar

StartChar: uniE2AE
Encoding: 58030 58030 998
Width: 64
Flags: MW
LayerCount: 2
Fore
SplineSet
0 32 m 1,0,-1
 0 56 l 1,1,-1
 64 56 l 1,2,-1
 64 -8 l 1,3,-1
 40 -8 l 1,4,-1
 40 32 l 1,5,-1
 0 32 l 1,0,-1
0 -8 m 1,6,-1
 0 16 l 1,7,-1
 24 16 l 1,8,-1
 24 -8 l 1,9,-1
 0 -8 l 1,6,-1
EndSplineSet
EndChar

StartChar: uniE2B0
Encoding: 58032 58032 1000
Width: 64
Flags: MW
LayerCount: 2
Fore
SplineSet
40 -8 m 1,0,-1
 40 16 l 1,1,-1
 64 16 l 1,2,-1
 64 -8 l 1,3,-1
 40 -8 l 1,0,-1
0 -8 m 1,4,-1
 0 56 l 1,5,-1
 64 56 l 1,6,-1
 64 32 l 1,7,-1
 24 32 l 1,8,-1
 24 -8 l 1,9,-1
 0 -8 l 1,4,-1
EndSplineSet
EndChar

StartChar: uniE2B1
Encoding: 58033 58033 1001
Width: 64
Flags: MW
LayerCount: 2
Fore
SplineSet
40 32 m 1
 40 56 l 1
 64 56 l 1
 64 32 l 1
 40 32 l 1
0 32 m 1
 0 56 l 1
 24 56 l 1
 24 32 l 1
 0 32 l 1
EndSplineSet
Refer: 170 9603 S 1 0 0 1 0 0 2
EndChar

StartChar: uniE2B2
Encoding: 58034 58034 1002
Width: 64
Flags: MW
LayerCount: 2
Fore
SplineSet
40 -8 m 1
 40 16 l 1
 64 16 l 1
 64 -8 l 1
 40 -8 l 1
0 -8 m 1
 0 16 l 1
 24 16 l 1
 24 -8 l 1
 0 -8 l 1
EndSplineSet
Refer: 170 9603 S 1 0 0 1 0 40 2
EndChar

StartChar: uniE2B3
Encoding: 58035 58035 1003
Width: 64
Flags: MW
LayerCount: 2
Fore
SplineSet
0 32 m 1
 0 56 l 1
 24 56 l 1
 24 32 l 1
 0 32 l 1
0 -8 m 1
 0 16 l 1
 24 16 l 1
 24 -8 l 1
 0 -8 l 1
EndSplineSet
Refer: 179 9613 S 1 0 0 1 40 0 2
EndChar

StartChar: uniE2BD
Encoding: 58045 58045 1013
Width: 64
Flags: MW
LayerCount: 2
Fore
SplineSet
0 32 m 1,0,-1
 0 56 l 1,1,-1
 24 56 l 1,2,-1
 24 32 l 1,3,-1
 0 32 l 1,0,-1
0 -8 m 1,4,-1
 0 16 l 1,5,-1
 40 16 l 1,6,-1
 40 56 l 1,7,-1
 64 56 l 1,8,-1
 64 -8 l 1,9,-1
 0 -8 l 1,4,-1
EndSplineSet
EndChar

StartChar: uniE2BF
Encoding: 58047 58047 1015
Width: 64
Flags: MW
LayerCount: 2
Fore
SplineSet
0 -8 m 1,0,-1
 0 24 l 1,1,-1
 32 24 l 1,2,-1
 32 56 l 1,3,-1
 64 56 l 1,4,-1
 64 24 l 1,5,-1
 32 24 l 1,6,-1
 32 -8 l 1,7,-1
 0 -8 l 1,0,-1
EndSplineSet
EndChar

StartChar: uniE341
Encoding: 58177 58177 1113
Width: 64
VWidth: 128
Flags: MW
LayerCount: 2
Fore
SplineSet
24 8 m 1
 24 16 l 1
 40 16 l 1
 40 8 l 1
 24 8 l 1
8 8 m 1
 16 8 l 1
 16 0 l 1
 56 0 l 1
 56 32 l 1
 48 32 l 1
 48 40 l 1
 16 40 l 1
 16 32 l 1
 40 32 l 1
 40 24 l 1
 16 24 l 1
 16 16 l 1
 8 16 l 1
 8 8 l 1
EndSplineSet
Refer: 120 219 S 1 0 0 1 0 0 2
EndChar

StartChar: uniE342
Encoding: 58178 58178 1114
Width: 64
VWidth: 128
Flags: MW
LayerCount: 2
Fore
SplineSet
24 8 m 1
 24 24 l 1
 32 24 l 1
 32 32 l 1
 40 32 l 1
 40 8 l 1
 24 8 l 1
8 0 m 1
 48 0 l 1
 48 8 l 1
 56 8 l 1
 56 32 l 1
 48 32 l 1
 48 40 l 1
 32 40 l 1
 32 32 l 1
 24 32 l 1
 24 48 l 1
 8 48 l 1
 8 0 l 1
EndSplineSet
Refer: 120 219 S 1 0 0 1 0 0 2
EndChar

StartChar: uniE343
Encoding: 58179 58179 1115
Width: 64
VWidth: 128
Flags: MW
LayerCount: 2
Fore
SplineSet
8 8 m 1,0,-1
 16 8 l 1,1,-1
 16 0 l 1,2,-1
 56 0 l 1,3,-1
 56 8 l 1,4,-1
 24 8 l 1,5,-1
 24 32 l 1,6,-1
 56 32 l 1,7,-1
 56 40 l 1,8,-1
 16 40 l 1,9,-1
 16 32 l 1,10,-1
 8 32 l 1,11,-1
 8 8 l 1,0,-1
0 -8 m 1,12,-1
 0 56 l 1,13,-1
 64 56 l 1,14,-1
 64 -8 l 1,15,-1
 0 -8 l 1,12,-1
EndSplineSet
EndChar

StartChar: uniE344
Encoding: 58180 58180 1116
Width: 64
VWidth: 128
Flags: MW
LayerCount: 2
Fore
SplineSet
24 8 m 1
 24 32 l 1
 32 32 l 1
 32 24 l 1
 40 24 l 1
 40 8 l 1
 24 8 l 1
8 8 m 1
 16 8 l 1
 16 0 l 1
 56 0 l 1
 56 48 l 1
 40 48 l 1
 40 32 l 1
 32 32 l 1
 32 40 l 1
 16 40 l 1
 16 32 l 1
 8 32 l 1
 8 8 l 1
EndSplineSet
Refer: 120 219 S 1 0 0 1 0 0 2
EndChar

StartChar: uniE345
Encoding: 58181 58181 1117
Width: 64
VWidth: 128
Flags: MW
LayerCount: 2
Fore
SplineSet
24 24 m 1
 24 32 l 1
 40 32 l 1
 40 24 l 1
 24 24 l 1
8 8 m 1
 16 8 l 1
 16 0 l 1
 48 0 l 1
 48 8 l 1
 24 8 l 1
 24 16 l 1
 56 16 l 1
 56 32 l 1
 48 32 l 1
 48 40 l 1
 16 40 l 1
 16 32 l 1
 8 32 l 1
 8 8 l 1
EndSplineSet
Refer: 120 219 S 1 0 0 1 0 0 2
EndChar

StartChar: uniE346
Encoding: 58182 58182 1118
Width: 64
VWidth: 128
Flags: MW
LayerCount: 2
Fore
SplineSet
8 24 m 1,0,-1
 16 24 l 1,1,-1
 16 0 l 1,2,-1
 32 0 l 1,3,-1
 32 24 l 1,4,-1
 48 24 l 1,5,-1
 48 32 l 1,6,-1
 32 32 l 1,7,-1
 32 40 l 1,8,-1
 56 40 l 1,9,-1
 56 48 l 1,10,-1
 24 48 l 1,11,-1
 24 40 l 1,12,-1
 16 40 l 1,13,-1
 16 32 l 1,14,-1
 8 32 l 1,15,-1
 8 24 l 1,0,-1
0 -8 m 1,16,-1
 0 56 l 1,17,-1
 64 56 l 1,18,-1
 64 -8 l 1,19,-1
 0 -8 l 1,16,-1
EndSplineSet
EndChar

StartChar: uniE347
Encoding: 58183 58183 1119
Width: 64
VWidth: 128
Flags: MW
LayerCount: 2
Fore
SplineSet
0 -8 m 1
 0 56 l 1
 64 56 l 1
 64 -8 l 1
 48 -8 l 1
 48 0 l 1
 56 0 l 1
 56 40 l 1
 16 40 l 1
 16 32 l 1
 8 32 l 1
 8 16 l 1
 16 16 l 1
 16 8 l 1
 40 8 l 1
 40 0 l 1
 16 0 l 1
 16 -8 l 1
 0 -8 l 1
EndSplineSet
Refer: 19 46 S 1 0 0 1 0 16 2
EndChar

